<svg width="115" height="90" viewBox="0 0 115 90" fill="none" xmlns="http://www.w3.org/2000/svg">
<g clip-path="url(#clip0_913_7158)">
<path d="M67.65 87.1261C62.7004 89.6245 57.6819 90.0334 52.5946 88.3527C47.1893 86.6274 42.5334 82.9486 38.6271 77.3164C36.5379 74.3189 34.7441 70.8434 33.2457 66.8899L31.065 61.0993H14.9875L11.3766 69.6824C11.1498 70.2726 11.0363 70.7497 11.0363 71.1136C11.0446 71.522 11.1256 71.9257 11.2753 72.3058C11.434 72.7366 11.7747 73.1228 12.2973 73.4645C12.8127 73.8028 13.4169 73.9805 14.0334 73.975H14.5793V74.6566H0V73.975H0.611817C1.65709 73.975 2.69055 73.6684 3.71222 73.0553C4.73388 72.4422 5.58636 71.5225 6.26965 70.2962L21.4598 35.6223C19.6893 31.6222 17.8047 28.8743 15.8059 27.3785C14.1246 26.1063 12.5236 25.4706 11.0029 25.4712C9.5555 25.4594 8.11631 25.6895 6.74474 26.1519L6.609 25.4712C9.87858 23.7912 13.0124 22.9509 16.0105 22.9502C19.7345 22.9502 23.0727 24.4037 26.0248 27.3106C28.9318 30.171 31.4978 34.3039 33.7227 39.7093L43.6013 64.1033C47.3266 73.3212 51.1418 79.6558 55.0468 83.107C56.6364 84.5155 58.2711 85.492 59.9512 86.0362C61.6312 86.5805 63.0509 86.853 64.2103 86.8536C65.3467 86.8564 66.4792 86.7193 67.5822 86.4454L67.65 87.1261ZM16.1463 58.173H30.044L25.2753 45.5687C25.0471 44.9333 24.7291 44.0589 24.3212 42.9454C23.9133 41.8319 23.6405 41.0486 23.5028 40.5955L16.1463 58.173ZM53.6166 73.9789C54.1812 73.9868 54.7414 73.8789 55.2626 73.6619C55.7839 73.4448 56.2551 73.1232 56.6472 72.7169C57.4692 71.9184 57.9462 70.83 57.9761 69.6844V31.9425C57.946 30.7975 57.469 29.7098 56.6472 28.912C56.255 28.5059 55.7837 28.1844 55.2625 27.9676C54.7413 27.7507 54.1811 27.6429 53.6166 27.651H52.7313V26.9703H73.4416L73.3738 27.651H72.5574C71.9877 27.6449 71.4227 27.7535 70.8959 27.9701C70.369 28.1867 69.8911 28.507 69.4904 28.912C68.6274 29.752 68.196 30.7622 68.196 31.9425V71.7333H77.1214C80.4362 71.7333 83.2183 70.7795 85.4675 68.8719C87.7167 66.9643 89.3856 64.262 90.4742 60.7648H91.1548L88.021 74.6625H52.7304V73.9819L53.6166 73.9789ZM95.1739 73.9789C95.7387 73.987 96.2991 73.8791 96.8205 73.6621C97.3419 73.445 97.8133 73.1233 98.2055 72.7169C99.0275 71.9184 99.5045 70.83 99.5344 69.6844V31.8747C99.5215 31.3121 99.3975 30.7577 99.1694 30.2433C98.9413 29.7289 98.6137 29.2648 98.2055 28.8775C97.8081 28.4802 97.3348 28.1669 96.8138 27.9562C96.2929 27.7455 95.7348 27.6417 95.173 27.651H94.2877V26.9703H114.998L114.93 27.651H114.112C113.545 27.6439 112.983 27.7486 112.457 27.9591C111.931 28.1696 111.452 28.4817 111.047 28.8775C110.631 29.2569 110.301 29.7203 110.077 30.237C109.854 30.7537 109.743 31.3119 109.752 31.8747V69.6854C109.752 70.8657 110.184 71.8766 111.047 72.7179C111.447 73.1228 111.925 73.4431 112.452 73.6597C112.978 73.8764 113.543 73.9849 114.113 73.9789H114.93L114.998 74.6596H94.2877V73.9789H95.1739Z" fill="url(#paint0_linear_913_7158)"/>
<path fill-rule="evenodd" clip-rule="evenodd" d="M6.39062 0H115.015V18.3939H6.39062V0ZM11.1534 4.22174V14.7308H15.6603C17.5096 14.7308 18.9142 14.2833 19.8742 13.3882C20.8342 12.4931 21.3152 11.1868 21.3172 9.4694C21.3172 7.78084 20.8313 6.48441 19.8595 5.58013C18.8876 4.67585 17.4889 4.2237 15.6633 4.2237L11.1534 4.22174ZM8.32542 16.5171V16.1974C8.5792 16.1355 8.74347 16.0558 8.82314 15.9535C8.90281 15.8512 8.93921 15.6781 8.93921 15.4243V3.61385C8.93921 3.35516 8.89888 3.17319 8.81527 3.06597C8.73166 2.95876 8.56936 2.88007 8.32346 2.80826V2.51317H14.8646C16.5394 2.51317 17.8404 2.63481 18.7676 2.8781C19.6511 3.10187 20.475 3.51614 21.1815 4.0919C21.9197 4.70251 22.4915 5.48988 22.8438 6.3808C23.2394 7.37141 23.4356 8.43036 23.4212 9.49694C23.4367 10.571 23.2405 11.6375 22.8438 12.6357C22.4889 13.5291 21.9177 14.3203 21.1815 14.9384C20.4753 15.5159 19.6515 15.9322 18.7676 16.1581C17.843 16.4033 16.542 16.525 14.8646 16.523L8.32542 16.5171ZM34.3355 16.7571C32.0404 16.7571 30.1463 16.0686 28.6531 14.6915C27.16 13.3144 26.4134 11.5839 26.4134 9.49989C26.4134 7.42378 27.1557 5.70013 28.6403 4.32895C30.1249 2.95777 32.0233 2.27186 34.3355 2.2712C36.6471 2.2712 38.5451 2.95712 40.0298 4.32895C41.5144 5.70079 42.2567 7.42443 42.2567 9.49989C42.2567 11.5839 41.5098 13.3144 40.016 14.6915C38.5222 16.0686 36.6287 16.7571 34.3355 16.7571ZM28.6797 9.51956C28.6797 11.1196 29.1974 12.4059 30.2328 13.3783C31.2682 14.3508 32.6453 14.8367 34.3641 14.8361C36.0402 14.8361 37.393 14.3459 38.4225 13.3656C39.452 12.3852 39.9661 11.1032 39.9648 9.51956C39.9648 7.95035 39.4474 6.67458 38.4127 5.69226C37.3779 4.70995 36.0195 4.21813 34.3375 4.21682C32.6437 4.21682 31.2771 4.70863 30.2377 5.69226C29.1984 6.67589 28.6797 7.95166 28.6816 9.51956H28.6797ZM58.2869 6.56868C58.3132 6.50738 58.3326 6.44339 58.3449 6.37785C58.3582 6.31639 58.3658 6.25382 58.3675 6.19096C58.3655 6.04153 58.3068 5.89846 58.2033 5.79063C58.0961 5.66177 57.8334 5.47095 57.4164 5.20832C56.7485 4.87891 56.0501 4.61536 55.3311 4.42141C54.6834 4.2539 54.0171 4.16864 53.3481 4.16764C51.5966 4.16764 50.1867 4.66142 49.1185 5.64898C48.0473 6.63261 47.5132 7.92412 47.5132 9.51956C47.5132 11.115 48.0562 12.4055 49.1352 13.3783C50.2143 14.3512 51.6395 14.8361 53.4032 14.8361C54.6057 14.8323 55.7866 14.5171 56.8311 13.9213C57.9249 13.3075 58.4708 12.8275 58.4708 12.4714C58.47 12.4099 58.461 12.3487 58.4443 12.2895C58.4189 12.1888 58.386 12.0901 58.3459 11.9944L58.5899 11.7711L60.7725 14.4918L60.5148 14.6689C60.413 14.6055 60.3075 14.548 60.1991 14.4967C60.1272 14.4606 60.0483 14.4408 59.9679 14.4387C59.905 14.4387 59.7368 14.5371 59.4564 14.7456C59.1761 14.9541 58.9322 15.1144 58.7148 15.2472C57.9047 15.7426 57.0311 16.1258 56.118 16.3863C55.2003 16.6398 54.252 16.7653 53.2999 16.7591C50.9261 16.7591 48.9916 16.0774 47.4965 14.7141C46.0014 13.3508 45.2532 11.6131 45.2518 9.50088C45.2518 7.42476 45.9942 5.70112 47.4788 4.32994C48.9634 2.95876 50.8602 2.27284 53.1691 2.27218C54.897 2.27218 56.7331 2.71088 58.6774 3.58828C59.0905 3.7791 59.3443 3.87255 59.4328 3.87255C59.5112 3.87007 59.5872 3.84552 59.6522 3.80173C59.7654 3.72323 59.8708 3.63396 59.9669 3.53516L60.2384 3.69058L58.5662 6.72606L58.2908 6.57064L58.2869 6.56868ZM67.5478 16.5181V16.1974C67.8006 16.1355 67.9648 16.0558 68.0455 15.9584C68.1261 15.861 68.1606 15.683 68.1606 15.4282V4.27485H63.6624C63.4087 4.27485 63.2306 4.31616 63.1332 4.39092C63.0359 4.46568 62.9513 4.63486 62.8804 4.88864H62.5854V1.87578H62.8922C62.968 2.13743 63.0614 2.30661 63.1637 2.39022C63.266 2.47383 63.4441 2.51514 63.6831 2.51514H74.983C75.224 2.51514 75.3971 2.47481 75.5043 2.39022C75.6116 2.30563 75.7011 2.13743 75.7886 1.87578H76.0837V4.88864H75.7886C75.7168 4.63486 75.6371 4.47059 75.5388 4.39092C75.4404 4.31125 75.2683 4.27485 75.0056 4.27485H70.4003V15.4282C70.4003 15.683 70.4406 15.8551 70.5164 15.9584C70.5921 16.0617 70.7603 16.1355 71.0141 16.1974V16.5181H67.5478ZM86.702 16.7581C84.4068 16.7581 82.5134 16.0696 81.0215 14.6925C79.5297 13.3154 78.7828 11.5849 78.7808 9.50088C78.7808 7.42476 79.5234 5.70112 81.0087 4.32994C82.494 2.95876 84.3918 2.27284 86.702 2.27218C89.0135 2.27218 90.9116 2.9581 92.3962 4.32994C93.8808 5.70177 94.6235 7.42542 94.6241 9.50088C94.6241 11.5849 93.8772 13.3154 92.3834 14.6925C90.8896 16.0696 88.9958 16.7581 86.702 16.7581ZM81.0481 9.52055C81.0481 11.1206 81.5651 12.4068 82.5993 13.3793C83.6334 14.3518 85.0105 14.8377 86.7305 14.8371C88.4066 14.8371 89.7594 14.3469 90.789 13.3665C91.8185 12.3862 92.3329 11.1042 92.3323 9.52055C92.3323 7.95133 91.8152 6.67556 90.7811 5.69325C89.747 4.71093 88.3879 4.21911 86.7039 4.2178C85.0101 4.2178 83.6442 4.70962 82.6061 5.69325C81.5681 6.67688 81.0494 7.95264 81.05 9.52055H81.0481ZM106.249 2.51514C108.08 2.51514 109.498 2.87089 110.503 3.58238C111.512 4.29748 112.014 5.28897 112.014 6.56966C112.014 7.52083 111.734 8.32544 111.17 8.97857C110.605 9.6317 109.818 10.0606 108.809 10.2809C109.311 11.0629 109.942 12.0721 110.694 13.3174C111.867 15.2374 112.621 16.1974 112.956 16.1974H113.072V16.5181H109.334V16.1974H109.45C109.556 16.2042 109.66 16.1743 109.745 16.1128C109.778 16.0849 109.803 16.0501 109.82 16.0109C109.837 15.9717 109.845 15.9293 109.844 15.8866C109.835 15.8204 109.809 15.7576 109.768 15.7046C109.748 15.6795 109.731 15.6529 109.715 15.625L106.499 10.4638H101.64V15.4282C101.64 15.683 101.686 15.8551 101.77 15.9584C101.855 16.0617 102.028 16.1404 102.281 16.2112V16.5181H98.8134V16.2112C99.0583 16.1404 99.2226 16.0597 99.3052 15.9614C99.3878 15.863 99.4301 15.6909 99.4301 15.4282V3.61779C99.4301 3.35516 99.3898 3.17319 99.3052 3.07089C99.2206 2.96859 99.0613 2.88007 98.8134 2.80826V2.51317L106.249 2.51514ZM105.639 4.46273H101.638V8.54282H105.77C107.201 8.54282 108.25 8.3756 108.917 8.04117C109.579 7.70673 109.913 7.18246 109.913 6.46736C109.913 5.76505 109.585 5.25651 108.929 4.94175C108.275 4.62601 107.177 4.46666 105.643 4.46666L105.639 4.46273Z" fill="url(#paint1_linear_913_7158)"/>
</g>
<defs>
<linearGradient id="paint0_linear_913_7158" x1="15.5247" y1="35.0712" x2="53.7977" y2="103.303" gradientUnits="userSpaceOnUse">
<stop stop-color="#DCBC55"/>
<stop offset="0.33" stop-color="#C59F36"/>
<stop offset="0.705" stop-color="#BF9A32"/>
<stop offset="1" stop-color="#B9922D"/>
</linearGradient>
<linearGradient id="paint1_linear_913_7158" x1="21.0549" y1="3.35688" x2="25.0329" y2="27.545" gradientUnits="userSpaceOnUse">
<stop stop-color="#DCBC55"/>
<stop offset="0.33" stop-color="#C59F36"/>
<stop offset="0.705" stop-color="#BF9A32"/>
<stop offset="1" stop-color="#B9922D"/>
</linearGradient>
<clipPath id="clip0_913_7158">
<rect width="115" height="89.3666" fill="white"/>
</clipPath>
</defs>
</svg>
