<svg width="43" height="31" viewBox="0 0 43 31" fill="none" xmlns="http://www.w3.org/2000/svg">
<path d="M18.3878 3.21707L11.373 13.2203C13.8081 13.4694 15.8143 14.341 17.3916 15.8353C18.9689 17.3295 19.7575 19.3219 19.7575 21.8123C19.7575 24.5241 18.8305 26.6825 16.9765 28.2874C15.1225 29.8647 12.8535 30.6534 10.1693 30.6534C7.98328 30.6534 6.06011 30.1691 4.39982 29.2006C2.7672 28.2044 1.605 26.8485 0.913213 25.1329L2.73953 24.0537C3.26529 25.4926 4.17845 26.5995 5.47901 27.3743C6.77957 28.1491 8.34301 28.5365 10.1693 28.5365C12.3554 28.5365 14.1264 27.9277 15.4823 26.7102C16.8658 25.465 17.5576 23.8323 17.5576 21.8123C17.5576 19.7646 16.852 18.132 15.4407 16.9145C14.0572 15.6969 12.2724 15.0881 10.0863 15.0881V15.0466L10.0448 15.0881H9.46371L8.50904 13.6354L15.8558 3.21707H1.66034V1.1417H18.3878V3.21707ZM42.5891 30.1968H24.3259V28.2044L34.9933 17.2465C38.1201 13.9813 39.6836 11.2418 39.6836 9.02808C39.6836 7.14642 39.0748 5.63832 37.8573 4.50379C36.6674 3.36926 35.1454 2.802 33.2915 2.802C30.0262 2.802 27.7157 4.26858 26.3597 7.20176L24.4919 6.08107C25.3497 4.33776 26.5396 3.00953 28.0615 2.09637C29.6111 1.15554 31.3545 0.685126 33.2915 0.685126C35.6435 0.685126 37.6636 1.43226 39.3515 2.92652C41.0671 4.42078 41.925 6.45463 41.925 9.02808C41.925 10.6054 41.4684 12.1688 40.5552 13.7184C39.6697 15.268 38.3138 16.9698 36.4875 18.8238L27.4804 28.0799H42.5891V30.1968Z" fill="url(#paint0_linear_913_7662)"/>
<defs>
<linearGradient id="paint0_linear_913_7662" x1="5.54594" y1="5.86178" x2="33.7045" y2="37.6159" gradientUnits="userSpaceOnUse">
<stop stop-color="#DCBC55"/>
<stop offset="0.33" stop-color="#C59F36"/>
<stop offset="0.705" stop-color="#BF9A32"/>
<stop offset="1" stop-color="#B9922D"/>
</linearGradient>
</defs>
</svg>
