<svg width="268" height="78" viewBox="0 0 268 78" fill="none" xmlns="http://www.w3.org/2000/svg">
<path d="M265.975 68.2706C265.975 72.374 262.582 75.6978 258.385 75.6978H9.99838C5.80347 75.6978 2.39844 72.374 2.39844 68.2706V9.04049C2.39844 4.939 5.80347 1.60352 9.99838 1.60352H258.383C262.582 1.60352 265.973 4.939 265.973 9.04049L265.975 68.2706Z" fill="#04312B"/>
<path d="M257.585 1.6928C262.155 1.6928 265.874 5.31902 265.874 9.7754V67.5254C265.874 71.9818 262.155 75.608 257.585 75.608H10.7898C6.21912 75.608 2.49992 71.9818 2.49992 67.5254V9.7754C2.49992 5.31902 6.21912 1.6928 10.7898 1.6928H257.585ZM257.585 0.150397H10.7898C5.36274 0.150397 0.917969 4.48406 0.917969 9.7754V67.5254C0.917969 72.8167 5.36274 77.1504 10.7898 77.1504H257.585C263.012 77.1504 267.456 72.8167 267.456 67.5254V9.7754C267.456 4.48406 263.012 0.150397 257.585 0.150397Z" fill="#A6A6A6"/>
<path d="M60.3995 38.2346C60.3423 32.0304 65.6099 29.012 65.8508 28.8714C62.8675 24.6307 58.2435 24.0512 56.6186 24.005C52.7351 23.6066 48.968 26.2708 46.9897 26.2708C44.9719 26.2708 41.9255 24.0435 38.6421 24.109C34.417 24.1725 30.4643 26.5576 28.2965 30.2613C23.8226 37.8131 27.1592 48.9107 31.4456 55.0149C33.5897 58.0044 36.0952 61.3423 39.3746 61.2249C42.5829 61.0959 43.7814 59.2306 47.6531 59.2306C51.4893 59.2306 52.6147 61.2249 55.9592 61.1498C59.4025 61.0959 61.5703 58.1468 63.6395 55.1304C66.1173 51.7039 67.1124 48.3293 67.1519 48.1561C67.0709 48.1291 60.4647 45.6709 60.3995 38.2346Z" fill="white"/>
<path d="M54.0816 19.9895C55.8072 17.8855 56.9879 15.023 56.6601 12.1182C54.1625 12.226 51.0391 13.8025 49.2405 15.8604C47.6491 17.6737 46.2276 20.6459 46.5948 23.441C49.4004 23.6451 52.281 22.0608 54.0816 19.9895Z" fill="white"/>
<path d="M106.834 60.7951H102.35L99.8944 53.2703H91.3573L89.0176 60.7951H84.6523L93.1105 35.1772H98.3346L106.834 60.7951ZM99.154 50.1133L96.9329 43.4239C96.6979 42.7406 96.2576 41.1313 95.6081 38.598H95.5291C95.2704 39.6875 94.8539 41.2968 94.2813 43.4239L92.0996 50.1133H99.154Z" fill="white"/>
<path d="M128.585 51.3316C128.585 54.4732 127.714 56.9564 125.973 58.7794C124.413 60.4022 122.476 61.2126 120.164 61.2126C117.669 61.2126 115.876 60.3387 114.784 58.5908H114.705V68.3216H110.496V48.4037C110.496 46.4286 110.443 44.4016 110.34 42.3226H114.042L114.277 45.2505H114.356C115.759 43.0445 117.89 41.9434 120.749 41.9434C122.984 41.9434 124.849 42.8038 126.342 44.5267C127.839 46.2515 128.585 48.5192 128.585 51.3316ZM124.297 51.4817C124.297 49.6838 123.882 48.2015 123.049 47.035C122.139 45.8184 120.916 45.2101 119.384 45.2101C118.346 45.2101 117.402 45.5489 116.559 46.2169C115.714 46.8906 115.161 47.7703 114.903 48.8599C114.772 49.3681 114.707 49.7839 114.707 50.1111V53.1911C114.707 54.5348 115.13 55.6686 115.975 56.5945C116.82 57.5205 117.917 57.9825 119.268 57.9825C120.853 57.9825 122.087 57.3857 122.97 56.1961C123.854 55.0045 124.297 53.4337 124.297 51.4817Z" fill="white"/>
<path d="M150.38 51.3316C150.38 54.4732 149.509 56.9564 147.766 58.7794C146.208 60.4022 144.271 61.2126 141.959 61.2126C139.464 61.2126 137.671 60.3387 136.581 58.5908H136.502V68.3216H132.293V48.4037C132.293 46.4286 132.239 44.4016 132.137 42.3226H135.839L136.074 45.2505H136.153C137.554 43.0445 139.685 41.9434 142.546 41.9434C144.779 41.9434 146.644 42.8038 148.141 44.5267C149.632 46.2515 150.38 48.5192 150.38 51.3316ZM146.091 51.4817C146.091 49.6838 145.675 48.2015 144.842 47.035C143.932 45.8184 142.713 45.2101 141.179 45.2101C140.139 45.2101 139.197 45.5489 138.352 46.2169C137.507 46.8906 136.956 47.7703 136.697 48.8599C136.569 49.3681 136.502 49.7839 136.502 50.1111V53.1911C136.502 54.5348 136.925 55.6686 137.766 56.5945C138.611 57.5185 139.708 57.9825 141.063 57.9825C142.648 57.9825 143.882 57.3857 144.765 56.1961C145.649 55.0045 146.091 53.4337 146.091 51.4817Z" fill="white"/>
<path d="M174.738 53.6109C174.738 55.79 173.962 57.563 172.404 58.9316C170.692 60.4274 168.309 61.1743 165.247 61.1743C162.42 61.1743 160.153 60.643 158.438 59.5784L159.413 56.1577C161.261 57.2473 163.289 57.794 165.498 57.794C167.083 57.794 168.317 57.4436 169.204 56.7468C170.086 56.0499 170.526 55.1144 170.526 53.9478C170.526 52.9083 170.163 52.0324 169.435 51.3221C168.71 50.6118 167.5 49.9515 165.81 49.3413C161.21 47.6685 158.911 45.2179 158.911 41.9955C158.911 39.8895 159.717 38.1628 161.33 36.8192C162.937 35.4736 165.081 34.8018 167.762 34.8018C170.153 34.8018 172.14 35.2079 173.725 36.0184L172.673 39.364C171.192 38.5786 169.518 38.1859 167.644 38.1859C166.163 38.1859 165.006 38.542 164.177 39.2504C163.476 39.8838 163.125 40.6557 163.125 41.5701C163.125 42.5826 163.525 43.42 164.331 44.0783C165.032 44.6866 166.305 45.345 168.153 46.0553C170.414 46.9427 172.074 47.9803 173.143 49.17C174.207 50.3558 174.738 51.8399 174.738 53.6109Z" fill="white"/>
<path d="M188.659 45.4024H184.019V54.371C184.019 56.6521 184.837 57.7917 186.476 57.7917C187.228 57.7917 187.852 57.7282 188.345 57.6011L188.462 60.7177C187.633 61.0199 186.541 61.172 185.188 61.172C183.526 61.172 182.227 60.6773 181.289 59.6898C180.355 58.7003 179.885 57.041 179.885 54.7098V45.3986H177.121V42.3186H179.885V38.9363L184.019 37.7197V42.3186H188.659V45.4024Z" fill="white"/>
<path d="M209.596 51.4067C209.596 54.2461 208.763 56.5772 207.1 58.4002C205.357 60.2771 203.043 61.2126 200.159 61.2126C197.379 61.2126 195.165 60.3137 193.515 58.5157C191.864 56.7178 191.039 54.4482 191.039 51.7128C191.039 48.8503 191.888 46.5056 193.592 44.6827C195.292 42.8578 197.586 41.9453 200.471 41.9453C203.25 41.9453 205.487 42.8443 207.175 44.6442C208.791 46.3901 209.596 48.6443 209.596 51.4067ZM205.229 51.5395C205.229 49.8359 204.856 48.3748 204.099 47.1563C203.217 45.6817 201.955 44.9464 200.321 44.9464C198.628 44.9464 197.343 45.6837 196.461 47.1563C195.704 48.3767 195.331 49.8609 195.331 51.6165C195.331 53.3201 195.704 54.7812 196.461 55.9978C197.371 57.4724 198.642 58.2077 200.283 58.2077C201.89 58.2077 203.152 57.457 204.062 55.9593C204.838 54.7177 205.229 53.2412 205.229 51.5395Z" fill="white"/>
<path d="M223.273 45.932C222.857 45.8569 222.412 45.8184 221.946 45.8184C220.466 45.8184 219.32 46.3632 218.515 47.4546C217.814 48.4171 217.463 49.6337 217.463 51.1025V60.7949H213.255L213.295 48.1399C213.295 46.0109 213.241 44.0724 213.137 42.3245H216.803L216.957 45.8588H217.074C217.518 44.6441 218.219 43.6662 219.178 42.9328C220.116 42.2725 221.129 41.9434 222.221 41.9434C222.61 41.9434 222.961 41.9703 223.273 42.0184V45.932Z" fill="white"/>
<path d="M242.095 50.6853C242.095 51.4206 242.046 52.0405 241.941 52.5467H229.313C229.363 54.3716 229.973 55.7673 231.145 56.7298C232.21 57.5902 233.586 58.0214 235.276 58.0214C237.145 58.0214 238.851 57.7308 240.385 57.1475L241.045 59.9965C239.252 60.7588 237.136 61.138 234.693 61.138C231.755 61.138 229.449 60.2949 227.771 58.6105C226.097 56.9261 225.258 54.6642 225.258 51.8268C225.258 49.0413 226.038 46.7217 227.599 44.8718C229.234 42.8967 231.443 41.9092 234.223 41.9092C236.954 41.9092 239.021 42.8967 240.425 44.8718C241.536 46.4406 242.095 48.381 242.095 50.6853ZM238.081 49.6207C238.109 48.4041 237.834 47.3531 237.264 46.4657C236.535 45.3241 235.416 44.7543 233.909 44.7543C232.533 44.7543 231.414 45.3107 230.559 46.4272C229.858 47.3146 229.441 48.3791 229.313 49.6188H238.081V49.6207Z" fill="white"/>
<path d="M97.7587 19.4174C97.7587 21.6831 97.0617 23.3887 95.6698 24.534C94.3805 25.5909 92.5483 26.1202 90.1751 26.1202C88.9984 26.1202 87.9915 26.0702 87.1484 25.9701V13.5904C88.2482 13.4172 89.4328 13.3286 90.7122 13.3286C92.9728 13.3286 94.6767 13.8079 95.8258 14.7666C97.113 15.8504 97.7587 17.4 97.7587 19.4174ZM95.577 19.4732C95.577 18.0044 95.1782 16.8783 94.3805 16.0929C93.5829 15.3094 92.418 14.9167 90.8839 14.9167C90.2324 14.9167 89.6776 14.9591 89.2176 15.0476V24.459C89.4723 24.4975 89.9382 24.5148 90.6154 24.5148C92.1989 24.5148 93.421 24.0855 94.2818 23.227C95.1426 22.3684 95.577 21.1172 95.577 19.4732Z" fill="white"/>
<path d="M109.327 21.3965C109.327 22.7921 108.918 23.9355 108.1 24.8326C107.244 25.7547 106.108 26.2147 104.691 26.2147C103.325 26.2147 102.237 25.7739 101.425 24.8884C100.616 24.0048 100.211 22.8903 100.211 21.5466C100.211 20.1414 100.628 18.9883 101.465 18.0932C102.302 17.198 103.427 16.7495 104.845 16.7495C106.211 16.7495 107.309 17.1903 108.14 18.0739C108.93 18.9325 109.327 20.0413 109.327 21.3965ZM107.18 21.4619C107.18 20.6245 106.995 19.9065 106.626 19.3078C106.191 18.584 105.573 18.2221 104.77 18.2221C103.939 18.2221 103.307 18.584 102.872 19.3078C102.501 19.9065 102.318 20.6361 102.318 21.4985C102.318 22.3359 102.503 23.0539 102.872 23.6526C103.321 24.3764 103.944 24.7383 104.75 24.7383C105.54 24.7383 106.16 24.3706 106.606 23.6333C106.989 23.0231 107.18 22.2993 107.18 21.4619Z" fill="white"/>
<path d="M124.84 16.9346L121.928 26.009H120.033L118.826 22.0685C118.52 21.0849 118.272 20.107 118.078 19.1368H118.041C117.861 20.1339 117.612 21.1099 117.292 22.0685L116.011 26.009H114.094L111.355 16.9346H113.482L114.534 21.2485C114.789 22.2687 114.998 23.2409 115.166 24.161H115.203C115.357 23.4026 115.612 22.4362 115.972 21.2677L117.292 16.9365H118.978L120.244 21.1753C120.55 22.2091 120.799 23.2043 120.99 24.1629H121.048C121.188 23.2293 121.399 22.2341 121.679 21.1753L122.809 16.9365H124.84V16.9346Z" fill="white"/>
<path d="M135.564 26.0087H133.495V20.8112C133.495 19.2096 132.871 18.4088 131.62 18.4088C131.005 18.4088 130.51 18.6282 130.125 19.0691C129.744 19.5099 129.55 20.0296 129.55 20.6245V26.0068H127.481V19.5272C127.481 18.7303 127.456 17.8659 127.406 16.9304H129.225L129.321 18.3491H129.379C129.62 17.9083 129.979 17.5445 130.451 17.2538C131.011 16.915 131.639 16.7437 132.326 16.7437C133.195 16.7437 133.918 17.017 134.492 17.5656C135.207 18.2375 135.564 19.2404 135.564 20.5725V26.0087Z" fill="white"/>
<path d="M141.27 26.0087H139.203V12.7705H141.27V26.0087Z" fill="white"/>
<path d="M153.452 21.3965C153.452 22.7921 153.043 23.9355 152.225 24.8326C151.369 25.7547 150.231 26.2147 148.816 26.2147C147.448 26.2147 146.36 25.7739 145.55 24.8884C144.741 24.0048 144.336 22.8903 144.336 21.5466C144.336 20.1414 144.753 18.9883 145.59 18.0932C146.427 17.198 147.552 16.7495 148.968 16.7495C150.336 16.7495 151.432 17.1903 152.265 18.0739C153.055 18.9325 153.452 20.0413 153.452 21.3965ZM151.303 21.4619C151.303 20.6245 151.118 19.9065 150.749 19.3078C150.316 18.584 149.696 18.2221 148.895 18.2221C148.062 18.2221 147.43 18.584 146.997 19.3078C146.626 19.9065 146.443 20.6361 146.443 21.4985C146.443 22.3359 146.628 23.0539 146.997 23.6526C147.446 24.3764 148.069 24.7383 148.875 24.7383C149.665 24.7383 150.283 24.3706 150.729 23.6333C151.114 23.0231 151.303 22.2993 151.303 21.4619Z" fill="white"/>
<path d="M163.461 26.0088H161.603L161.449 24.9635H161.392C160.756 25.797 159.85 26.2147 158.673 26.2147C157.795 26.2147 157.084 25.9395 156.549 25.3928C156.063 24.8961 155.82 24.2782 155.82 23.5448C155.82 22.436 156.294 21.5909 157.248 21.0057C158.199 20.4205 159.538 20.1337 161.262 20.1471V19.9777C161.262 18.7823 160.618 18.1856 159.329 18.1856C158.411 18.1856 157.601 18.4108 156.902 18.8574L156.482 17.533C157.346 17.0113 158.415 16.7495 159.674 16.7495C162.107 16.7495 163.327 18.0008 163.327 20.5033V23.8451C163.327 24.7517 163.372 25.4736 163.461 26.0088ZM161.313 22.8903V21.4908C159.031 21.4523 157.889 22.0625 157.889 23.3195C157.889 23.7931 158.02 24.1473 158.286 24.3841C158.553 24.6208 158.892 24.7383 159.297 24.7383C159.751 24.7383 160.176 24.5977 160.563 24.3186C160.952 24.0376 161.191 23.6814 161.279 23.2445C161.301 23.1463 161.313 23.0269 161.313 22.8903Z" fill="white"/>
<path d="M175.224 26.0087H173.388L173.292 24.5515H173.234C172.648 25.6603 171.649 26.2147 170.245 26.2147C169.124 26.2147 168.19 25.7854 167.449 24.9269C166.709 24.0683 166.34 22.9538 166.34 21.5851C166.34 20.1163 166.741 18.9267 167.546 18.0181C168.326 17.1711 169.282 16.7476 170.419 16.7476C171.669 16.7476 172.543 17.1576 173.041 17.9796H173.08V12.7705H175.151V23.564C175.151 24.4476 175.175 25.2618 175.224 26.0087ZM173.08 22.1818V20.6688C173.08 20.407 173.061 20.1952 173.023 20.0335C172.907 19.5484 172.656 19.1403 172.275 18.8112C171.89 18.482 171.426 18.3164 170.891 18.3164C170.119 18.3164 169.515 18.6148 169.07 19.2135C168.63 19.8122 168.407 20.5764 168.407 21.51C168.407 22.4071 168.618 23.1347 169.043 23.6949C169.491 24.2916 170.095 24.59 170.851 24.59C171.53 24.59 172.073 24.3417 172.486 23.8431C172.885 23.383 173.08 22.8286 173.08 22.1818Z" fill="white"/>
<path d="M192.916 21.3965C192.916 22.7921 192.508 23.9355 191.69 24.8326C190.833 25.7547 189.7 26.2147 188.281 26.2147C186.916 26.2147 185.828 25.7739 185.015 24.8884C184.206 24.0048 183.801 22.8903 183.801 21.5466C183.801 20.1414 184.217 18.9883 185.055 18.0932C185.892 17.198 187.017 16.7495 188.437 16.7495C189.801 16.7495 190.901 17.1903 191.73 18.0739C192.52 18.9325 192.916 20.0413 192.916 21.3965ZM190.772 21.4619C190.772 20.6245 190.587 19.9065 190.217 19.3078C189.781 18.584 189.165 18.2221 188.36 18.2221C187.53 18.2221 186.899 18.584 186.462 19.3078C186.091 19.9065 185.907 20.6361 185.907 21.4985C185.907 22.3359 186.093 23.0539 186.462 23.6526C186.91 24.3764 187.534 24.7383 188.34 24.7383C189.13 24.7383 189.752 24.3706 190.198 23.6333C190.579 23.0231 190.772 22.2993 190.772 21.4619Z" fill="white"/>
<path d="M204.043 26.0087H201.976V20.8112C201.976 19.2096 201.352 18.4088 200.098 18.4088C199.484 18.4088 198.988 18.6282 198.605 19.0691C198.222 19.5099 198.031 20.0296 198.031 20.6245V26.0068H195.96V19.5272C195.96 18.7303 195.936 17.8659 195.887 16.9304H197.703L197.8 18.3491H197.857C198.1 17.9083 198.459 17.5445 198.929 17.2538C199.492 16.915 200.118 16.7437 200.807 16.7437C201.674 16.7437 202.396 17.017 202.971 17.5656C203.687 18.2375 204.043 19.2404 204.043 20.5725V26.0087Z" fill="white"/>
<path d="M217.965 18.4459H215.687V22.8541C215.687 23.9745 216.092 24.5347 216.893 24.5347C217.264 24.5347 217.572 24.5039 217.815 24.4403L217.869 25.9707C217.46 26.1209 216.923 26.1959 216.261 26.1959C215.444 26.1959 214.808 25.9534 214.348 25.4683C213.886 24.9832 213.657 24.167 213.657 23.0216V18.4459H212.297V16.9348H213.657V15.2716L215.685 14.6748V16.9328H217.963V18.4459H217.965Z" fill="white"/>
<path d="M228.919 26.0087H226.848V20.8497C226.848 19.2231 226.224 18.4088 224.974 18.4088C224.015 18.4088 223.359 18.8805 223 19.8237C222.939 20.022 222.903 20.2645 222.903 20.5494V26.0068H220.836V12.7705H222.903V18.2394H222.943C223.594 17.2442 224.528 16.7476 225.738 16.7476C226.595 16.7476 227.304 17.0209 227.867 17.5695C228.568 18.2529 228.919 19.2693 228.919 20.613V26.0087Z" fill="white"/>
<path d="M240.22 21.042C240.22 21.4039 240.192 21.7081 240.143 21.9564H233.937C233.965 22.8534 234.261 23.5368 234.836 24.0104C235.361 24.4339 236.038 24.6456 236.867 24.6456C237.785 24.6456 238.623 24.5032 239.377 24.2163L239.701 25.6177C238.818 25.9912 237.78 26.1779 236.577 26.1779C235.136 26.1779 234.001 25.764 233.179 24.9363C232.354 24.1085 231.945 22.9978 231.945 21.6041C231.945 20.2354 232.326 19.0958 233.094 18.1872C233.896 17.217 234.98 16.7319 236.348 16.7319C237.687 16.7319 238.704 17.217 239.391 18.1872C239.945 18.9572 240.22 19.9101 240.22 21.042ZM238.245 20.5203C238.261 19.9217 238.125 19.4058 237.845 18.9707C237.485 18.4105 236.938 18.1295 236.198 18.1295C235.523 18.1295 234.972 18.4028 234.551 18.9515C234.208 19.3884 234.005 19.9101 233.937 20.5203H238.245Z" fill="white"/>
</svg>
