<svg width="72" height="72" viewBox="0 0 72 72" fill="none" xmlns="http://www.w3.org/2000/svg">
<path d="M18 24C13.5 24 13.5 30 18 30L24.0016 30C25.6584 30 27 31.3334 27 32.9903V61.5C27 66 33 66 33 61.5C33 57 33 48 36 48C39 48 39 57 39 61.5C39 66 45 66 45 61.5V33C45 31.3431 46.3431 30 48 30H54C58.5 30 58.5 24 54 24H18Z" stroke="white" stroke-width="3" stroke-linecap="round"/>
<path opacity="0.5" d="M42 13.5C42 16.8137 39.3137 19.5 36 19.5C32.6863 19.5 30 16.8137 30 13.5C30 10.1863 32.6863 7.5 36 7.5C39.3137 7.5 42 10.1863 42 13.5Z" stroke="white" stroke-width="3"/>
</svg>
