<svg width="54" height="55" viewBox="0 0 54 55" fill="none" xmlns="http://www.w3.org/2000/svg">
<rect y="0.0625" width="54" height="54" rx="27" fill="#3C589A"/>
<path d="M32.109 16.8382L29.456 16.834C26.4755 16.834 24.5494 18.8101 24.5494 21.8687V24.1901H21.882C21.6515 24.1901 21.4648 24.3769 21.4648 24.6074V27.9708C21.4648 28.2013 21.6517 28.388 21.882 28.388H24.5494V36.8748C24.5494 37.1053 24.7361 37.292 24.9666 37.292H28.4468C28.6773 37.292 28.8639 37.1051 28.8639 36.8748V28.388H31.9827C32.2132 28.388 32.3999 28.2013 32.3999 27.9708L32.4012 24.6074C32.4012 24.4968 32.3571 24.3908 32.279 24.3124C32.2009 24.2341 32.0945 24.1901 31.9838 24.1901H28.8639V22.2222C28.8639 21.2764 29.0893 20.7963 30.3214 20.7963L32.1085 20.7956C32.3388 20.7956 32.5255 20.6088 32.5255 20.3785V17.2554C32.5255 17.0253 32.339 16.8387 32.109 16.8382Z" fill="white"/>
</svg>
