<svg width="64" height="64" viewBox="0 0 64 64" fill="none" xmlns="http://www.w3.org/2000/svg">
<g clip-path="url(#clip0_987_7007)">
<path fill-rule="evenodd" clip-rule="evenodd" d="M44.1708 13.1806C43.5798 13.1806 43.2036 12.4992 43.5591 11.9971L46.066 8.45667H43.4163C42.8129 8.45667 42.4559 7.77417 42.8009 7.27842L46.0889 2.5549C46.6522 1.74452 47.8837 2.60102 47.3197 3.41215L44.8525 6.95742H47.5165C48.1229 6.95742 48.4792 7.64554 48.1285 8.14054L44.7835 12.8648C44.6373 13.0703 44.4051 13.1802 44.1704 13.1802L44.1708 13.1806ZM19.8302 13.1806C19.5947 13.1806 19.3637 13.0707 19.217 12.8641L15.8728 8.1398C15.5222 7.64479 15.8784 6.95667 16.4848 6.95667H19.1488L16.6809 3.4114C16.1173 2.60102 17.3473 1.7434 17.912 2.55415L21.2001 7.27767C21.5451 7.77304 21.1877 8.45592 20.5843 8.45592H17.9342L20.4411 11.9963C20.7954 12.4973 20.4201 13.1809 19.8294 13.1809L19.8302 13.1806ZM30.7052 10.9474C30.1146 10.9474 29.7385 10.2661 30.0936 9.76393L32.6005 6.22354H29.9507C29.3473 6.22354 28.9903 5.54103 29.3353 5.04528L32.6234 0.32139C33.1866 -0.488989 34.4181 0.367515 33.8541 1.17864L31.387 4.72391H34.051C34.6574 4.72391 35.0132 5.41203 34.663 5.90741L31.3187 10.6313C31.1721 10.8372 30.9411 10.9474 30.7056 10.9474H30.7052ZM37.1177 50.3488C35.6837 50.3488 34.2666 44.9758 36.0539 45.0666C37.4729 45.1389 36.0381 47.2798 37.6754 49.0967C38.1126 49.582 37.7605 50.3488 37.1177 50.3488ZM26.9095 50.3222C26.2663 50.3222 25.9164 49.5538 26.3533 49.0693C27.9895 47.2554 26.5772 45.1438 27.9951 45.0771C29.7943 44.9923 28.2943 50.3218 26.9098 50.3218L26.9095 50.3222ZM29.8292 43.4646C29.1673 43.4646 28.825 42.6572 29.2986 42.1839C31.7833 39.7003 35.9661 42.0103 34.7294 43.2452C34.4361 43.5377 33.961 43.5384 33.6681 43.2452C32.7561 42.3321 31.2715 42.3332 30.3587 43.2452C30.2893 43.3149 30.2068 43.3702 30.1159 43.4079C30.025 43.4456 29.9276 43.465 29.8292 43.4649V43.4646Z" fill="url(#paint0_linear_987_7007)"/>
<path fill-rule="evenodd" clip-rule="evenodd" d="M31.8993 48.1506C29.6208 48.1506 28.6248 47.1404 26.9845 46.0206C25.0413 44.6938 23.8357 43.8711 23.7367 40.6277C20.7153 38.8573 20.818 36.3864 22.933 34.5021C22.9904 31.7818 23.7183 29.8933 25.153 28.7345C26.1067 27.965 29.9489 31.13 38.2038 28.601C38.4423 28.5287 38.703 28.577 38.8961 28.7345C40.7752 30.2522 41.0816 32.8427 41.1019 34.8039C43.2296 36.5349 43.2952 38.8776 40.2922 40.6285C40.1741 44.5033 38.3977 45.0036 35.8571 46.8505C34.7028 47.6886 33.2969 48.151 31.8993 48.151V48.1506ZM25.8123 30.1577C24.8827 31.0993 24.4297 32.6424 24.4297 34.8583C24.4297 35.6409 22.7999 36.0969 22.9057 37.4983C23.0249 39.0782 25.2303 39.1836 25.2303 40.183C25.2303 43.7477 26.4858 43.7271 29.3017 45.8185C30.9671 47.0556 33.3104 46.8464 34.974 45.6373C37.6316 43.7053 38.7975 43.6495 38.7975 40.1833C38.7975 39.1809 41.055 39.0261 41.1255 37.5542C41.1862 36.2886 39.5955 35.9889 39.6007 35.1759C39.6112 33.6039 39.4725 31.4267 38.2342 30.1588C33.9592 31.415 30.0922 31.4169 25.8127 30.158L25.8123 30.1577ZM48.0015 64H16C15.586 64 15.25 63.6637 15.25 63.25V56.4824C15.25 52.2587 18.6861 48.8226 22.9098 48.8226H26.9099C27.8973 48.8226 27.8973 50.3226 26.9099 50.3226H22.9098C19.5134 50.3226 16.75 53.0856 16.75 56.482V62.4997H47.2504V56.482C47.2504 53.1003 44.4994 50.3492 41.1176 50.3492H37.1175C36.1301 50.3492 36.1305 48.8492 37.1175 48.8492H41.1176C45.3266 48.8492 48.7508 52.2737 48.7508 56.4828L48.7511 63.2504C48.7511 63.6644 48.4151 64.0004 48.0011 64.0004L48.0015 64Z" fill="url(#paint1_linear_987_7007)"/>
<path fill-rule="evenodd" clip-rule="evenodd" d="M32.001 54.0482C31.8453 54.0482 31.6901 53.9998 31.5577 53.9031L26.4671 50.1771C25.6724 49.5954 26.5604 48.3861 27.3528 48.9658L32.0036 52.3701L36.6787 48.9902C37.4767 48.4142 38.3546 49.6299 37.5577 50.2059L32.4405 53.9053C32.3092 53.9998 32.1551 54.0478 32.001 54.0478V54.0482Z" fill="url(#paint2_linear_987_7007)"/>
<path fill-rule="evenodd" clip-rule="evenodd" d="M32.0002 64C31.5862 64 31.2502 63.6636 31.2502 63.25V53.2986C31.2502 52.3112 32.7502 52.3116 32.7502 53.2986V63.25C32.7502 63.664 32.4142 64 32.0002 64ZM42.5437 64C42.1297 64 41.7937 63.6636 41.7937 63.25V56.7313C41.7937 55.744 43.2937 55.7443 43.2937 56.7313V63.25C43.2941 63.664 42.9577 64 42.5437 64ZM21.457 64C21.043 64 20.707 63.6636 20.707 63.25V56.7313C20.707 55.744 22.207 55.7443 22.207 56.7313V63.25C22.207 63.664 21.8714 64 21.457 64ZM40.3511 35.93C39.6806 35.93 39.3435 35.1061 39.8332 34.6378C41.202 33.3283 41.268 30.2645 41.1709 29.0367C40.1362 26.7451 40.5776 25.0362 40.9474 24.2018C39.2779 22.7753 35.3692 23.3228 33.9067 23.6836C33.1173 23.876 32.6276 22.8425 33.2767 22.3557L34.3237 21.5708C27.5099 21.0316 19.8123 28.7022 24.2688 34.3966C24.8752 35.171 23.6939 36.0958 23.0883 35.321C17.3549 27.9905 27.7811 17.9884 36.3558 20.4166C36.8535 20.5576 37.2153 21.2783 36.5156 21.8022C38.5687 21.6841 41.1551 21.9335 42.4575 23.6236C43.176 24.5551 41.0167 25.1934 42.5857 28.5226C43.0755 29.5614 42.2955 35.93 40.3515 35.93H40.3511Z" fill="url(#paint3_linear_987_7007)"/>
<path fill-rule="evenodd" clip-rule="evenodd" d="M29.6488 36.6114C29.0795 36.6114 28.2508 35.3217 27.1801 36.3916C26.4804 37.0906 25.4214 36.0279 26.1189 35.3304C28.0348 33.4149 31.2973 35.2692 30.1783 36.3916C30.0324 36.5386 29.8404 36.6114 29.6484 36.6114H29.6488ZM37.3764 36.6114C36.8061 36.6114 35.9788 35.3199 34.9078 36.3916C34.2088 37.091 33.1487 36.0279 33.8469 35.3304C35.7654 33.4149 39.0249 35.2696 37.9067 36.3916C37.7608 36.5386 37.5681 36.6114 37.3768 36.6114H37.3764Z" fill="url(#paint4_linear_987_7007)"/>
<path fill-rule="evenodd" clip-rule="evenodd" d="M53.6475 52.7492C51.4579 52.7492 49.5536 51.4123 48.7928 49.4196C46.6483 49.8388 44.4887 50.177 42.3187 50.4336C41.3392 50.551 41.1611 49.0596 42.1425 48.9441C44.4915 48.6666 46.8521 48.2867 49.1603 47.8161C49.5619 47.7347 49.95 47.9863 50.0411 48.3827C51.021 52.6397 57.3473 51.913 57.3473 47.5483C57.3473 45.7892 56.0978 44.2633 54.3758 43.9194C53.979 43.8403 53.7162 43.4601 53.7833 43.0607C54.9364 36.1509 54.9364 29.432 53.7825 22.52C53.7154 22.1206 53.9783 21.74 54.3758 21.6608C58.6902 20.8032 58.0898 14.3314 53.6472 14.3314C51.9124 14.3314 50.4296 15.5101 50.0408 17.1972C49.9489 17.5932 49.563 17.8456 49.1599 17.7638C37.9338 15.4748 26.0662 15.4748 14.8386 17.7638C14.4438 17.8445 14.0496 17.5936 13.9581 17.1972C12.9749 12.9361 6.65197 13.6707 6.65197 18.0323C6.65197 19.7911 7.90185 21.317 9.62386 21.6608C10.0214 21.74 10.2839 22.1202 10.2171 22.52C9.06323 29.432 9.06286 36.1505 10.2164 43.0607C10.2831 43.4608 10.0206 43.8403 9.62311 43.9194C5.30834 44.7797 5.90947 51.2481 10.3517 51.2481C12.0865 51.2481 13.5696 50.0695 13.9581 48.3827C14.0496 47.9859 14.4419 47.7369 14.8386 47.8161C17.2023 48.2983 19.5381 48.6744 21.7822 48.9347C22.7628 49.0487 22.5895 50.5337 21.6093 50.4253C19.5351 50.1842 17.3849 49.8467 15.2073 49.4192C13.1733 54.7468 5.15234 53.29 5.15234 47.5483C5.15234 45.3223 6.57735 43.3614 8.62936 42.6407C7.59173 36.0208 7.59173 29.5617 8.63011 22.9407C3.16634 21.0233 4.52534 12.8322 10.3525 12.8322C12.5421 12.8322 14.4468 14.1698 15.2076 16.1614C26.2091 14.0101 37.7906 14.0101 48.7931 16.1614C50.8264 10.8346 58.8484 12.2914 58.8484 18.0331C58.8484 20.2591 57.4227 22.22 55.3707 22.9411C56.4075 29.5625 56.4083 36.0211 55.3714 42.641C60.8359 44.5618 59.4739 52.7503 53.6475 52.7503V52.7492Z" fill="url(#paint5_linear_987_7007)"/>
</g>
<defs>
<linearGradient id="paint0_linear_987_7007" x1="20.1263" y1="9.18462" x2="51.4877" y2="30.047" gradientUnits="userSpaceOnUse">
<stop stop-color="#DCBC55"/>
<stop offset="0.33" stop-color="#C59F36"/>
<stop offset="0.705" stop-color="#BF9A32"/>
<stop offset="1" stop-color="#B9922D"/>
</linearGradient>
<linearGradient id="paint1_linear_987_7007" x1="19.7727" y1="35.0346" x2="43.691" y2="58.3194" gradientUnits="userSpaceOnUse">
<stop stop-color="#DCBC55"/>
<stop offset="0.33" stop-color="#C59F36"/>
<stop offset="0.705" stop-color="#BF9A32"/>
<stop offset="1" stop-color="#B9922D"/>
</linearGradient>
<linearGradient id="paint2_linear_987_7007" x1="27.7378" y1="49.768" x2="30.3205" y2="55.7182" gradientUnits="userSpaceOnUse">
<stop stop-color="#DCBC55"/>
<stop offset="0.33" stop-color="#C59F36"/>
<stop offset="0.705" stop-color="#BF9A32"/>
<stop offset="1" stop-color="#B9922D"/>
</linearGradient>
<linearGradient id="paint3_linear_987_7007" x1="23.7562" y1="28.0671" x2="48.2957" y2="41.0506" gradientUnits="userSpaceOnUse">
<stop stop-color="#DCBC55"/>
<stop offset="0.33" stop-color="#C59F36"/>
<stop offset="0.705" stop-color="#BF9A32"/>
<stop offset="1" stop-color="#B9922D"/>
</linearGradient>
<linearGradient id="paint4_linear_987_7007" x1="27.5436" y1="34.8883" x2="28.0113" y2="37.6712" gradientUnits="userSpaceOnUse">
<stop stop-color="#DCBC55"/>
<stop offset="0.33" stop-color="#C59F36"/>
<stop offset="0.705" stop-color="#BF9A32"/>
<stop offset="1" stop-color="#B9922D"/>
</linearGradient>
<linearGradient id="paint5_linear_987_7007" x1="12.4013" y1="20.1172" x2="37.9883" y2="55.5555" gradientUnits="userSpaceOnUse">
<stop stop-color="#DCBC55"/>
<stop offset="0.33" stop-color="#C59F36"/>
<stop offset="0.705" stop-color="#BF9A32"/>
<stop offset="1" stop-color="#B9922D"/>
</linearGradient>
<clipPath id="clip0_987_7007">
<rect width="64" height="64" fill="white"/>
</clipPath>
</defs>
</svg>
