<svg width="64" height="64" viewBox="0 0 64 64" fill="none" xmlns="http://www.w3.org/2000/svg">
<g clip-path="url(#clip0_987_7024)">
<path d="M42.1022 51.7627C41.5887 51.6771 41.1063 52.0259 41.022 52.538L39.4485 62.1195H35.3761V47.3841C38.53 45.3197 38.9672 42.7785 38.9372 41.4102C38.8964 39.5472 37.9721 37.7687 36.6898 37.0855C35.5293 36.4667 34.2175 36.7406 32.9489 37.0052C31.6604 37.274 30.328 37.552 28.9365 37.0647C27.2384 36.4706 25.5255 36.7244 24.2371 37.7615C22.9268 38.8164 22.2759 40.5239 22.4961 42.3287C22.6669 43.728 23.5314 45.0747 25.0674 46.3369V62.1196H19.668L19.5095 40.9309C19.4886 38.1366 17.1981 35.8634 14.4039 35.8634H1.88038V29.1419H7.78263C8.03199 29.1419 8.27115 29.0428 8.44748 28.8665C8.62381 28.6901 8.72287 28.451 8.72287 28.2016C8.72287 27.9523 8.62381 27.7131 8.44748 27.5368C8.27115 27.3604 8.03199 27.2614 7.78263 27.2614H1.88038V19.903H18.7669C18.9416 19.903 19.1128 19.8543 19.2614 19.7625C19.4099 19.6706 19.53 19.5392 19.608 19.3829C20.2814 18.0344 21.332 17.3506 22.7306 17.3506C24.5519 17.3506 25.0641 18.9915 25.5236 22.6695C25.6182 23.4269 25.7076 24.1424 25.84 24.8082C25.9417 25.3206 26.1224 25.9262 26.3136 26.5674C27.085 29.154 27.6118 31.3439 26.2396 31.941C25.0856 32.4429 22.727 31.5705 19.5678 27.615C19.4797 27.5047 19.3679 27.4157 19.2407 27.3545C19.1136 27.2934 18.9742 27.2616 18.8331 27.2616H11.5399C11.2905 27.2616 11.0513 27.3607 10.875 27.537C10.6987 27.7133 10.5996 27.9525 10.5996 28.2019C10.5996 28.4512 10.6987 28.6904 10.875 28.8667C11.0513 29.0431 11.2905 29.1421 11.5399 29.1421H18.3854C20.0774 31.1916 22.862 33.9647 25.5396 33.9647C26.029 33.9647 26.5149 33.8721 26.9899 33.6654C27.9336 33.2546 29.0422 32.2932 28.9635 30.0451C28.9171 28.7187 28.4912 27.2904 28.1155 26.0301C27.9373 25.4325 27.7689 24.8679 27.6842 24.442C27.5651 23.8424 27.4799 23.1596 27.3895 22.4367C27.0222 19.4969 26.5193 15.4706 22.7306 15.4706C20.8141 15.4706 19.23 16.3717 18.2144 18.023H1.88038V8.33925L23.5054 10.7505C23.7523 10.7763 23.9994 10.7034 24.1928 10.5478C24.3861 10.3921 24.5101 10.1663 24.5376 9.91954C24.5651 9.67281 24.4939 9.42522 24.3396 9.23078C24.1853 9.03634 23.9603 8.91082 23.7138 8.88162L1.04437 6.35362C0.912925 6.33898 0.779863 6.35223 0.653884 6.39251C0.527904 6.43279 0.41184 6.4992 0.313274 6.5874C0.214709 6.67559 0.135859 6.78359 0.0818773 6.90434C0.0278953 7.02508 -4.68116e-06 7.15586 5.89118e-10 7.28812L5.89118e-10 36.8036C5.89118e-10 37.053 0.0990618 37.2922 0.275393 37.4685C0.451724 37.6448 0.69088 37.7439 0.94025 37.7439H14.404C16.1693 37.7439 17.616 39.18 17.6292 40.9451L17.7948 63.0669C17.7966 63.315 17.8965 63.5524 18.0726 63.7272C18.2488 63.902 18.4868 64.0001 18.735 64.0001H40.247C40.4699 64.0001 40.6856 63.9209 40.8555 63.7766C41.0255 63.6323 41.1386 63.4324 41.1748 63.2124L42.8776 52.8431C42.8977 52.7213 42.8935 52.5967 42.8654 52.4764C42.8373 52.3562 42.7857 52.2427 42.7137 52.1423C42.6417 52.042 42.5507 51.9568 42.4457 51.8917C42.3408 51.8266 42.2241 51.7828 42.1022 51.7627ZM26.9479 62.1196V45.8817C26.9479 45.7369 26.9144 45.594 26.8501 45.4643C26.7858 45.3345 26.6924 45.2213 26.5771 45.1336C25.6496 44.4276 24.5125 43.3284 24.3627 42.101C24.2217 40.9455 24.6155 39.8707 25.4163 39.2261C26.1987 38.5964 27.2283 38.4591 28.3153 38.8395C30.2001 39.4992 31.937 39.1371 33.3327 38.8459C34.3596 38.6317 35.2464 38.447 35.8052 38.7447V38.7449C36.2919 39.0041 37.0262 40.0437 37.0571 41.4515C37.1068 43.7117 35.399 45.201 33.9576 46.0522C33.8169 46.1354 33.7003 46.2538 33.6192 46.3958C33.5382 46.5378 33.4956 46.6984 33.4956 46.8619V62.1196H26.9479Z" fill="url(#paint0_linear_987_7024)"/>
<path d="M30.6123 9.65048L27.443 9.2971C26.9277 9.2406 26.462 9.61135 26.4043 10.1274C26.3467 10.6434 26.7185 11.1085 27.2346 11.166L30.404 11.5194C34.1505 11.9371 37.5643 13.7437 40.0167 16.6067C42.469 19.4696 43.7301 23.1205 43.5675 26.8866L42.9728 40.6632L41.6318 48.8294C41.6097 48.964 41.6171 49.1019 41.6535 49.2334C41.69 49.3649 41.7547 49.4869 41.8431 49.5909C41.9315 49.6948 42.0414 49.7783 42.1653 49.8355C42.2892 49.8927 42.4241 49.9223 42.5606 49.9221C42.7833 49.9218 42.9987 49.8424 43.1684 49.6981C43.3381 49.5539 43.4511 49.354 43.4872 49.1342L44.8375 40.9125C44.8436 40.8754 44.8474 40.8381 44.8491 40.8006L45.4462 26.9676C45.6293 22.7236 44.2083 18.6095 41.4448 15.3834C38.6813 12.1572 34.8342 10.1214 30.6123 9.65048Z" fill="url(#paint1_linear_987_7024)"/>
<path d="M38.9385 25.6374C38.9385 22.2429 37.1187 19.5837 34.7955 19.5837C32.4722 19.5837 30.6523 22.2429 30.6523 25.6374C30.6523 29.0319 32.4722 31.6909 34.7955 31.6909C37.1186 31.6909 38.9385 29.0319 38.9385 25.6374ZM32.5327 25.6374C32.5327 23.178 33.7252 21.4641 34.7955 21.4641C35.8657 21.4641 37.0581 23.178 37.0581 25.6374C37.0581 28.0967 35.8657 29.8105 34.7955 29.8105C33.7252 29.8105 32.5327 28.0966 32.5327 25.6374ZM49.4648 24.7586L59.4826 20.5009C60.1043 20.2581 60.2523 19.3664 59.7426 18.9357L58.0322 17.4014L63.4636 14.8146C64.0461 14.557 64.1825 13.7179 63.7118 13.2889L58.8503 8.60199C58.6722 8.43018 58.4335 8.33556 58.186 8.33868C57.9385 8.34179 57.7022 8.44238 57.5285 8.61862L50.219 16.0299C49.8326 16.4046 49.8692 17.087 50.2935 17.4181L51.6406 18.519L48.3215 23.3619C47.7788 24.099 48.6407 25.1436 49.4648 24.7586ZM53.4996 17.6095L52.2827 16.6152L58.2145 10.6007L61.4296 13.7005L55.9498 16.3102C55.3546 16.5731 55.2296 17.4386 55.7263 17.859L57.3866 19.3485L51.6932 21.7682L53.6802 18.869C53.8135 18.6746 53.8689 18.4373 53.8354 18.204C53.8019 17.9708 53.6821 17.7586 53.4996 17.6095ZM50.0451 5.93962C49.9553 5.80929 49.834 5.7038 49.6925 5.63298C49.551 5.56216 49.3938 5.52833 49.2357 5.53462L47.6372 5.59574L49.2505 1.26899C49.4893 0.679617 49.005 -0.0175077 48.3695 0.000367298H42.8881C42.6402 0.000389516 42.4024 0.098277 42.2263 0.27274C42.0502 0.447203 41.9502 0.68413 41.9478 0.931992L41.8711 9.39362C41.8545 9.93162 42.3552 10.3961 42.8905 10.3391L44.1355 10.2339L44.9077 14.7715C45.0321 15.6759 46.3701 15.834 46.7007 14.9795L50.1375 6.83987C50.1991 6.69417 50.223 6.53526 50.2068 6.37789C50.1907 6.22051 50.1351 6.06976 50.0451 5.93962ZM46.2215 11.281L45.8445 9.06637C45.8049 8.83405 45.6796 8.62505 45.4933 8.48074C45.307 8.33643 45.0733 8.26733 44.8385 8.28712L43.761 8.37837L43.82 1.88074H47.0156L45.3825 6.26062C45.1373 6.86299 45.6512 7.57312 46.2993 7.52849L47.8305 7.46999L46.2215 11.281ZM63.0678 27.7564L54.6062 27.6797C54.0685 27.6631 53.6036 28.1639 53.6607 28.6991L53.766 29.9441L49.2283 30.7162C48.3227 30.8401 48.1676 32.1815 49.0203 32.5092L57.16 35.946C57.7655 36.2239 58.511 35.7099 58.4651 35.0439L58.404 33.4455L62.7306 35.0587C63.32 35.2977 64.0171 34.8131 63.9992 34.1777V28.6964C63.9993 28.4485 63.9015 28.2107 63.727 28.0346C63.5526 27.8586 63.3157 27.7586 63.0678 27.7564ZM62.1191 32.8239L57.7392 31.1907C57.1361 30.9456 56.4277 31.4586 56.4713 32.1076L56.5298 33.6386L52.7191 32.0296L54.9335 31.6527C55.1658 31.6133 55.3749 31.488 55.5192 31.3016C55.6635 31.1153 55.7326 30.8816 55.7127 30.6467L55.6216 29.5692L62.1191 29.6281V32.8239Z" fill="url(#paint2_linear_987_7024)"/>
</g>
<defs>
<linearGradient id="paint0_linear_987_7024" x1="5.79016" y1="16.8694" x2="43.3784" y2="45.6615" gradientUnits="userSpaceOnUse">
<stop stop-color="#DCBC55"/>
<stop offset="0.33" stop-color="#C59F36"/>
<stop offset="0.705" stop-color="#BF9A32"/>
<stop offset="1" stop-color="#B9922D"/>
</linearGradient>
<linearGradient id="paint1_linear_987_7024" x1="28.972" y1="16.7065" x2="50.4655" y2="27.0898" gradientUnits="userSpaceOnUse">
<stop stop-color="#DCBC55"/>
<stop offset="0.33" stop-color="#C59F36"/>
<stop offset="0.705" stop-color="#BF9A32"/>
<stop offset="1" stop-color="#B9922D"/>
</linearGradient>
<linearGradient id="paint2_linear_987_7024" x1="35.1542" y1="6.57422" x2="59.4521" y2="29.7337" gradientUnits="userSpaceOnUse">
<stop stop-color="#DCBC55"/>
<stop offset="0.33" stop-color="#C59F36"/>
<stop offset="0.705" stop-color="#BF9A32"/>
<stop offset="1" stop-color="#B9922D"/>
</linearGradient>
<clipPath id="clip0_987_7024">
<rect width="64" height="64" fill="white"/>
</clipPath>
</defs>
</svg>
