<svg width="64" height="64" viewBox="0 0 64 64" fill="none" xmlns="http://www.w3.org/2000/svg">
<path d="M31.9999 48C14.6419 48 0.844862 33.305 0.265862 32.679C0.0949382 32.4942 0 32.2517 0 32C0 31.7483 0.0949382 31.5058 0.265862 31.321C3.28785 28.2264 6.65447 25.4882 10.2999 23.16C10.4102 23.0872 10.5338 23.0371 10.6636 23.0124C10.7934 22.9877 10.9268 22.9889 11.0561 23.0161C11.1854 23.0433 11.3081 23.0958 11.417 23.1707C11.5259 23.2455 11.6188 23.3412 11.6905 23.4522C11.7622 23.5632 11.8112 23.6873 11.8346 23.8174C11.8581 23.9474 11.8555 24.0808 11.8271 24.2099C11.7987 24.3389 11.7449 24.461 11.669 24.5692C11.5931 24.6773 11.4966 24.7694 11.3849 24.84C8.16002 26.9231 5.15023 29.3215 2.39986 32C5.34186 34.886 17.5999 46 31.9999 46C46.3999 46 58.6529 34.891 61.5999 32C58.6529 29.109 46.3999 18 31.9999 18C25.8324 18.1471 19.804 19.8623 14.4829 22.984C14.251 23.1075 13.9799 23.1349 13.728 23.0602C13.4762 22.9854 13.2639 22.8146 13.137 22.5845C13.0101 22.3545 12.9788 22.0838 13.0499 21.8309C13.121 21.578 13.2887 21.3632 13.5169 21.233C19.1331 17.9465 25.4943 16.1454 31.9999 16C49.3579 16 63.1549 30.7 63.7339 31.321C63.9048 31.5058 63.9997 31.7483 63.9997 32C63.9997 32.2517 63.9048 32.4942 63.7339 32.679C63.1549 33.305 49.3579 48 31.9999 48Z" fill="url(#paint0_linear_988_5242)"/>
<path d="M32 48C28.8355 48 25.7421 47.0616 23.1109 45.3035C20.4797 43.5454 18.4289 41.0466 17.2179 38.1229C16.0069 35.1993 15.6901 31.9823 16.3074 28.8786C16.9248 25.7749 18.4487 22.9239 20.6863 20.6863C22.9239 18.4487 25.7749 16.9248 28.8786 16.3074C31.9823 15.6901 35.1993 16.0069 38.1229 17.2179C41.0466 18.4289 43.5454 20.4797 45.3035 23.1109C47.0616 25.7421 48 28.8355 48 32C47.995 36.2419 46.3077 40.3087 43.3082 43.3082C40.3087 46.3077 36.2419 47.995 32 48ZM32 18C29.2311 18 26.5243 18.8211 24.222 20.3594C21.9197 21.8978 20.1253 24.0843 19.0657 26.6424C18.0061 29.2006 17.7288 32.0155 18.269 34.7313C18.8092 37.447 20.1426 39.9416 22.1005 41.8995C24.0584 43.8574 26.553 45.1908 29.2687 45.731C31.9845 46.2712 34.7994 45.9939 37.3576 44.9343C39.9157 43.8747 42.1022 42.0803 43.6406 39.778C45.1789 37.4757 46 34.7689 46 32C45.996 28.2882 44.5198 24.7295 41.8951 22.1049C39.2705 19.4802 35.7118 18.004 32 18Z" fill="url(#paint1_linear_988_5242)"/>
<path d="M31.9998 41C29.6128 41 27.3237 40.0518 25.6358 38.364C23.948 36.6761 22.9998 34.3869 22.9998 32C22.9998 29.6131 23.948 27.3239 25.6358 25.636C27.3237 23.9482 29.6128 23 31.9998 23C32.1668 23 32.3328 23 32.4888 23.013C32.6471 23.0255 32.8001 23.0754 32.9352 23.1588C33.0703 23.2421 33.1837 23.3564 33.2659 23.4923C33.3481 23.6281 33.3967 23.7815 33.4078 23.9399C33.4189 24.0983 33.3922 24.257 33.3298 24.403C33.1125 24.9074 33.0003 25.4508 32.9998 26C32.9998 27.0609 33.4212 28.0783 34.1714 28.8284C34.9215 29.5786 35.9389 30 36.9998 30C37.8747 29.9433 38.719 29.6558 39.4468 29.167C39.5561 29.0916 39.6794 29.0388 39.8093 29.0116C39.9393 28.9844 40.0734 28.9833 40.2038 29.0085C40.3341 29.0337 40.4582 29.0845 40.5687 29.1582C40.6792 29.2318 40.7739 29.3267 40.8474 29.4373C40.9208 29.5479 40.9715 29.6721 40.9965 29.8025C41.0214 29.9329 41.0201 30.067 40.9927 30.1969C40.9653 30.3268 40.9123 30.45 40.8367 30.5592C40.7612 30.6684 40.6647 30.7615 40.5528 30.833C39.4976 31.54 38.2686 31.9436 36.9998 32C35.409 31.9984 33.8838 31.3658 32.7589 30.2409C31.634 29.116 31.0014 27.5908 30.9998 26C30.9993 25.6855 31.0241 25.3715 31.0738 25.061C29.8153 25.2293 28.6264 25.7366 27.6341 26.5288C26.6419 27.3209 25.8838 28.368 25.441 29.558C24.9982 30.7479 24.8874 32.0359 25.1204 33.284C25.3534 34.532 25.9215 35.6932 26.7638 36.6432C27.6062 37.5932 28.691 38.2963 29.9022 38.677C31.1134 39.0578 32.4054 39.102 33.6398 38.8048C34.8742 38.5077 36.0045 37.8804 36.9097 36.9902C37.815 36.0999 38.4611 34.9802 38.7788 33.751C38.8116 33.6237 38.8692 33.5042 38.9482 33.3992C39.0272 33.2942 39.1262 33.2058 39.2394 33.139C39.3526 33.0723 39.4778 33.0285 39.6079 33.0101C39.7381 32.9917 39.8705 32.9992 39.9978 33.032C40.125 33.0648 40.2446 33.1224 40.3496 33.2014C40.4546 33.2805 40.543 33.3794 40.6097 33.4926C40.6765 33.6058 40.7203 33.731 40.7387 33.8611C40.7571 33.9913 40.7496 34.1237 40.7168 34.251C40.2186 36.1837 39.0917 37.8958 37.5135 39.1176C35.9354 40.3395 33.9957 41.0017 31.9998 41ZM31.9998 12C31.7346 12 31.4802 11.8946 31.2927 11.7071C31.1051 11.5196 30.9998 11.2652 30.9998 11V7C30.9998 6.73478 31.1051 6.48043 31.2927 6.29289C31.4802 6.10536 31.7346 6 31.9998 6C32.265 6 32.5194 6.10536 32.7069 6.29289C32.8944 6.48043 32.9998 6.73478 32.9998 7V11C32.9998 11.2652 32.8944 11.5196 32.7069 11.7071C32.5194 11.8946 32.265 12 31.9998 12ZM14.9998 16C14.7346 15.9999 14.4803 15.8945 14.2928 15.707L11.2928 12.707C11.1106 12.5184 11.0098 12.2658 11.0121 12.0036C11.0144 11.7414 11.1196 11.4906 11.305 11.3052C11.4904 11.1198 11.7412 11.0146 12.0034 11.0123C12.2656 11.01 12.5182 11.1108 12.7068 11.293L15.7068 14.293C15.8466 14.4329 15.9418 14.611 15.9804 14.805C16.0189 14.9989 15.9991 15.2 15.9235 15.3827C15.8478 15.5654 15.7197 15.7215 15.5552 15.8314C15.3908 15.9413 15.1975 16 14.9998 16ZM48.9998 16C48.802 16 48.6087 15.9413 48.4443 15.8314C48.2799 15.7215 48.1518 15.5654 48.0761 15.3827C48.0004 15.2 47.9806 14.9989 48.0192 14.805C48.0578 14.611 48.153 14.4329 48.2928 14.293L51.2928 11.293C51.4814 11.1108 51.734 11.01 51.9962 11.0123C52.2584 11.0146 52.5092 11.1198 52.6946 11.3052C52.88 11.4906 52.9852 11.7414 52.9875 12.0036C52.9897 12.2658 52.8889 12.5184 52.7068 12.707L49.7068 15.707C49.5193 15.8945 49.265 15.9999 48.9998 16ZM31.9998 58C31.7346 58 31.4802 57.8946 31.2927 57.7071C31.1051 57.5196 30.9998 57.2652 30.9998 57V53C30.9998 52.7348 31.1051 52.4804 31.2927 52.2929C31.4802 52.1054 31.7346 52 31.9998 52C32.265 52 32.5194 52.1054 32.7069 52.2929C32.8944 52.4804 32.9998 52.7348 32.9998 53V57C32.9998 57.2652 32.8944 57.5196 32.7069 57.7071C32.5194 57.8946 32.265 58 31.9998 58ZM11.9998 53C11.802 53 11.6087 52.9413 11.4443 52.8314C11.2799 52.7215 11.1518 52.5654 11.0761 52.3827C11.0004 52.2 10.9806 51.9989 11.0192 51.805C11.0578 51.611 11.153 51.4328 11.2928 51.293L14.2928 48.293C14.4814 48.1108 14.734 48.01 14.9962 48.0123C15.2584 48.0146 15.5092 48.1198 15.6946 48.3052C15.88 48.4906 15.9852 48.7414 15.9875 49.0036C15.9897 49.2658 15.8889 49.5184 15.7068 49.707L12.7068 52.707C12.5193 52.8946 12.265 52.9999 11.9998 53ZM51.9998 53C51.7346 52.9999 51.4803 52.8946 51.2928 52.707L48.2928 49.707C48.1106 49.5184 48.0098 49.2658 48.0121 49.0036C48.0144 48.7414 48.1196 48.4906 48.305 48.3052C48.4904 48.1198 48.7412 48.0146 49.0034 48.0123C49.2656 48.01 49.5182 48.1108 49.7068 48.293L52.7068 51.293C52.8466 51.4328 52.9418 51.611 52.9804 51.805C53.0189 51.9989 52.9991 52.2 52.9235 52.3827C52.8478 52.5654 52.7197 52.7215 52.5552 52.8314C52.3908 52.9413 52.1975 53 51.9998 53Z" fill="url(#paint2_linear_988_5242)"/>
<defs>
<linearGradient id="paint0_linear_988_5242" x1="8.63996" y1="21.84" x2="25.6226" y2="56.8114" gradientUnits="userSpaceOnUse">
<stop stop-color="#DCBC55"/>
<stop offset="0.33" stop-color="#C59F36"/>
<stop offset="0.705" stop-color="#BF9A32"/>
<stop offset="1" stop-color="#B9922D"/>
</linearGradient>
<linearGradient id="paint1_linear_988_5242" x1="20.32" y1="21.84" x2="41.92" y2="44.08" gradientUnits="userSpaceOnUse">
<stop stop-color="#DCBC55"/>
<stop offset="0.33" stop-color="#C59F36"/>
<stop offset="0.705" stop-color="#BF9A32"/>
<stop offset="1" stop-color="#B9922D"/>
</linearGradient>
<linearGradient id="paint2_linear_988_5242" x1="16.6699" y1="15.49" x2="51.1963" y2="44.2027" gradientUnits="userSpaceOnUse">
<stop stop-color="#DCBC55"/>
<stop offset="0.33" stop-color="#C59F36"/>
<stop offset="0.705" stop-color="#BF9A32"/>
<stop offset="1" stop-color="#B9922D"/>
</linearGradient>
</defs>
</svg>
