<svg width="64" height="64" viewBox="0 0 64 64" fill="none" xmlns="http://www.w3.org/2000/svg">
<g clip-path="url(#clip0_988_5238)">
<path d="M61.9255 3.80598C61.5225 2.89188 60.9106 2.08512 60.1391 1.4506C59.3675 0.816077 58.4577 0.371503 57.483 0.15264C56.5083 -0.0662224 55.4958 -0.0532646 54.527 0.190471C53.5582 0.434207 52.6601 0.901918 51.905 1.55598C50.8722 2.45868 50.1548 3.66768 49.8572 5.00673C49.5597 6.34577 49.6977 7.74485 50.251 8.99998C50.4641 9.50494 50.642 10.024 50.7835 10.5535C48.2636 11.3619 46.0657 12.9502 44.5073 15.0892C42.9489 17.2281 42.1106 19.807 42.1135 22.4535V26.9865C42.1126 28.1867 41.7926 29.3651 41.1864 30.4009C40.5802 31.4368 39.7095 32.2929 38.6635 32.8815L38.087 33.2055C36.7002 32.2559 35.0583 31.7485 33.3775 31.75H30.6245C28.9434 31.7484 27.3011 32.256 25.914 33.206L25.3375 32.882C24.2916 32.2934 23.4209 31.4373 22.8147 30.4014C22.2085 29.3656 21.8885 28.1872 21.8875 26.987V22.45C21.8904 19.8035 21.0521 17.2246 19.4938 15.0857C17.9354 12.9467 15.7375 11.3584 13.2175 10.55C13.3596 10.0217 13.5379 9.50381 13.751 8.99998C14.3044 7.74485 14.4424 6.34577 14.1448 5.00673C13.8473 3.66768 13.1298 2.45868 12.097 1.55598C11.3419 0.901918 10.4439 0.434207 9.47507 0.190471C8.50627 -0.0532646 7.49379 -0.0662224 6.51907 0.15264C5.54435 0.371503 4.63461 0.816077 3.86302 1.4506C3.09142 2.08512 2.47952 2.89188 2.07653 3.80598C-0.0669925 8.74415 -0.560424 14.242 0.669534 19.483C0.895304 20.4526 1.34804 21.3547 1.9905 22.1152C2.63295 22.8758 3.44678 23.4729 4.36503 23.8575C5.42407 24.311 6.58611 24.4693 7.72788 24.3158C8.86965 24.1623 9.94859 23.7026 10.8502 22.9855C11.7519 22.2684 12.4426 21.3206 12.8492 20.2427C13.2558 19.1648 13.363 17.9969 13.1595 16.863C14.0732 17.4816 14.822 18.3138 15.3412 19.2874C15.8603 20.261 16.134 21.3466 16.1385 22.45V26.983C16.1398 29.2036 16.7314 31.3839 17.8527 33.3006C18.9739 35.2173 20.5845 36.8016 22.5195 37.891L22.5565 37.912C22.099 39.5508 22.1562 41.2906 22.7203 42.8959C23.2844 44.5011 24.3283 45.8942 25.7105 46.8865C25.2118 47.6237 24.8847 48.4634 24.7533 49.3437C24.6219 50.2241 24.6895 51.1227 24.9512 51.9734C25.213 52.8242 25.6621 53.6054 26.2656 54.2597C26.8691 54.9139 27.6116 55.4246 28.4385 55.754V63.1235C28.4385 63.2384 28.4611 63.3522 28.505 63.4584C28.549 63.5646 28.6134 63.6611 28.6947 63.7423C28.7759 63.8236 28.8724 63.8881 28.9786 63.932C29.0848 63.976 29.1986 63.9986 29.3135 63.9985H34.6885C34.8035 63.9986 34.9173 63.976 35.0235 63.932C35.1297 63.8881 35.2261 63.8236 35.3074 63.7423C35.3887 63.6611 35.4531 63.5646 35.4971 63.4584C35.541 63.3522 35.5636 63.2384 35.5635 63.1235V55.754C36.3904 55.4246 37.133 54.9139 37.7365 54.2597C38.34 53.6054 38.7891 52.8242 39.0508 51.9734C39.3126 51.1227 39.3802 50.2241 39.2488 49.3437C39.1174 48.4634 38.7903 47.6237 38.2915 46.8865C39.6738 45.8942 40.7176 44.5011 41.2818 42.8959C41.8459 41.2906 41.9031 39.5508 41.4455 37.912L41.4825 37.891C43.4173 36.8017 45.0278 35.2177 46.149 33.3013C47.2702 31.3848 47.862 29.2048 47.8635 26.9845V22.45C47.8678 21.3463 48.1414 20.2604 48.6606 19.2864C49.1797 18.3124 49.9287 17.4799 50.8425 16.861C50.6365 17.9954 50.742 19.1645 51.1477 20.2437C51.5535 21.3229 52.2443 22.2719 53.1466 22.9897C54.049 23.7074 55.129 24.167 56.2719 24.3196C57.4147 24.4721 58.5775 24.3119 59.6365 23.856C60.5549 23.4715 61.3689 22.8744 62.0114 22.1139C62.654 21.3534 63.1068 20.4512 63.3325 19.4815C64.5622 14.241 64.0687 8.74371 61.9255 3.80598ZM9.24003 21.9745C8.61348 22.3488 7.90699 22.569 7.17872 22.6168C6.45045 22.6647 5.72121 22.539 5.05103 22.25C4.38574 21.9716 3.79602 21.5392 3.33037 20.9885C2.86473 20.4377 2.53645 19.7843 2.37253 19.082C1.22845 14.2094 1.687 9.09767 3.68003 4.50648C3.96637 3.84445 4.40576 3.25984 4.96207 2.80071C5.51837 2.34158 6.17571 2.02106 6.88003 1.86548C7.22453 1.78699 7.57671 1.74724 7.93003 1.74698C9.04184 1.74725 10.116 2.14987 10.954 2.88048C11.7047 3.54093 12.2248 4.42389 12.4385 5.40065C12.6522 6.37741 12.5484 7.3969 12.142 8.31048C11.787 9.15184 11.5166 10.0265 11.335 10.9215C11.3325 10.93 11.3285 10.9375 11.326 10.9465C11.3215 10.965 11.3215 10.9835 11.318 11.002C11.0319 12.4237 10.9682 13.8812 11.129 15.3225C11.129 15.3355 11.132 15.3485 11.133 15.362C11.1869 15.8596 11.2682 16.3538 11.3765 16.8425C11.6137 17.8139 11.5343 18.8357 11.15 19.7589C10.7657 20.6821 10.0965 21.4583 9.24003 21.9745ZM17.89 26.9845V22.45C17.8829 20.804 17.4006 19.1952 16.501 17.8168C15.6014 16.4384 14.3228 15.3491 12.819 14.68C12.7608 13.8799 12.7816 13.076 12.881 12.28C15.0003 13.0064 16.8394 14.3774 18.1408 16.2011C19.4422 18.0247 20.1407 20.2096 20.1385 22.45V26.983C20.1394 28.4938 20.5418 29.9773 21.3046 31.2815C22.0674 32.5856 23.1631 33.6636 24.4795 34.405L24.508 34.421C23.9917 34.9723 23.5521 35.5907 23.201 36.2595C21.5851 35.3093 20.245 33.954 19.3133 32.3273C18.3816 30.7007 17.8905 28.8591 17.8885 26.9845H17.89ZM37.5655 50.217C37.5635 51.1409 37.2586 52.0388 36.6976 52.7729C36.1366 53.5071 35.3505 54.0372 34.4595 54.282C34.2744 54.3325 34.111 54.4424 33.9945 54.5949C33.878 54.7475 33.815 54.9341 33.815 55.126V62.25H30.19V55.126C30.1901 54.9341 30.127 54.7475 30.0106 54.5949C29.8941 54.4424 29.7307 54.3325 29.5455 54.282C28.8896 54.1045 28.2864 53.7707 27.7877 53.3091C27.289 52.8474 26.9096 52.2718 26.6821 51.6315C26.4546 50.9912 26.3857 50.3052 26.4813 49.6324C26.5769 48.9597 26.8341 48.3201 27.231 47.7685C28.299 48.2466 29.4559 48.494 30.626 48.4945H33.379C34.5492 48.494 35.706 48.2466 36.774 47.7685C37.2878 48.4815 37.5642 49.3381 37.564 50.217H37.5655ZM33.379 46.7445H30.6245C28.8679 46.7445 27.1832 46.0466 25.941 44.8045C24.6989 43.5624 24.001 41.8776 24.001 40.121C24.001 38.3643 24.6989 36.6796 25.941 35.4375C27.1832 34.1953 28.8679 33.4975 30.6245 33.4975H33.3775C35.1342 33.4975 36.8189 34.1953 38.0611 35.4375C39.3032 36.6796 40.001 38.3643 40.001 40.121C40.001 41.8776 39.3032 43.5624 38.0611 44.8045C36.8189 46.0466 35.1342 46.7445 33.3775 46.7445H33.379ZM46.1135 22.45V26.983C46.1118 28.8578 45.6208 30.6997 44.6891 32.3267C43.7574 33.9536 42.4172 35.3092 40.801 36.2595C40.4501 35.5906 40.0107 34.972 39.4945 34.4205L39.523 34.405C40.8393 33.6637 41.935 32.586 42.6978 31.2822C43.4607 29.9783 43.8633 28.4951 43.8645 26.9845V22.45C43.862 20.2093 44.5602 18.0239 45.8614 16.1998C47.1626 14.3756 49.0016 13.004 51.121 12.277C51.2206 13.074 51.2414 13.8789 51.183 14.68C49.6794 15.3492 48.401 16.4384 47.5016 17.8169C46.6023 19.1953 46.1203 20.8041 46.1135 22.45ZM61.6295 19.078C61.4662 19.781 61.1382 20.4352 60.6725 20.9867C60.2068 21.5382 59.6168 21.9712 58.951 22.25C58.281 22.5395 57.5518 22.6657 56.8234 22.6183C56.095 22.5708 55.3883 22.351 54.7615 21.977C53.9053 21.4606 53.2364 20.6843 52.8522 19.7612C52.4681 18.838 52.3889 17.8163 52.626 16.845C52.7353 16.3522 52.8169 15.8538 52.8705 15.352V15.328C53.0321 13.8864 52.9685 12.4285 52.682 11.0065C52.6785 10.987 52.6785 10.9675 52.674 10.9485C52.674 10.9395 52.667 10.9315 52.6645 10.923C52.4832 10.0283 52.213 9.15399 51.858 8.31298C51.4517 7.39859 51.3483 6.37825 51.5629 5.40093C51.7775 4.42361 52.299 3.54048 53.051 2.88048C53.8889 2.1496 54.9632 1.74693 56.075 1.74698C56.4284 1.74721 56.7805 1.78696 57.125 1.86548C57.8294 2.02106 58.4867 2.34158 59.043 2.80071C59.5993 3.25984 60.0387 3.84445 60.325 4.50648C62.3165 9.09726 62.774 14.208 61.6295 19.0795V19.078Z" fill="url(#paint0_linear_988_5238)"/>
<path d="M58.2582 5.40655C58.0734 4.98357 57.768 4.6245 57.3801 4.37431C56.9923 4.12412 56.5392 3.99393 56.0777 4.00005C55.8456 4.00005 55.623 4.09223 55.459 4.25633C55.2949 4.42042 55.2027 4.64298 55.2027 4.87505C55.2027 5.10711 55.2949 5.32967 55.459 5.49377C55.623 5.65786 55.8456 5.75005 56.0777 5.75005C56.1983 5.74674 56.3173 5.7789 56.4198 5.84253C56.5224 5.90616 56.604 5.99848 56.6547 6.10805C57.034 6.98013 57.3477 7.87929 57.5932 8.79805C57.6427 8.98434 57.7524 9.14905 57.9052 9.26659C58.058 9.38413 58.2454 9.44792 58.4382 9.44805C58.5722 9.44794 58.7044 9.41705 58.8247 9.35776C58.9449 9.29847 59.0499 9.21237 59.1316 9.10609C59.2133 8.99981 59.2695 8.87619 59.2958 8.74477C59.3222 8.61334 59.318 8.47761 59.2837 8.34805C59.0163 7.34314 58.6735 6.35985 58.2582 5.40655ZM7.92167 4.00005C7.45998 3.99406 7.0068 4.12447 6.61891 4.37494C6.23102 4.62541 5.92568 4.98479 5.74117 5.40805C5.32598 6.36022 4.98318 7.34233 4.71567 8.34605C4.68463 8.45749 4.676 8.57398 4.6903 8.68878C4.70459 8.80357 4.74152 8.91439 4.79894 9.01482C4.85637 9.11524 4.93315 9.20328 5.02483 9.27382C5.11652 9.34436 5.22129 9.39601 5.33308 9.42578C5.44487 9.45554 5.56145 9.46283 5.67608 9.44723C5.7907 9.43162 5.90109 9.39342 6.00085 9.33485C6.10061 9.27628 6.18776 9.1985 6.25725 9.10601C6.32674 9.01353 6.37719 8.90817 6.40567 8.79605C6.65134 7.87728 6.96521 6.97811 7.34467 6.10605C7.39524 5.99644 7.47687 5.90409 7.57944 5.84045C7.68201 5.77681 7.80101 5.74468 7.92167 5.74805C8.15373 5.74805 8.37629 5.65586 8.54039 5.49177C8.70448 5.32767 8.79667 5.10511 8.79667 4.87305C8.79667 4.64098 8.70448 4.41842 8.54039 4.25433C8.37629 4.09023 8.15373 3.99805 7.92167 3.99805V4.00005Z" fill="url(#paint1_linear_988_5238)"/>
</g>
<defs>
<linearGradient id="paint0_linear_988_5238" x1="8.64595" y1="11.6777" x2="51.8469" y2="56.1484" gradientUnits="userSpaceOnUse">
<stop stop-color="#DCBC55"/>
<stop offset="0.33" stop-color="#C59F36"/>
<stop offset="0.705" stop-color="#BF9A32"/>
<stop offset="1" stop-color="#B9922D"/>
</linearGradient>
<linearGradient id="paint1_linear_988_5238" x1="12.0586" y1="4.99398" x2="12.767" y2="12.2956" gradientUnits="userSpaceOnUse">
<stop stop-color="#DCBC55"/>
<stop offset="0.33" stop-color="#C59F36"/>
<stop offset="0.705" stop-color="#BF9A32"/>
<stop offset="1" stop-color="#B9922D"/>
</linearGradient>
<clipPath id="clip0_988_5238">
<rect width="64" height="64" fill="white"/>
</clipPath>
</defs>
</svg>
