<svg width="64" height="64" viewBox="0 0 64 64" fill="none" xmlns="http://www.w3.org/2000/svg">
<path d="M32.0018 39.574C31.8013 39.574 31.6054 39.6334 31.4387 39.7448C31.272 39.8561 31.1421 40.0144 31.0654 40.1996C30.9887 40.3848 30.9686 40.5886 31.0078 40.7852C31.0469 40.9818 31.1434 41.1624 31.2851 41.3041C31.4269 41.4459 31.6075 41.5424 31.8041 41.5815C32.0007 41.6206 32.2044 41.6005 32.3896 41.5238C32.5748 41.4471 32.7331 41.3172 32.8445 41.1505C32.9558 40.9839 33.0153 40.7879 33.0153 40.5875C33.0153 40.3187 32.9085 40.0609 32.7184 39.8708C32.5284 39.6808 32.2706 39.574 32.0018 39.574Z" fill="url(#paint0_linear_988_5189)"/>
<path d="M24.8768 38.0135C25.4365 38.0135 25.8903 37.5597 25.8903 37C25.8903 36.4402 25.4365 35.9865 24.8768 35.9865C24.317 35.9865 23.8633 36.4402 23.8633 37C23.8633 37.5597 24.317 38.0135 24.8768 38.0135Z" fill="url(#paint1_linear_988_5189)"/>
<path d="M39.1268 38.0135C39.6865 38.0135 40.1403 37.5597 40.1403 37C40.1403 36.4402 39.6865 35.9865 39.1268 35.9865C38.567 35.9865 38.1133 36.4402 38.1133 37C38.1133 37.5597 38.567 38.0135 39.1268 38.0135Z" fill="url(#paint2_linear_988_5189)"/>
<path d="M52.494 22.1445C54.3195 19.437 54.8585 16.167 54.094 12.412C53.4487 9.48737 53.1734 6.49326 53.2745 3.5C53.2745 3.26794 53.1823 3.04538 53.0182 2.88128C52.8541 2.71719 52.6315 2.625 52.3995 2.625C52.1674 2.625 51.9448 2.71719 51.7808 2.88128C51.6167 3.04538 51.5245 3.26794 51.5245 3.5C51.4201 6.61078 51.7072 9.72233 52.379 12.7615C52.992 15.7705 52.6595 18.4005 51.3955 20.599C50.8854 19.984 50.3261 19.4116 49.723 18.8875C50.4688 17.09 50.6263 15.1025 50.173 13.21C49.472 10.0231 49.1702 6.7614 49.2745 3.5C49.2745 3.26794 49.1823 3.04538 49.0182 2.88128C48.8541 2.71719 48.6315 2.625 48.3995 2.625C48.1674 2.625 47.9448 2.71719 47.7808 2.88128C47.6167 3.04538 47.5245 3.26794 47.5245 3.5C47.4174 6.87895 47.7314 10.2581 48.459 13.5595C48.7871 14.949 48.7265 16.4021 48.284 17.7595C47.7635 17.3957 47.2248 17.0588 46.67 16.75C42.8075 14.6 37.4615 13.371 32.0015 13.371C26.5415 13.371 21.1955 14.6 17.333 16.75C16.7781 17.0594 16.2394 17.397 15.719 17.7615C15.2764 16.4041 15.2159 14.951 15.544 13.5615C16.2717 10.2594 16.5857 6.87962 16.4785 3.5C16.4785 3.26794 16.3863 3.04538 16.2222 2.88128C16.0581 2.71719 15.8355 2.625 15.6035 2.625C15.3714 2.625 15.1488 2.71719 14.9847 2.88128C14.8207 3.04538 14.7285 3.26794 14.7285 3.5C14.8322 6.76146 14.5299 10.0232 13.8285 13.21C13.3751 15.1025 13.5327 17.09 14.2785 18.8875C13.6758 19.4119 13.117 19.9847 12.6075 20.6C11.3435 18.4 11.011 15.7715 11.624 12.7625C12.2958 9.72301 12.5829 6.61111 12.4785 3.5C12.4785 3.26794 12.3863 3.04538 12.2222 2.88128C12.0581 2.71719 11.8355 2.625 11.6035 2.625C11.3714 2.625 11.1488 2.71719 10.9847 2.88128C10.8207 3.04538 10.7285 3.26794 10.7285 3.5C10.8296 6.49326 10.5543 9.48737 9.90897 12.412C9.14447 16.167 9.68347 19.437 11.509 22.1445C10.175 24.3738 9.48936 26.9309 9.52897 29.5285C9.52897 39.11 16.446 45.2005 22.249 48.6235C23.2661 49.2261 24.1388 50.0442 24.8056 51.0204C25.4725 51.9965 25.9174 53.1069 26.109 54.2735C26.445 56.3318 26.6098 58.4145 26.6015 60.5C26.6015 60.7321 26.6937 60.9546 26.8577 61.1187C27.0218 61.2828 27.2444 61.375 27.4765 61.375C27.7085 61.375 27.9311 61.2828 28.0952 61.1187C28.2593 60.9546 28.3515 60.7321 28.3515 60.5C28.3598 58.3178 28.1869 56.1386 27.8345 53.985C27.601 52.5663 27.0594 51.2161 26.2479 50.0293C25.4365 48.8424 24.3747 47.8478 23.1375 47.1155C17.728 43.925 11.279 38.2835 11.279 29.5285C11.279 18.8945 22.442 15.121 32.0015 15.121C41.561 15.121 52.724 18.8945 52.724 29.5285C52.724 38.2835 46.274 43.925 40.865 47.1155C39.6278 47.8478 38.5662 48.8423 37.7548 50.0291C36.9434 51.2158 36.4019 52.566 36.1685 53.9845C35.8158 56.1383 35.6429 58.3176 35.6515 60.5C35.6515 60.7321 35.7437 60.9546 35.9077 61.1187C36.0718 61.2828 36.2944 61.375 36.5265 61.375C36.7585 61.375 36.9811 61.2828 37.1452 61.1187C37.3093 60.9546 37.4015 60.7321 37.4015 60.5C37.3933 58.415 37.558 56.3328 37.894 54.275C38.0855 53.1084 38.5304 51.998 39.1973 51.0219C39.8642 50.0457 40.7369 49.2276 41.754 48.625C47.557 45.202 54.474 39.1115 54.474 29.53C54.5136 26.9319 53.8279 24.3743 52.494 22.1445Z" fill="url(#paint3_linear_988_5189)"/>
<path d="M40.1033 44.65C46.7233 40.5935 50.2223 35.365 50.2223 29.5295C50.2223 17.955 33.8648 17.621 31.9998 17.621C30.1348 17.621 13.7773 17.955 13.7773 29.5285C13.7773 35.364 17.2773 40.5925 23.8963 44.649C25.2666 45.4813 26.4313 46.6121 27.3037 47.9572C28.1761 49.3023 28.7337 50.8269 28.9348 52.4175C29.269 55.0986 29.434 57.7981 29.4288 60.5C29.4288 60.732 29.521 60.9546 29.6851 61.1187C29.8492 61.2828 30.0718 61.375 30.3038 61.375C30.5359 61.375 30.7585 61.2828 30.9226 61.1187C31.0867 60.9546 31.1788 60.732 31.1788 60.5C31.184 57.7244 31.0145 54.9512 30.6713 52.197C30.4373 50.3463 29.7887 48.5724 28.7739 47.0072C27.7592 45.442 26.4043 44.1259 24.8103 43.157C19.0413 39.6215 16.6998 35.7455 15.8928 32.5C18.0208 31.6352 20.3262 31.2973 22.6128 31.515C23.9472 31.6931 25.2402 32.1026 26.4338 32.725C27.9588 33.4225 29.5338 34.143 31.9998 34.143C34.4658 34.143 36.0408 33.4225 37.5658 32.725C38.7596 32.1025 40.0528 31.693 41.3873 31.515C43.6755 31.2957 45.9827 31.6337 48.1118 32.5C46.8858 37.4655 42.7498 40.9745 39.1893 43.157C37.5954 44.1259 36.2405 45.442 35.2258 47.0072C34.211 48.5724 33.5624 50.3463 33.3283 52.197C32.9852 54.9512 32.8157 57.7244 32.8208 60.5C32.8208 60.732 32.913 60.9546 33.0771 61.1187C33.2412 61.2828 33.4638 61.375 33.6958 61.375C33.9279 61.375 34.1505 61.2828 34.3146 61.1187C34.4787 60.9546 34.5708 60.732 34.5708 60.5C34.5657 57.7981 34.7307 55.0986 35.0648 52.4175C35.2662 50.8271 35.8238 49.3027 36.6962 47.9578C37.5686 46.6129 38.7332 45.4822 40.1033 44.65ZM41.2033 29.776C39.6802 29.9706 38.2029 30.4304 36.8383 31.1345C35.4213 31.7845 34.0823 32.394 31.9998 32.394C29.9173 32.394 28.5783 31.7825 27.1613 31.1345C25.7969 30.4305 24.3198 29.9708 22.7968 29.776C20.3521 29.532 17.8841 29.8605 15.5883 30.7355C15.5482 30.3347 15.5279 29.9322 15.5273 29.5295C15.5273 19.6575 30.3138 19.372 31.9998 19.372C33.6858 19.372 48.4723 19.6575 48.4723 29.5295C48.4723 29.9398 48.453 30.3421 48.4143 30.7365C46.1179 29.8605 43.6491 29.5313 41.2033 29.775V29.776Z" fill="url(#paint4_linear_988_5189)"/>
<defs>
<linearGradient id="paint0_linear_988_5189" x1="31.2619" y1="39.9439" x2="32.6302" y2="41.3527" gradientUnits="userSpaceOnUse">
<stop stop-color="#DCBC55"/>
<stop offset="0.33" stop-color="#C59F36"/>
<stop offset="0.705" stop-color="#BF9A32"/>
<stop offset="1" stop-color="#B9922D"/>
</linearGradient>
<linearGradient id="paint1_linear_988_5189" x1="24.1369" y1="36.3564" x2="25.5052" y2="37.7651" gradientUnits="userSpaceOnUse">
<stop stop-color="#DCBC55"/>
<stop offset="0.33" stop-color="#C59F36"/>
<stop offset="0.705" stop-color="#BF9A32"/>
<stop offset="1" stop-color="#B9922D"/>
</linearGradient>
<linearGradient id="paint2_linear_988_5189" x1="38.3869" y1="36.3564" x2="39.7552" y2="37.7651" gradientUnits="userSpaceOnUse">
<stop stop-color="#DCBC55"/>
<stop offset="0.33" stop-color="#C59F36"/>
<stop offset="0.705" stop-color="#BF9A32"/>
<stop offset="1" stop-color="#B9922D"/>
</linearGradient>
<linearGradient id="paint3_linear_988_5189" x1="15.5954" y1="13.3469" x2="54.1656" y2="43.7304" gradientUnits="userSpaceOnUse">
<stop stop-color="#DCBC55"/>
<stop offset="0.33" stop-color="#C59F36"/>
<stop offset="0.705" stop-color="#BF9A32"/>
<stop offset="1" stop-color="#B9922D"/>
</linearGradient>
<linearGradient id="paint4_linear_988_5189" x1="18.6974" y1="25.6061" x2="47.8989" y2="50.6502" gradientUnits="userSpaceOnUse">
<stop stop-color="#DCBC55"/>
<stop offset="0.33" stop-color="#C59F36"/>
<stop offset="0.705" stop-color="#BF9A32"/>
<stop offset="1" stop-color="#B9922D"/>
</linearGradient>
</defs>
</svg>
