<svg width="64" height="64" viewBox="0 0 64 64" fill="none" xmlns="http://www.w3.org/2000/svg">
<path d="M6 30C7.45007 29.7625 8.80765 29.1331 9.926 28.18C10.911 27.2 11.566 25.66 12 23C12.419 25.568 13.044 27.089 13.973 28.076C15.0998 29.0951 16.4992 29.7637 18 30C16.119 30.48 14.754 30.96 13.764 32.162C12.7635 33.5929 12.1553 35.2609 12 37C11.582 34.442 10.962 32.923 10.038 31.936C8.91056 30.9093 7.50651 30.2361 6 30ZM16 14C17.6688 13.7313 19.2366 13.0253 20.544 11.954C21.714 10.832 22.488 9.071 23 6C23.5 8.987 24.243 10.734 25.36 11.86C26.477 12.986 27.991 13.5 30 14C27.809 14.548 26.219 15.1 25.063 16.464C24.109 17.6 23.452 19.286 23 22C22.544 19.267 21.881 17.571 20.916 16.44C19.763 15.089 18.178 14.544 16 14ZM48 29C49.2225 28.7933 50.362 28.2464 51.288 27.422C52.1 26.579 52.641 25.264 53 23C53.1421 24.2878 53.5302 25.5364 54.143 26.678C54.987 28.062 56.214 28.531 58 29C56.6743 29.2057 55.4516 29.8376 54.517 30.8C53.6478 32.0407 53.1242 33.4902 53 35C52.8656 33.5788 52.4002 32.2089 51.641 31C50.807 29.862 49.641 29.432 48 29ZM27 47C27 26 48 8 49 8C46 12 33 29 33 46C33 48 35 48 35 51C35 54 32 54 31 54C30 54 27 53 27 47Z" stroke="url(#paint0_linear_988_5257)" stroke-width="2" stroke-linecap="round" stroke-linejoin="round"/>
<path d="M62 46C62 46 55 44 42 44C41.548 44 41.135 44.013 40.757 44.035C40.3453 44.0597 39.945 44.1798 39.5877 44.386C39.2305 44.5921 38.9262 44.8787 38.6988 45.2228C38.4715 45.567 38.3274 45.9593 38.278 46.3688C38.2285 46.7783 38.2751 47.1936 38.414 47.582C38.8045 48.6791 39.0027 49.8354 39 51C39 52.169 38.614 58 31 58C28.233 58 23 55.7 23 47C23.0002 46.38 22.7831 45.7796 22.3865 45.3031C21.9898 44.8267 21.4387 44.5043 20.829 44.392C19.2346 44.1144 17.6182 43.9832 16 44C11.2696 44.098 6.5686 44.7696 2 46" stroke="url(#paint1_linear_988_5257)" stroke-width="2" stroke-linecap="round" stroke-linejoin="round"/>
<defs>
<linearGradient id="paint0_linear_988_5257" x1="13.02" y1="14.76" x2="45.2414" y2="50.7007" gradientUnits="userSpaceOnUse">
<stop stop-color="#DCBC55"/>
<stop offset="0.33" stop-color="#C59F36"/>
<stop offset="0.705" stop-color="#BF9A32"/>
<stop offset="1" stop-color="#B9922D"/>
</linearGradient>
<linearGradient id="paint1_linear_988_5257" x1="10.1" y1="46.5538" x2="14.1764" y2="64.5399" gradientUnits="userSpaceOnUse">
<stop stop-color="#DCBC55"/>
<stop offset="0.33" stop-color="#C59F36"/>
<stop offset="0.705" stop-color="#BF9A32"/>
<stop offset="1" stop-color="#B9922D"/>
</linearGradient>
</defs>
</svg>
