<svg width="64" height="64" viewBox="0 0 64 64" fill="none" xmlns="http://www.w3.org/2000/svg">
<path d="M61.5408 40.676C61.2023 33.3495 57.0478 25.6905 51.8743 22.857C50.4589 22.038 48.8484 21.617 47.2133 21.6386C45.5782 21.6603 43.9794 22.1238 42.5863 22.98C38.6763 25.2335 38.0798 28.252 38.4863 31.4515C38.1413 31.2694 37.804 31.073 37.4753 30.863C36.7517 30.4005 36.1568 29.7626 35.7459 29.0085C35.3351 28.2545 35.1216 27.4087 35.1253 26.55V3.25001C35.1253 3.13487 35.1027 3.02085 35.0586 2.9145C35.0145 2.80815 34.9498 2.71155 34.8682 2.63025C34.7867 2.54896 34.6899 2.48456 34.5835 2.44076C34.477 2.39695 34.3629 2.37461 34.2478 2.37501H29.7478C29.6328 2.37494 29.519 2.39753 29.4128 2.44148C29.3066 2.48543 29.2102 2.54988 29.1289 2.63114C29.0476 2.7124 28.9832 2.80889 28.9392 2.91508C28.8953 3.02127 28.8727 3.13508 28.8728 3.25001V26.55C28.8762 27.4093 28.6622 28.2556 28.2506 29.01C27.839 29.7643 27.2432 30.4023 26.5188 30.8645C26.2038 31.0675 25.8653 31.2645 25.5103 31.453C25.9158 28.253 25.3198 25.234 21.4103 22.98C20.0171 22.1238 18.4183 21.6603 16.7832 21.6386C15.1481 21.617 13.5376 22.038 12.1223 22.857C6.94776 25.6905 2.79326 33.35 2.45476 40.676C1.42676 57.25 10.1593 60.654 12.8608 61.3025C13.7672 61.5209 14.6964 61.6311 15.6288 61.631C20.0513 61.631 24.1948 59.1565 25.9083 55.211C27.3298 51.938 26.1283 49.1825 24.9663 46.518C24.4015 45.3418 23.9634 44.1089 23.6593 42.84C27.6138 43.7055 29.6228 45.4785 29.6228 48.125V60.75C29.6227 60.8649 29.6453 60.9787 29.6892 61.0849C29.7332 61.1911 29.7976 61.2876 29.8789 61.3689C29.9602 61.4501 30.0566 61.5146 30.1628 61.5585C30.269 61.6025 30.3828 61.6251 30.4978 61.625H33.4978C33.6127 61.6251 33.7265 61.6025 33.8327 61.5585C33.9389 61.5146 34.0354 61.4501 34.1166 61.3689C34.1979 61.2876 34.2623 61.1911 34.3063 61.0849C34.3502 60.9787 34.3728 60.8649 34.3728 60.75V48.125C34.3728 45.4785 36.3818 43.7055 40.3363 42.84C40.0322 44.1089 39.594 45.3418 39.0293 46.518C37.8673 49.1825 36.6658 51.938 38.0873 55.211C39.8008 59.1565 43.9438 61.631 48.3668 61.631C49.2992 61.6311 50.2283 61.5208 51.1348 61.3025C53.8363 60.654 62.5688 57.25 61.5408 40.676ZM24.2283 37.162C26.7478 36.2825 29.8773 34.8 31.9978 32.4075C34.1183 34.7985 37.2478 36.283 39.7673 37.162C39.8419 37.4667 39.9134 37.7722 39.9818 38.0785C36.4478 38.7585 33.7613 40.05 31.9978 41.9385C30.2343 40.048 27.5478 38.7585 24.0138 38.0785C24.0828 37.7725 24.1543 37.467 24.2283 37.162ZM27.4648 32.3375C28.4364 31.7173 29.2355 30.8615 29.7876 29.8496C30.3397 28.8378 30.627 27.7027 30.6228 26.55V4.12501H33.3728V26.55C33.3683 27.7022 33.6553 28.8369 34.2071 29.8484C34.7589 30.8599 35.5575 31.7155 36.5288 32.3355C37.2782 32.8116 38.0622 33.231 38.8743 33.59C38.9883 34.0935 39.1138 34.598 39.2428 35.102C36.9013 34.163 34.2698 32.694 32.7113 30.5C32.6265 30.3918 32.5182 30.3043 32.3945 30.2441C32.2709 30.1839 32.1352 30.1527 31.9978 30.1527C31.8603 30.1527 31.7246 30.1839 31.601 30.2441C31.4774 30.3043 31.3691 30.3918 31.2843 30.5C29.7258 32.6955 27.0943 34.165 24.7528 35.104C24.8818 34.6 25.0073 34.095 25.1213 33.5915C25.9325 33.2324 26.7159 32.8132 27.4648 32.3375ZM24.3028 54.5135C22.5958 58.443 17.7528 60.6785 13.2693 59.6015C6.95326 58.083 3.56376 51.046 4.20176 40.7775V40.763C4.50776 34.106 8.35526 26.913 12.9613 24.392C14.0871 23.7477 15.3587 23.4009 16.6558 23.3845C18.0245 23.4044 19.3633 23.7882 20.5348 24.4965C25.0203 27.081 24.0808 30.7145 22.8908 35.314C22.7908 35.701 22.6908 36.0915 22.5908 36.4845C20.9078 36.12 19.5593 35.5285 18.9783 34.8795C18.823 34.7068 18.6056 34.6028 18.3737 34.5904C18.1418 34.578 17.9145 34.6583 17.7418 34.8135C17.569 34.9687 17.4651 35.1862 17.4527 35.4181C17.4403 35.65 17.5205 35.8773 17.6758 36.05C18.7533 37.2525 20.8078 37.8845 22.1973 38.1905C22.0322 38.9619 21.9067 39.7413 21.8213 40.5255C19.7554 40.001 17.5804 40.1009 15.5713 40.8125C15.4614 40.8505 15.3601 40.9101 15.2735 40.9877C15.1869 41.0652 15.1166 41.1593 15.0668 41.2644C15.0169 41.3695 14.9885 41.4834 14.9832 41.5996C14.9779 41.7158 14.9958 41.8318 15.0359 41.941C15.076 42.0502 15.1374 42.1502 15.2166 42.2354C15.2958 42.3205 15.3912 42.389 15.4972 42.4369C15.6032 42.4848 15.7177 42.511 15.8339 42.5141C15.9502 42.5172 16.0659 42.4971 16.1743 42.455C17.9949 41.8081 19.9781 41.7793 21.8168 42.373C22.0825 44.0588 22.6036 45.6943 23.3623 47.223C24.4213 49.646 25.4213 51.9395 24.3028 54.5135ZM32.6228 48.125V59.875H31.3728V48.125C31.3728 45.552 29.9868 42.2815 23.5333 41.025C23.5333 40.997 23.5333 40.97 23.5358 40.9425C23.5703 40.5595 23.6238 40.1745 23.6858 39.7895C27.2443 40.4775 29.8648 41.8635 31.2918 43.8245C31.3729 43.9362 31.4793 44.027 31.6022 44.0897C31.7252 44.1523 31.8613 44.185 31.9993 44.185C32.1373 44.185 32.2733 44.1523 32.3963 44.0897C32.5193 44.027 32.6256 43.9362 32.7068 43.8245C34.1338 41.8635 36.7543 40.4775 40.3128 39.7895C40.3733 40.1745 40.4268 40.559 40.4628 40.942V41.025C34.0088 42.2815 32.6228 45.55 32.6228 48.125ZM50.7263 59.6C46.2448 60.6765 41.3993 58.442 39.6928 54.512C38.5743 51.938 39.5743 49.6445 40.6333 47.2165C41.392 45.6878 41.9131 44.0523 42.1788 42.3665C44.0175 41.773 46.0005 41.8018 47.8213 42.4485C47.9297 42.4906 48.0454 42.5107 48.1616 42.5076C48.2779 42.5045 48.3923 42.4783 48.4983 42.4304C48.6043 42.3825 48.6997 42.314 48.7789 42.2289C48.8581 42.1437 48.9195 42.0437 48.9596 41.9345C48.9997 41.8253 49.0176 41.7093 49.0123 41.5931C49.007 41.4769 48.9786 41.363 48.9288 41.2579C48.8789 41.1528 48.8086 41.0587 48.722 40.9812C48.6354 40.9036 48.5342 40.844 48.4243 40.806C46.4151 40.0944 44.2401 39.9946 42.1743 40.519C42.0888 39.7348 41.9634 38.9554 41.7983 38.184C43.1878 37.878 45.2423 37.246 46.3198 36.0435C46.4689 35.8697 46.5441 35.6445 46.5291 35.4159C46.5141 35.1874 46.4102 34.9739 46.2396 34.8211C46.069 34.6683 45.8454 34.5884 45.6166 34.5986C45.3878 34.6088 45.1721 34.7082 45.0158 34.8755C44.4348 35.5255 43.0863 36.116 41.4033 36.4805C41.3033 36.0875 41.2033 35.697 41.1033 35.31C39.9133 30.71 38.9738 27.077 43.4593 24.4925C44.5913 23.784 45.896 23.3996 47.2314 23.3812C48.5668 23.3627 49.8816 23.711 51.0328 24.388C55.6388 26.9105 59.4863 34.102 59.7923 40.759V40.7735C60.4318 51.046 57.0423 58.083 50.7263 59.6Z" fill="url(#paint0_linear_988_5253)"/>
<path d="M57.0318 49.6821C56.8102 49.6121 56.5699 49.6329 56.3637 49.74C56.1574 49.847 56.0021 50.0316 55.9318 50.2531C55.672 51.0899 55.3306 51.8991 54.9123 52.6691C54.8547 52.7698 54.8177 52.881 54.8035 52.9962C54.7892 53.1114 54.7981 53.2283 54.8295 53.34C54.8609 53.4518 54.9142 53.5562 54.9863 53.6471C55.0584 53.7381 55.1479 53.8137 55.2496 53.8698C55.3512 53.9258 55.463 53.961 55.5784 53.9734C55.6938 53.9858 55.8105 53.9751 55.9218 53.942C56.033 53.9088 56.1365 53.8539 56.2263 53.7803C56.3161 53.7068 56.3904 53.6161 56.4448 53.5136C56.9189 52.6427 57.3061 51.7273 57.6008 50.7806C57.6707 50.5594 57.65 50.3196 57.5433 50.1137C57.4367 49.9078 57.2527 49.7526 57.0318 49.6821Z" fill="url(#paint1_linear_988_5253)"/>
<defs>
<linearGradient id="paint0_linear_988_5253" x1="10.3703" y1="13.1892" x2="50.3682" y2="54.3703" gradientUnits="userSpaceOnUse">
<stop stop-color="#DCBC55"/>
<stop offset="0.33" stop-color="#C59F36"/>
<stop offset="0.705" stop-color="#BF9A32"/>
<stop offset="1" stop-color="#B9922D"/>
</linearGradient>
<linearGradient id="paint1_linear_988_5253" x1="55.1809" y1="50.4329" x2="57.8976" y2="52.2675" gradientUnits="userSpaceOnUse">
<stop stop-color="#DCBC55"/>
<stop offset="0.33" stop-color="#C59F36"/>
<stop offset="0.705" stop-color="#BF9A32"/>
<stop offset="1" stop-color="#B9922D"/>
</linearGradient>
</defs>
</svg>
