<svg width="64" height="64" viewBox="0 0 64 64" fill="none" xmlns="http://www.w3.org/2000/svg">
<g clip-path="url(#clip0_987_7032)">
<mask id="mask0_987_7032" style="mask-type:luminance" maskUnits="userSpaceOnUse" x="0" y="0" width="64" height="64">
<path d="M0 0.00018692H63.9998V64H0V0.00018692Z" fill="white"/>
</mask>
<g mask="url(#mask0_987_7032)">
<path d="M43.496 18.723C44.9435 18.723 46.121 19.9005 46.121 21.348C46.121 21.5966 46.2198 21.8351 46.3956 22.0109C46.5714 22.1867 46.8098 22.2855 47.0585 22.2855C47.3071 22.2855 47.5456 22.1867 47.7214 22.0109C47.8972 21.8351 47.996 21.5966 47.996 21.348C47.996 18.8666 45.9774 16.848 43.496 16.848C43.2474 16.848 43.0089 16.9468 42.8331 17.1226C42.6573 17.2984 42.5585 17.5369 42.5585 17.7855C42.5585 18.0341 42.6573 18.2726 42.8331 18.4484C43.0089 18.6242 43.2474 18.723 43.496 18.723ZM23.1913 42.0938C23.1913 41.8452 23.0925 41.6067 22.9167 41.4309C22.7409 41.2551 22.5024 41.1563 22.2538 41.1563C20.8063 41.1563 19.6288 39.9788 19.6288 38.5313C19.6288 38.2827 19.53 38.0442 19.3542 37.8684C19.1784 37.6926 18.94 37.5938 18.6913 37.5938C18.4427 37.5938 18.2042 37.6926 18.0284 37.8684C17.8526 38.0442 17.7538 38.2827 17.7538 38.5313C17.7538 41.0127 19.7724 43.0313 22.2538 43.0313C22.5024 43.0313 22.7409 42.9325 22.9167 42.7567C23.0925 42.5809 23.1913 42.3425 23.1913 42.0938ZM43.8956 33.7256C41.1789 37.5023 35.239 41.4571 32.1763 42.6297C32.0593 42.6745 31.9301 42.6752 31.8127 42.6317C28.8599 41.5394 22.9913 37.7393 20.1041 33.7256C17.8187 30.5485 18.1543 26.2306 20.9022 23.4589C22.2996 22.0492 24.1194 21.3354 25.919 21.3354C27.5297 21.3354 29.1239 21.9072 30.3845 23.0641C31.2903 23.8955 32.7093 23.8955 33.615 23.0645C36.2849 20.6151 40.45 20.7882 43.0975 23.4589C45.8454 26.2306 46.181 30.5485 43.8956 33.7256ZM47.2424 28.2962C47.062 25.9735 46.0629 23.7867 44.4291 22.1387C41.0694 18.75 35.7626 18.5498 32.3474 21.683C32.1527 21.8619 31.8473 21.8616 31.6524 21.6827C28.2378 18.549 22.9308 18.7493 19.5707 22.1387C17.9368 23.7867 16.9377 25.9735 16.7573 28.2961C16.5771 30.6171 17.2252 32.9341 18.5821 34.8205C21.7259 39.1912 27.908 43.1864 31.162 44.3902C31.7062 44.5916 32.305 44.5882 32.8469 44.3807C36.0586 43.1509 42.3835 39.0388 45.4177 34.8205C46.7746 32.9342 47.4226 30.6171 47.2424 28.2962ZM58.6887 42.8679V40.7938C58.6887 39.7944 57.8757 38.9813 56.8762 38.9813H56.3286V12.2803C56.3286 5.50904 50.8197 0.00018692 44.0486 0.00018692C40.7681 0.00018692 37.6841 1.27768 35.3645 3.5973C33.0449 5.91679 31.7674 9.00053 31.7674 12.2803V17.6364C31.7674 17.885 31.8662 18.1235 32.042 18.2993C32.2178 18.4751 32.4563 18.5739 32.7049 18.5739C32.9535 18.5739 33.192 18.4751 33.3678 18.2993C33.5436 18.1235 33.6424 17.885 33.6424 17.6364V12.2803C33.6424 9.50141 34.7249 6.88854 36.6903 4.92317C38.6558 2.95768 41.269 1.87518 44.0486 1.87518C49.7859 1.87518 54.4536 6.54292 54.4536 12.2803V38.9813H53.9051C52.9057 38.9813 52.0926 39.7944 52.0926 40.7938V42.8679C49.6052 44.1783 47.7271 46.9283 47.0545 50.2589C47.0294 50.3799 47.0284 50.5046 47.0517 50.626C47.0749 50.7473 47.1219 50.8629 47.19 50.966C47.258 51.0691 47.3458 51.1577 47.4482 51.2268C47.5507 51.2959 47.6657 51.344 47.7868 51.3685C47.9079 51.3929 48.0327 51.3932 48.1539 51.3693C48.2751 51.3454 48.3904 51.2977 48.4931 51.2291C48.5959 51.1605 48.684 51.0722 48.7525 50.9694C48.8211 50.8666 48.8686 50.7513 48.8924 50.63C49.4641 47.7994 51.0255 45.4982 53.0693 44.4741C53.6235 44.1964 53.9676 43.6347 53.9676 43.0082V40.8563H56.8137V43.0082C56.8137 43.6348 57.158 44.1966 57.7121 44.4741C60.3514 45.7966 62.1248 49.2304 62.1248 53.0187C62.1248 58.04 59.1038 62.125 55.3907 62.125C52.1386 62.125 49.3526 58.9853 48.7664 54.6593C48.7499 54.5372 48.7096 54.4197 48.6476 54.3132C48.5857 54.2068 48.5034 54.1136 48.4054 54.039C48.3074 53.9645 48.1957 53.9099 48.0766 53.8785C47.9576 53.8471 47.8335 53.8395 47.7115 53.8562C47.4651 53.8895 47.2421 54.0194 47.0915 54.2173C46.9408 54.4151 46.875 54.6646 46.9084 54.911C47.6221 60.1776 51.1894 64 55.3907 64C60.1377 64 63.9998 59.0739 63.9998 53.0187C63.9998 48.5309 61.9203 44.5672 58.6887 42.8679ZM43.496 14.973C47.0112 14.973 49.871 17.8328 49.871 21.348C49.871 21.5966 49.9697 21.8351 50.1456 22.0109C50.3214 22.1867 50.5598 22.2855 50.8085 22.2855C51.0571 22.2855 51.2956 22.1867 51.4714 22.0109C51.6472 21.8351 51.746 21.5966 51.746 21.348C51.746 16.7989 48.0451 13.098 43.496 13.098C43.2474 13.098 43.0089 13.1968 42.8331 13.3726C42.6573 13.5484 42.5585 13.7869 42.5585 14.0355C42.5585 14.2842 42.6573 14.5226 42.8331 14.6984C43.0089 14.8742 43.2474 14.973 43.496 14.973ZM9.31447 8.37716C9.83147 8.37716 10.252 8.79779 10.252 9.31466C10.252 9.80141 9.96397 10.2522 9.31447 10.2522C8.79747 10.2522 8.37697 9.83166 8.37697 9.31466C8.37697 8.79779 8.79747 8.37716 9.31447 8.37716ZM9.31447 12.1272C9.7481 12.1272 10.1591 12.0284 10.5263 11.8524L11.1071 12.4331C11.2839 12.6041 11.5208 12.6987 11.7667 12.6966C12.0126 12.6945 12.2479 12.5959 12.4218 12.422C12.5957 12.2481 12.6943 12.0128 12.6963 11.7669C12.6984 11.521 12.6038 11.2841 12.4328 11.1073L11.8521 10.5265C12.0335 10.1483 12.1274 9.73412 12.127 9.31466C12.127 7.76391 10.8653 6.50217 9.31447 6.50217C8.88085 6.50217 8.46985 6.60104 8.1026 6.77704L6.21785 4.8923C6.04178 4.71775 5.80374 4.62004 5.55582 4.62057C5.30789 4.62111 5.07026 4.71983 4.89494 4.89513C4.71962 5.07043 4.62088 5.30805 4.62033 5.55598C4.61977 5.80391 4.71745 6.04195 4.89198 6.21804L6.77685 8.10291C6.59544 8.48108 6.5015 8.89523 6.50198 9.31466C6.50198 10.8655 7.7636 12.1272 9.31447 12.1272ZM15.8788 38.5313C15.8788 38.2827 15.7801 38.0442 15.6042 37.8684C15.4284 37.6926 15.19 37.5938 14.9413 37.5938C14.6927 37.5938 14.4542 37.6926 14.2784 37.8684C14.1026 38.0442 14.0038 38.2827 14.0038 38.5313C14.0038 43.0804 17.7047 46.7813 22.2538 46.7813C22.5024 46.7813 22.7409 46.6825 22.9167 46.5067C23.0925 46.3309 23.1913 46.0924 23.1913 45.8438C23.1913 45.5952 23.0925 45.3567 22.9167 45.1809C22.7409 45.0051 22.5024 44.9063 22.2538 44.9063C18.7386 44.9063 15.8788 42.0466 15.8788 38.5313ZM7.63623 21.2376C7.60235 21.2376 7.57373 21.209 7.57373 21.1751V18.4636C8.1475 18.5733 8.73031 18.6288 9.31447 18.6293C9.90934 18.6293 10.4907 18.5709 11.055 18.4638V21.1751C11.055 21.1917 11.0484 21.2076 11.0367 21.2193C11.0249 21.231 11.009 21.2376 10.9925 21.2376H7.63623ZM31.9999 46.6875C31.7513 46.6875 31.5128 46.7863 31.337 46.9621C31.1612 47.138 31.0624 47.3764 31.0624 47.625V51.72C31.0624 57.4574 26.3947 62.125 20.6574 62.125C17.8786 62.125 15.2658 61.0426 13.3003 59.0771C11.3348 57.1116 10.2525 54.4989 10.2525 51.72V23.1126H10.9925C12.0608 23.1126 12.93 22.2435 12.93 21.1751V17.8988C16.2755 16.4844 18.6289 13.1693 18.6289 9.31466C18.6289 7.30879 18.0011 5.39767 16.813 3.78817C16.6638 3.59211 16.4435 3.46261 16.1997 3.42766C15.9559 3.39271 15.7081 3.45513 15.5099 3.60141C15.3117 3.7477 15.179 3.96609 15.1405 4.20941C15.1021 4.45272 15.1609 4.70139 15.3043 4.90167C16.2527 6.18642 16.754 7.71241 16.754 9.31466C16.754 13.4169 13.4166 16.7543 9.31447 16.7543C5.21223 16.7543 1.87499 13.4169 1.87499 9.31466C1.87499 5.21255 5.21223 1.87518 9.31447 1.87518C10.3453 1.87518 11.343 2.08181 12.2796 2.4893C12.3925 2.53842 12.5139 2.56482 12.637 2.56699C12.7601 2.56916 12.8825 2.54707 12.997 2.50196C13.1116 2.45686 13.2161 2.38964 13.3047 2.30413C13.3933 2.21863 13.4642 2.11651 13.5133 2.00362C13.5624 1.89072 13.5888 1.76926 13.591 1.64616C13.5931 1.52307 13.571 1.40075 13.5259 1.28619C13.4808 1.17163 13.4136 1.06707 13.3281 0.978493C13.2426 0.889915 13.1405 0.819046 13.0276 0.769932C11.8536 0.259186 10.6043 0.00018692 9.31447 0.00018692C4.17836 0.00018692 0 4.17867 0 9.31466C0 13.1691 2.35337 16.4841 5.69873 17.8986V21.1751C5.69873 22.2435 6.56786 23.1126 7.63623 23.1126H8.37747V51.72C8.37747 54.9996 9.65497 58.0833 11.9746 60.4029C14.2942 62.7226 17.3778 64 20.6574 64C27.4285 64 32.9374 58.4913 32.9374 51.72V47.625C32.9374 47.3764 32.8386 47.138 32.6628 46.9621C32.487 46.7863 32.2485 46.6875 31.9999 46.6875Z" fill="url(#paint0_linear_987_7032)"/>
</g>
</g>
<defs>
<linearGradient id="paint0_linear_987_7032" x1="8.63997" y1="52.32" x2="51.8398" y2="7.84016" gradientUnits="userSpaceOnUse">
<stop stop-color="#DCBC55"/>
<stop offset="0.33" stop-color="#C59F36"/>
<stop offset="0.705" stop-color="#BF9A32"/>
<stop offset="1" stop-color="#B9922D"/>
</linearGradient>
<clipPath id="clip0_987_7032">
<rect width="64" height="64" fill="white"/>
</clipPath>
</defs>
</svg>
