<svg width="64" height="64" viewBox="0 0 64 64" fill="none" xmlns="http://www.w3.org/2000/svg">
<path d="M54.284 27.795C54.2843 22.609 54.2965 19.1225 54.9388 14.8158C54.9571 14.6939 54.9511 14.5697 54.9214 14.4502C54.8916 14.3306 54.8386 14.2182 54.7653 14.1191C54.692 14.0201 54.6 13.9365 54.4944 13.8731C54.3888 13.8096 54.2717 13.7676 54.1499 13.7495C54.0281 13.7313 53.9038 13.7373 53.7843 13.7672C53.6648 13.7971 53.5524 13.8502 53.4534 13.9235C53.3545 13.9969 53.2709 14.089 53.2076 14.1947C53.1442 14.3003 53.1023 14.4174 53.0843 14.5393C52.7269 16.9356 52.5588 19.0702 52.4795 21.355H42.0633C33.4137 18.9715 26.0497 14.7005 20.1608 8.65325C21.9388 6.46137 24.0658 4.20012 26.5383 1.875H55.9903C55.0325 5.28713 54.34 8.039 53.828 10.4611C53.7766 10.7044 53.8239 10.9581 53.9596 11.1665C54.0953 11.3749 54.3081 11.5208 54.5514 11.5723C54.7947 11.6237 55.0484 11.5763 55.2568 11.4407C55.4652 11.305 55.6111 11.0921 55.6625 10.8489C56.2237 8.19413 57.0083 5.12663 58.1317 1.19512C58.2282 0.49725 57.9278 0.099 57.2303 0H26.1678C25.9304 1.95468e-05 25.7019 0.0900767 25.5283 0.252C19.569 5.81112 12.9852 12.9653 11.7324 21.355H6.75391C6.50527 21.355 6.26681 21.4538 6.09099 21.6296C5.91518 21.8054 5.81641 22.0439 5.81641 22.2925V28.1C5.81641 28.3486 5.91518 28.5871 6.09099 28.7629C6.26681 28.9387 6.50527 29.0375 6.75391 29.0375H12.4338C13.8057 32.9248 16.8 36.5756 21.3477 39.9043V49.6688C21.3477 50.1866 21.7674 50.6063 22.2852 50.6063C22.8029 50.6063 23.2227 50.1866 23.2227 49.6688V44.246L35.9797 39.5941L43.0877 55.4963V62.1644L23.2227 62.1269V53.755C23.2227 53.2371 22.8029 52.8175 22.2852 52.8175C21.7674 52.8175 21.3477 53.2371 21.3477 53.755V63.0625C21.3477 63.3108 21.4462 63.549 21.6216 63.7248C21.7971 63.9006 22.0351 63.9995 22.2834 64H53.3447C53.7037 64.0004 53.9978 63.8536 54.2272 63.4425C56.5293 57.1309 58.0473 50.3324 58.1757 44.2894C58.4252 32.5416 54.987 28.7185 54.284 27.795ZM32.7824 38.7644L32.13 36.8331L41.9412 33.2555L42.764 35.1245L32.7824 38.7644ZM44.5294 34.4809L43.7065 32.6119L53.0069 29.2218C53.3983 29.7682 53.7562 30.3615 54.0799 30.9995L44.5294 34.4809ZM18.9968 10.1446C23.804 15.0295 29.5405 18.7846 36.1122 21.355H13.6308C14.2122 17.8815 16.008 14.1335 18.9968 10.1446ZM14.4389 29.0375H23.9914C24.5092 29.0375 24.9289 28.6179 24.9289 28.1C24.9289 27.5821 24.5092 27.1625 23.9914 27.1625H7.69141V23.23H9.69878V24.2345C9.69878 24.7524 10.1185 25.172 10.6363 25.172C11.154 25.172 11.5738 24.7524 11.5738 24.2345V23.23H17.4644V24.2345C17.4644 24.7524 17.8842 25.172 18.4019 25.172C18.9197 25.172 19.3394 24.7524 19.3394 24.2345V23.23H25.23V24.2345C25.23 24.7524 25.6498 25.172 26.1675 25.172C26.6853 25.172 27.105 24.7524 27.105 24.2345V23.23H32.9955V24.2345C32.9955 24.7524 33.4153 25.172 33.933 25.172C34.4508 25.172 34.8705 24.7524 34.8705 24.2345V23.23H40.7612V24.2345C40.7612 24.7524 41.1809 25.172 41.6987 25.172C42.2164 25.172 42.6362 24.7524 42.6362 24.2345V23.23H48.5268V24.2345C48.5268 24.7524 48.9465 25.172 49.4643 25.172C49.982 25.172 50.4018 24.7524 50.4018 24.2345V23.23H52.4092V27.1625H28.0779C27.5602 27.1625 27.1404 27.5821 27.1404 28.1C27.1404 28.6179 27.5602 29.0375 28.0779 29.0375H48.0384L22.4317 38.3739C18.4587 35.4616 15.7765 32.3276 14.4389 29.0375ZM23.2227 40.081L30.3679 37.4755L31.0204 39.4067L23.2227 42.2501V40.081ZM37.7458 38.9502L43.0878 37.0028V50.9015L37.7458 38.9502ZM56.3023 44.2136C56.0737 49.869 54.7933 56.2243 52.6875 62.1825L44.9628 62.1679V36.3191L54.8313 32.7214C55.981 35.8056 56.4849 39.6933 56.3023 44.2136Z" fill="url(#paint0_linear_987_7166)"/>
<defs>
<linearGradient id="paint0_linear_987_7166" x1="12.8866" y1="11.68" x2="55.4786" y2="47.5663" gradientUnits="userSpaceOnUse">
<stop stop-color="#DCBC55"/>
<stop offset="0.33" stop-color="#C59F36"/>
<stop offset="0.705" stop-color="#BF9A32"/>
<stop offset="1" stop-color="#B9922D"/>
</linearGradient>
</defs>
</svg>
