<svg width="64" height="64" viewBox="0 0 64 64" fill="none" xmlns="http://www.w3.org/2000/svg">
<path d="M22.132 41.8586C29.3038 41.8586 35.1383 36.0219 35.1383 28.8478C35.1383 21.6759 29.304 15.841 22.132 15.841C14.9577 15.841 9.12109 21.6759 9.12109 28.8478C9.12097 36.022 14.9577 41.8586 22.132 41.8586ZM22.132 17.2554C28.524 17.2554 33.7238 22.4558 33.7238 28.8478C33.7238 35.242 28.5238 40.4443 22.132 40.4443C15.7377 40.4443 10.5355 35.242 10.5355 28.8478C10.5353 22.4558 15.7376 17.2554 22.132 17.2554Z" fill="url(#paint0_linear_988_5209)"/>
<path d="M57.3646 42.5705C62.5207 23.2875 54.488 15.1296 42.896 15.1296C41.4871 15.1296 39.9581 15.2497 38.3443 15.4865C34.3783 10.6926 28.3487 7.8426 22.1303 7.8426C10.5458 7.8426 1.12109 17.2655 1.12109 28.8477C1.12109 33.6001 2.67497 38.086 5.61472 41.8208C5.6721 41.8939 5.74332 41.9549 5.82432 42.0004C5.90531 42.0459 5.99448 42.075 6.08673 42.086C6.17898 42.097 6.27249 42.0897 6.36191 42.0645C6.45133 42.0393 6.5349 41.9967 6.60784 41.9392C6.68085 41.8818 6.74183 41.8106 6.78729 41.7296C6.83275 41.6486 6.86181 41.5594 6.8728 41.4672C6.8838 41.375 6.87651 41.2815 6.85136 41.1921C6.82621 41.1026 6.78368 41.0191 6.72622 40.9461C3.98447 37.4631 2.53547 33.2797 2.53547 28.8477C2.53547 18.0455 11.3257 9.25697 22.1303 9.25697C28.0582 9.25697 33.8028 12.0342 37.4963 16.6862C37.5739 16.7846 37.6763 16.8605 37.793 16.906C37.9098 16.9515 38.0365 16.9649 38.1602 16.945C39.8505 16.6788 41.444 16.544 42.8961 16.544C57.5573 16.544 59.8472 29.131 55.5842 43.6815C55.5032 43.9582 55.5981 44.2565 55.8246 44.4352C56.0511 44.614 56.3633 44.6368 56.6133 44.4946L57.1562 44.1847C58.5395 43.4022 60.3032 43.8802 61.0913 45.2626C61.8957 46.6972 61.356 48.4297 60.0117 49.1973L50.913 54.3725C49.5726 55.1395 47.8043 54.6847 47.0197 53.2992L41.8543 44.2073C41.072 42.8291 41.5388 41.0673 42.9317 40.2726C44.3722 39.465 46.1033 40.0141 46.866 41.3513L48.2573 43.8058C48.3955 44.0503 48.6625 44.1875 48.9457 44.1608C49.0825 44.1466 49.2122 44.0928 49.3189 44.0059C49.4255 43.9191 49.5045 43.803 49.5461 43.6718C53.376 31.6557 53.6393 21.6167 41.5556 22.3637C41.4495 22.3703 41.3463 22.4007 41.2536 22.4527C41.1608 22.5047 41.081 22.5769 41.0201 22.664C40.959 22.751 40.9183 22.8506 40.9012 22.9556C40.884 23.0605 40.8908 23.1679 40.9211 23.2698C41.4556 25.0809 41.7265 26.9595 41.7255 28.8478C41.7255 39.6525 32.9352 48.4427 22.1306 48.4427C18.748 48.4427 15.4117 47.5633 12.4826 45.899C12.3194 45.8063 12.1262 45.7822 11.9453 45.8321C11.7644 45.8819 11.6107 46.0015 11.518 46.1646C11.4254 46.3278 11.4014 46.521 11.4512 46.7019C11.501 46.8827 11.6206 47.0364 11.7836 47.1292C14.9255 48.9138 18.5033 49.8572 22.1306 49.8572C33.7151 49.8572 43.1398 40.4325 43.1398 28.848C43.1398 27.1191 42.9298 25.405 42.5146 23.7396C52.0512 23.5572 51.5792 31.6955 48.6758 41.677L48.0952 40.6526C46.9371 38.6218 44.3437 37.8581 42.235 39.0421C40.148 40.2313 39.4628 42.8595 40.624 44.906L45.7893 53.9973C46.9563 56.058 49.5906 56.7576 51.6132 55.6015L60.7115 50.4263C62.7155 49.2838 63.5195 46.6988 62.322 44.5661C61.34 42.8441 59.2892 42.0022 57.3646 42.5705Z" fill="url(#paint1_linear_988_5209)"/>
<defs>
<linearGradient id="paint0_linear_988_5209" x1="12.6334" y1="20.5892" x2="30.1953" y2="38.6712" gradientUnits="userSpaceOnUse">
<stop stop-color="#DCBC55"/>
<stop offset="0.33" stop-color="#C59F36"/>
<stop offset="0.705" stop-color="#BF9A32"/>
<stop offset="1" stop-color="#B9922D"/>
</linearGradient>
<linearGradient id="paint1_linear_988_5209" x1="9.45895" y1="16.6601" x2="40.8917" y2="58.0316" gradientUnits="userSpaceOnUse">
<stop stop-color="#DCBC55"/>
<stop offset="0.33" stop-color="#C59F36"/>
<stop offset="0.705" stop-color="#BF9A32"/>
<stop offset="1" stop-color="#B9922D"/>
</linearGradient>
</defs>
</svg>
