<svg width="64" height="64" viewBox="0 0 64 64" fill="none" xmlns="http://www.w3.org/2000/svg">
<path d="M59.965 18C58.2071 17.2211 56.388 16.5886 54.526 16.109L52.987 14.57V12C52.987 11.7348 52.8817 11.4804 52.6941 11.2929C52.5066 11.1054 52.2522 11 51.987 11H49.413L47.707 9.29199C47.5195 9.10452 47.2652 8.99921 47 8.99921C46.7349 8.99921 46.4805 9.10452 46.293 9.29199L44.588 11H41.988C41.7228 11 41.4685 11.1054 41.2809 11.2929C41.0934 11.4804 40.988 11.7348 40.988 12V14.6L40.511 15.078C39.0383 15.1942 37.5825 15.4695 36.169 15.899C31.5335 12.6999 26.0323 10.9908 20.4 11C15.3853 11.0046 10.5257 12.7396 6.64202 15.912C4.87552 17.3517 3.45242 19.1674 2.4764 21.2267C1.50037 23.286 0.995999 25.5371 1.00002 27.816V30.839C0.999665 33.0408 1.35456 35.2282 2.05102 37.317C2.68003 39.2019 3.00049 41.1759 3.00002 43.163V49.763C2.99989 50.7999 3.30725 51.8135 3.88324 52.6757C4.45923 53.5378 5.27797 54.2098 6.2359 54.6066C7.19384 55.0034 8.24794 55.1072 9.26488 54.9049C10.2818 54.7026 11.2159 54.2032 11.949 53.47L12.822 52.597C13.8169 51.6059 14.8741 50.6794 15.987 49.823V50C15.987 50.2652 16.0924 50.5196 16.2799 50.7071C16.4675 50.8946 16.7218 51 16.987 51H19.587L21.296 52.709C21.4836 52.8965 21.7379 53.0018 22.003 53.0018C22.2682 53.0018 22.5225 52.8965 22.71 52.709L24.417 51H26.987C27.2522 51 27.5066 50.8946 27.6941 50.7071C27.8817 50.5196 27.987 50.2652 27.987 50V47.427L29.707 45.707C29.8945 45.5195 29.9998 45.2652 29.9998 45C29.9998 44.7348 29.8945 44.4805 29.707 44.293L29.1 43.68C31.1556 43.1266 32.9815 41.9329 34.313 40.272L34.949 40.591C37.7211 41.9776 40.8892 42.3568 43.9102 41.6635C46.9312 40.9702 49.617 39.2476 51.507 36.791L55.662 31.391C56.9957 29.6543 58.6453 28.1849 60.524 27.06C61.3276 26.5785 61.9834 25.8856 62.4198 25.0567C62.8563 24.2279 63.0566 23.295 62.9989 22.36C62.9413 21.4251 62.6278 20.5239 62.0927 19.755C61.5577 18.9861 60.8217 18.379 59.965 18ZM42.694 15.719C42.8816 15.5315 42.987 15.2772 42.987 15.012V13H45C45.2652 12.9999 45.5195 12.8945 45.707 12.707L47 11.414L48.292 12.706C48.3849 12.7992 48.4952 12.8731 48.6167 12.9235C48.7382 12.974 48.8685 13 49 13H50.988V14.988C50.9881 15.2532 51.0935 15.5075 51.281 15.695L52.586 17L51.28 18.306C51.0925 18.4935 50.9871 18.7478 50.987 19.013V21H49C48.7348 21 48.4805 21.1054 48.293 21.293L47 22.586L45.7 21.291C45.5139 21.1059 45.2625 21.0014 45 21H42.987V18.986C42.987 18.7208 42.8816 18.4665 42.694 18.279L41.414 17L42.694 15.719ZM37.739 28.107C38.3868 28.271 38.9613 28.6466 39.3714 29.1743C39.7815 29.7019 40.0037 30.3513 40.0027 31.0196C40.0017 31.6878 39.7777 32.3366 39.366 32.8631C38.9544 33.3895 38.3788 33.7635 37.7305 33.9256C37.0823 34.0877 36.3984 34.0288 35.7874 33.7581C35.1765 33.4874 34.6734 33.0204 34.3579 32.4313C34.0425 31.8422 33.9328 31.1646 34.0462 30.506C34.1596 29.8475 34.4897 29.2457 34.984 28.796C35.1561 28.6381 35.2676 28.425 35.299 28.1936C35.3304 27.9622 35.2798 27.727 35.156 27.529C35.0743 27.3997 35.0233 27.2533 35.007 27.1012C34.9906 26.9491 35.0095 26.7953 35.0619 26.6516C35.1144 26.5079 35.1992 26.3781 35.3097 26.2723C35.4202 26.1665 35.5535 26.0875 35.6993 26.0413C35.8452 25.9951 35.9997 25.983 36.151 26.0059C36.3022 26.0288 36.4462 26.0861 36.5719 26.1734C36.6975 26.2607 36.8014 26.3756 36.8757 26.5094C36.9499 26.6432 36.9924 26.7922 37 26.945C37 26.969 36.988 27.05 36.986 27.075C36.9714 27.3078 37.0387 27.5384 37.1762 27.7269C37.3138 27.9154 37.5128 28.0498 37.739 28.107ZM26.28 46.306C26.0925 46.4935 25.9871 46.7478 25.987 47.013V49H24C23.7348 49 23.4805 49.1054 23.293 49.293L21.993 50.593L20.693 49.293C20.509 49.1088 20.2604 49.0037 20 49H17.987V46.986C17.987 46.7208 17.8816 46.4665 17.694 46.279L16.414 45L17.694 43.721C17.8816 43.5335 17.987 43.2792 17.987 43.014V41H20C20.2652 40.9999 20.5195 40.8945 20.707 40.707L22 39.414L23.292 40.705C23.3848 40.7983 23.4951 40.8724 23.6166 40.9231C23.7381 40.9737 23.8684 40.9998 24 41H25.988V42.988C25.9881 43.2532 26.0935 43.5075 26.281 43.695L27.586 45L26.28 46.306ZM28.262 41.837C28.17 41.858 28.079 41.884 27.987 41.906V40C27.987 39.7348 27.8817 39.4804 27.6941 39.2929C27.5066 39.1053 27.2522 39 26.987 39H24.413L22.707 37.3C22.5195 37.1125 22.2652 37.0072 22 37.0072C21.7349 37.0072 21.4806 37.1125 21.293 37.3L19.593 39H16.993C16.7278 39 16.4735 39.1053 16.2859 39.2929C16.0984 39.4804 15.993 39.7348 15.993 40V42.6L14.299 44.293C14.1116 44.4805 14.0062 44.7348 14.0062 45C14.0062 45.2652 14.1116 45.5195 14.299 45.707L15.956 47.364C14.3366 48.5049 12.8171 49.7815 11.414 51.18L10.541 52.053C10.0877 52.5083 9.50934 52.8186 8.87935 52.9447C8.24936 53.0707 7.59613 53.0068 7.00251 52.7611C6.40889 52.5153 5.90165 52.0988 5.54514 51.5643C5.18862 51.0298 4.99889 50.4015 5.00002 49.759V43.159C5.00053 40.9571 4.64529 38.7696 3.94802 36.681C3.32016 34.7973 3.00005 32.8246 3.00002 30.839V27.816C2.99682 25.8335 3.43559 23.8752 4.28443 22.0836C5.13326 20.292 6.37081 18.7121 7.90702 17.459C11.434 14.5791 15.8466 13.0041 20.4 13C25.6146 12.996 30.7069 14.5791 35 17.539V18.8C35 20.6 34.943 22.426 34.847 24.23C34.3 24.4577 33.8327 24.8423 33.504 25.3353C33.1753 25.8282 32.9999 26.4075 33 27C32.9999 27.2901 33.043 27.5786 33.128 27.856C32.3041 28.8562 31.9064 30.1403 32.0207 31.4311C32.135 32.7219 32.7522 33.9161 33.739 34.756C33.538 36.0384 33.3113 37.3167 33.059 38.59C31.9189 40.2307 30.2089 41.3882 28.262 41.837ZM59.489 25.337C57.3959 26.591 55.5578 28.2283 54.071 30.163L49.916 35.563C48.3102 37.6527 46.0272 39.1186 43.4588 39.7092C40.8903 40.2998 38.1964 39.9784 35.839 38.8L35.122 38.442C35.2934 37.554 35.4524 36.6647 35.599 35.774C36.0526 35.9166 36.5246 35.9928 37 36C38.1536 36.0019 39.2723 35.6041 40.1658 34.8744C41.0593 34.1447 41.6724 33.128 41.9011 31.9973C42.1297 30.8666 41.9596 29.6916 41.4198 28.6721C40.88 27.6525 40.0037 26.8514 38.94 26.405C38.8303 25.873 38.5783 25.3807 38.2107 24.9808C37.8432 24.5808 37.3739 24.2881 36.853 24.134C36.944 22.361 37 20.574 37 18.802V17.746C37.6749 17.5499 38.3604 17.392 39.053 17.273C39.0949 17.4357 39.1775 17.5851 39.293 17.707L40.987 19.4V22C40.987 22.2652 41.0924 22.5196 41.2799 22.7071C41.4675 22.8946 41.7218 23 41.987 23H44.587L46.296 24.709C46.4836 24.8965 46.7379 25.0018 47.003 25.0018C47.2682 25.0018 47.5225 24.8965 47.71 24.709L49.417 23H51.987C52.2522 23 52.5066 22.8946 52.6941 22.7071C52.8817 22.5196 52.987 22.2652 52.987 22V19.427L54.294 18.121C55.9557 18.5622 57.5801 19.1336 59.152 19.83C59.6725 20.0612 60.1195 20.4309 60.4444 20.8988C60.7692 21.3666 60.9594 21.9147 60.9941 22.4832C61.0289 23.0516 60.9069 23.6188 60.6415 24.1227C60.3761 24.6266 59.9775 25.048 59.489 25.341V25.337Z" fill="url(#paint0_linear_988_5196)"/>
<path d="M21 46.002C22.1046 46.002 23 45.1066 23 44.002C23 42.8974 22.1046 42.002 21 42.002C19.8954 42.002 19 42.8974 19 44.002C19 45.1066 19.8954 46.002 21 46.002Z" fill="url(#paint1_linear_988_5196)"/>
<path d="M16.9786 23.5379C16.8907 22.5926 16.5355 21.6917 15.9545 20.9408C15.3735 20.1899 14.5907 19.6199 13.6977 19.2975C12.8046 18.9751 11.8383 18.9137 10.9116 19.1204C9.9849 19.327 9.13622 19.7933 8.46479 20.4646C7.79337 21.1359 7.32695 21.9845 7.1201 22.9112C6.91325 23.8378 6.97452 24.8042 7.29673 25.6973C7.61894 26.5904 8.18878 27.3733 8.9396 27.9544C9.69043 28.5356 10.5912 28.8909 11.5366 28.9789C11.8401 29.5133 12.2628 29.9703 12.772 30.3144C13.2811 30.6586 13.8628 30.8805 14.4718 30.9629C15.0808 31.0452 15.7005 30.9859 16.2828 30.7894C16.8651 30.593 17.3941 30.2647 17.8287 29.8302C18.2632 29.3957 18.5916 28.8667 18.7882 28.2845C18.9847 27.7023 19.0442 27.0825 18.9619 26.4735C18.8797 25.8646 18.6579 25.2828 18.3138 24.7736C17.9698 24.2644 17.5128 23.8415 16.9786 23.5379ZM14.9996 28.9999C14.5856 28.9974 14.1827 28.8664 13.8463 28.6252C13.5099 28.3839 13.2567 28.0442 13.1216 27.6529C13.0533 27.457 12.9257 27.2871 12.7566 27.1669C12.5874 27.0466 12.3851 26.982 12.1776 26.9819H12.1286C12.085 26.9829 12.0417 26.9889 11.9996 26.9999C11.4081 26.9999 10.8299 26.825 10.3376 26.4973C9.8453 26.1696 9.46081 25.7037 9.23249 25.1581C9.00416 24.6126 8.94218 24.0117 9.05434 23.431C9.16649 22.8503 9.44778 22.3158 9.86285 21.8945C10.2779 21.4732 10.8082 21.184 11.3872 21.0632C11.9661 20.9424 12.5679 20.9954 13.1168 21.2156C13.6657 21.4358 14.1373 21.8133 14.4722 22.3007C14.8072 22.7881 14.9907 23.3636 14.9996 23.9549C14.9996 23.9909 14.9826 24.1099 14.9816 24.1459C14.9746 24.3589 15.0358 24.5686 15.1563 24.7443C15.2768 24.9201 15.4504 25.0527 15.6516 25.1229C16.0986 25.2757 16.4768 25.5823 16.7187 25.9881C16.9605 26.3939 17.0503 26.8724 16.9719 27.3383C16.8936 27.8042 16.6522 28.227 16.291 28.5314C15.9297 28.8358 15.472 29.0018 14.9996 28.9999ZM28.9996 16.9999C28.4062 16.9999 27.8262 17.1759 27.3329 17.5055C26.8395 17.8352 26.455 18.3037 26.2279 18.8519C26.0009 19.4001 25.9415 20.0033 26.0572 20.5852C26.173 21.1672 26.4587 21.7017 26.8782 22.1213C27.2978 22.5408 27.8323 22.8265 28.4143 22.9423C28.9962 23.0581 29.5994 22.9986 30.1476 22.7716C30.6958 22.5445 31.1643 22.16 31.494 21.6666C31.8236 21.1733 31.9996 20.5933 31.9996 19.9999C31.9996 19.2043 31.6835 18.4412 31.1209 17.8786C30.5583 17.316 29.7952 16.9999 28.9996 16.9999ZM28.9996 20.9999C28.8018 20.9999 28.6084 20.9413 28.444 20.8314C28.2795 20.7215 28.1514 20.5653 28.0757 20.3826C28 20.1999 27.9802 19.9988 28.0188 19.8048C28.0574 19.6109 28.1526 19.4327 28.2925 19.2928C28.4323 19.153 28.6105 19.0577 28.8045 19.0192C28.9985 18.9806 29.1995 19.0004 29.3822 19.0761C29.565 19.1517 29.7212 19.2799 29.831 19.4444C29.9409 19.6088 29.9996 19.8022 29.9996 19.9999C29.9996 20.2652 29.8942 20.5195 29.7067 20.707C29.5191 20.8946 29.2648 20.9999 28.9996 20.9999Z" fill="url(#paint2_linear_988_5196)"/>
<defs>
<linearGradient id="paint0_linear_988_5196" x1="9.37117" y1="17.3954" x2="38.8423" y2="58.2942" gradientUnits="userSpaceOnUse">
<stop stop-color="#DCBC55"/>
<stop offset="0.33" stop-color="#C59F36"/>
<stop offset="0.705" stop-color="#BF9A32"/>
<stop offset="1" stop-color="#B9922D"/>
</linearGradient>
<linearGradient id="paint1_linear_988_5196" x1="19.54" y1="42.732" x2="22.24" y2="45.512" gradientUnits="userSpaceOnUse">
<stop stop-color="#DCBC55"/>
<stop offset="0.33" stop-color="#C59F36"/>
<stop offset="0.705" stop-color="#BF9A32"/>
<stop offset="1" stop-color="#B9922D"/>
</linearGradient>
<linearGradient id="paint2_linear_988_5196" x1="10.3749" y1="19.5547" x2="18.3103" y2="34.1457" gradientUnits="userSpaceOnUse">
<stop stop-color="#DCBC55"/>
<stop offset="0.33" stop-color="#C59F36"/>
<stop offset="0.705" stop-color="#BF9A32"/>
<stop offset="1" stop-color="#B9922D"/>
</linearGradient>
</defs>
</svg>
