<svg width="64" height="64" viewBox="0 0 64 64" fill="none" xmlns="http://www.w3.org/2000/svg">
<g clip-path="url(#clip0_987_7073)">
<path d="M54.2119 58.3529H46.2147C45.2839 58.3529 44.434 58.0866 43.7554 57.584C42.6354 56.7539 42.0302 55.4899 42.0989 54.1158L42.3418 49.7205C42.3814 48.9996 42.6957 48.3213 43.2199 47.8249C43.7442 47.3284 44.4386 47.0516 45.1606 47.0513H55.2876C56.0097 47.0512 56.7043 47.3277 57.2288 47.8239C57.7533 48.3202 58.0677 48.9986 58.1074 49.7195L58.3493 54.1336C58.418 55.4852 57.793 56.7765 56.6796 57.5925C56.0029 58.0894 55.1493 58.3529 54.2119 58.3529ZM45.1606 48.9336C44.6617 48.9336 44.2476 49.3252 44.2194 49.824L43.9794 54.2146C43.9436 54.944 44.2693 55.6226 44.8763 56.0715C45.2227 56.3285 45.698 56.4696 46.2147 56.4696H54.2119C54.7389 56.4696 55.2189 56.3294 55.5672 56.0743C56.177 55.6273 56.5055 54.9553 56.4707 54.2315L56.2279 49.823C56.2144 49.5828 56.1095 49.3567 55.9346 49.1913C55.7598 49.0259 55.5283 48.9337 55.2876 48.9336H45.1606ZM53.3658 31.0588C53.1161 31.0588 52.8767 30.9597 52.7002 30.7831C52.5237 30.6066 52.4246 30.3673 52.4246 30.1176V22.6842C52.4243 22.4514 52.3317 22.2282 52.1671 22.0636C52.0025 21.899 51.7793 21.8064 51.5465 21.8061H48.9093C48.6763 21.8061 48.4529 21.8986 48.288 22.0632C48.1232 22.2279 48.0305 22.4512 48.0302 22.6842V30.1176C48.0302 30.3673 47.9311 30.6066 47.7546 30.7831C47.5781 30.9597 47.3387 31.0588 47.089 31.0588C46.8394 31.0588 46.6 30.9597 46.4235 30.7831C46.247 30.6066 46.1479 30.3673 46.1479 30.1176V22.6852C46.1489 21.9532 46.4401 21.2515 46.9578 20.734C47.4755 20.2165 48.1773 19.9254 48.9093 19.9247H51.5465C52.2782 19.9257 52.9796 20.2169 53.497 20.7344C54.0143 21.2519 54.3052 21.9534 54.306 22.6852V30.1176C54.306 30.3673 54.2068 30.6066 54.0303 30.7831C53.8538 30.9597 53.6154 31.0588 53.3658 31.0588ZM31.5446 22.9788H24.5545C24.3048 22.9788 24.0655 22.8797 23.8889 22.7031C23.7124 22.5266 23.6133 22.2873 23.6133 22.0376C23.6133 21.788 23.7124 21.5486 23.8889 21.3721C24.0655 21.1956 24.3048 21.0965 24.5545 21.0965H31.5446C32.3973 21.0965 33.0909 20.4028 33.0909 19.5501C33.0909 18.6974 32.3973 18.0038 31.5446 18.0038C31.295 18.0038 31.0556 17.9046 30.8791 17.7281C30.7026 17.5516 30.6034 17.3122 30.6034 17.0626C30.6034 16.813 30.7026 16.5736 30.8791 16.3971C31.0556 16.2206 31.295 16.1214 31.5446 16.1214C33.4354 16.1214 34.9733 17.6593 34.9733 19.5501C34.9733 21.4409 33.4354 22.9788 31.5446 22.9788Z" fill="url(#paint0_linear_987_7073)"/>
<path d="M29.9339 27.9539H22.9438C22.6942 27.9539 22.4548 27.8547 22.2783 27.6782C22.1018 27.5017 22.0026 27.2623 22.0026 27.0127C22.0026 26.7631 22.1018 26.5237 22.2783 26.3472C22.4548 26.1707 22.6942 26.0715 22.9438 26.0715H29.9339C30.7857 26.0715 31.4803 25.3779 31.4803 24.5252C31.4803 23.6725 30.7857 22.9788 29.9339 22.9788C29.6843 22.9788 29.4449 22.8797 29.2684 22.7032C29.0919 22.5267 28.9928 22.2873 28.9928 22.0377C28.9928 21.788 29.0919 21.5486 29.2684 21.3721C29.4449 21.1956 29.6843 21.0965 29.9339 21.0965C31.8248 21.0965 33.3626 22.6344 33.3626 24.5252C33.3626 26.416 31.8248 27.9539 29.9339 27.9539ZM43.6328 18H26.1683C25.9187 18 25.6793 17.9008 25.5028 17.7243C25.3263 17.5478 25.2271 17.3084 25.2271 17.0588C25.2271 16.8092 25.3263 16.5698 25.5028 16.3933C25.6793 16.2168 25.9187 16.1177 26.1683 16.1177H43.6328C44.0516 16.1177 44.4422 15.9577 44.7321 15.6678C44.9956 15.4033 45.1499 15.0598 45.1744 14.6767C45.1861 14.4766 45.1561 14.2761 45.0863 14.0882C45.0165 13.9003 44.9083 13.7289 44.7688 13.5849C44.6031 13.4092 44.4033 13.2691 44.1815 13.1733C43.9598 13.0775 43.7209 13.028 43.4793 13.0278H24.8299C24.6444 13.0281 24.463 12.9736 24.3083 12.8712C24.1537 12.7687 24.0328 12.6229 23.9608 12.4519C23.8888 12.281 23.8689 12.0926 23.9037 11.9103C23.9384 11.7281 24.0262 11.5602 24.1561 11.4278L28.1297 7.35907C28.1645 7.3233 28.2022 7.29036 28.2426 7.26024C28.5969 6.99858 28.8843 6.65689 29.0814 6.26303C29.2785 5.86917 29.3797 5.4343 29.3768 4.99389C29.3768 4.24189 29.0831 3.53507 28.5485 3.00048C28.4581 2.91046 28.342 2.85085 28.2161 2.82993C28.0903 2.80902 27.9611 2.82783 27.8464 2.88377L19.3673 9.12095C19.0201 9.37318 18.5448 9.63954 17.9509 9.91718C17.3438 10.2014 16.7584 10.4471 16.1918 10.6861C14.7142 11.3064 13.4379 11.8428 12.1824 12.9082C11.4715 13.5311 10.8126 14.211 10.2125 14.9412C10.0536 15.1328 9.82532 15.2536 9.57754 15.2773C9.32975 15.301 9.08269 15.2255 8.8904 15.0675C8.69812 14.9094 8.57627 14.6816 8.55154 14.4339C8.5268 14.1862 8.60118 13.9389 8.75841 13.7459C9.42836 12.9295 10.165 12.1702 10.9608 11.4758C12.4412 10.2193 13.9095 9.60283 15.4624 8.9506C16.0083 8.72189 16.5683 8.48565 17.1528 8.21177C17.7598 7.92942 18.0883 7.72236 18.2577 7.60095L26.7866 1.32612C26.8168 1.30416 26.8482 1.28404 26.8808 1.26589C27.3563 0.997287 27.9066 0.89137 28.4479 0.964254C28.9891 1.03714 29.4918 1.28483 29.8794 1.66965C30.3178 2.10494 30.6655 2.62289 30.9023 3.19351C31.1392 3.76413 31.2604 4.37607 31.2591 4.99389C31.2636 5.71512 31.1005 6.42752 30.7826 7.07495C30.4648 7.72238 30.0009 8.28714 29.4276 8.72471L27.0652 11.1454H43.4793C44.4855 11.1454 45.4558 11.5661 46.1429 12.2993C46.4592 12.6306 46.7034 13.0238 46.8601 13.4543C47.0167 13.8847 47.0824 14.3429 47.053 14.8C46.9994 15.6695 46.6151 16.4854 45.9789 17.0805C45.3427 17.6755 44.5029 18.0045 43.6318 18H43.6328Z" fill="url(#paint1_linear_987_7073)"/>
<path d="M28.3191 32.9252H16.9158C15.1304 32.9231 13.3976 32.3212 11.9953 31.216L8.89982 28.7652C8.70412 28.6102 8.57801 28.3838 8.54924 28.1358C8.52047 27.8878 8.59139 27.6385 8.74641 27.4428C8.90142 27.2471 9.12782 27.121 9.37581 27.0923C9.6238 27.0635 9.87306 27.1344 10.0688 27.2894L13.1643 29.7393C14.2333 30.582 15.5546 31.0411 16.9158 31.0428H28.3191C28.7266 31.0428 29.1295 30.8772 29.425 30.5873C29.6382 30.3692 29.7824 30.0931 29.8395 29.7935C29.8966 29.4939 29.8641 29.1841 29.7461 28.9029C29.6281 28.6216 29.4297 28.3814 29.1759 28.2123C28.9221 28.0432 28.6241 27.9527 28.3191 27.952C28.1931 27.956 28.0675 27.9346 27.9499 27.8891C27.8323 27.8437 27.725 27.775 27.6344 27.6873C27.5439 27.5995 27.4719 27.4945 27.4227 27.3783C27.3735 27.2622 27.3482 27.1374 27.3482 27.0113C27.3482 26.8852 27.3735 26.7604 27.4227 26.6443C27.4719 26.5282 27.5439 26.4231 27.6344 26.3354C27.725 26.2476 27.8323 26.179 27.9499 26.1335C28.0675 26.088 28.1931 26.0666 28.3191 26.0706C29.2289 26.0716 30.1012 26.4335 30.7445 27.0768C31.3878 27.7201 31.7496 28.5923 31.7506 29.5021C31.7506 30.4188 31.3949 31.2791 30.7492 31.9247C30.1002 32.5617 29.2285 32.9206 28.3191 32.9252Z" fill="url(#paint2_linear_987_7073)"/>
<path d="M7.87223 32.9252H3.49576C2.81878 32.9247 2.16965 32.6557 1.69077 32.1771C1.2119 31.6986 0.942403 31.0497 0.941406 30.3727V11.9087C0.942403 11.2319 1.21177 10.5831 1.69044 10.1046C2.16911 9.62611 2.818 9.35698 3.49482 9.35623H7.87223C8.54896 9.35698 9.19775 9.62614 9.67627 10.1047C10.1548 10.5832 10.424 11.232 10.4247 11.9087V30.3727C10.424 31.0494 10.1548 31.6982 9.67627 32.1767C9.19775 32.6553 8.54896 32.9244 7.87223 32.9252ZM3.49576 11.2386C3.40763 11.2385 3.32035 11.2557 3.23888 11.2893C3.15742 11.3229 3.08337 11.3722 3.02097 11.4345C2.95857 11.4967 2.90904 11.5706 2.8752 11.652C2.84136 11.7333 2.82388 11.8206 2.82376 11.9087V30.3727C2.82376 30.7416 3.12494 31.0428 3.49482 31.0428H7.87223C8.24211 31.0428 8.54235 30.7416 8.54235 30.3727V11.9087C8.5421 11.7311 8.47142 11.5607 8.3458 11.4351C8.22018 11.3095 8.04988 11.2388 7.87223 11.2386H3.49576ZM54.3183 63.0588H46.1273C44.9418 63.0635 43.768 62.8246 42.6786 62.3571C41.5892 61.8895 40.6074 61.2032 39.7941 60.3407C38.9739 59.4848 38.3381 58.4697 37.9261 57.3581C37.5141 56.2466 37.3346 55.0623 37.3988 53.8786L38.3014 37.4729C38.4133 35.2339 39.3819 33.1237 41.0067 31.5791C42.6315 30.0345 44.7881 29.1739 47.0299 29.1755H53.4167C55.6589 29.174 57.8158 30.0348 59.4409 31.5797C61.0659 33.1247 62.0345 35.2354 62.1461 37.4748L63.0478 53.8748C63.1125 55.0591 62.9334 56.244 62.5215 57.3562C62.1097 58.4684 61.4738 59.4842 60.6534 60.3407C59.8398 61.2031 58.8578 61.8893 57.7683 62.3568C56.6788 62.8243 55.5039 63.0633 54.3183 63.0588ZM47.0308 31.0588C45.2713 31.0574 43.5787 31.7329 42.3037 32.9454C41.0286 34.1579 40.2689 35.8144 40.1819 37.5718L39.2784 53.9774C39.2287 54.9057 39.37 55.8343 39.6936 56.7057C40.0173 57.5771 40.5163 58.3729 41.1598 59.0438C41.7978 59.7202 42.5679 60.2585 43.4223 60.6254C44.2768 60.9922 45.1974 61.1798 46.1273 61.1765H54.3183C55.2485 61.1802 56.1694 60.9929 57.0242 60.6262C57.879 60.2595 58.6494 59.7212 59.2878 59.0447C59.9315 58.3733 60.4306 57.5769 60.7539 56.7048C61.0772 55.8326 61.2179 54.9034 61.1673 53.9746L60.2656 37.5774V37.5727C60.1789 35.815 59.4191 34.1581 58.1438 32.9454C56.8686 31.7327 55.1756 31.0572 53.4158 31.0588H47.0308Z" fill="url(#paint3_linear_987_7073)"/>
<path d="M56.8936 43.8456H52.3571C52.1075 43.8456 51.8681 43.7465 51.6916 43.57C51.5151 43.3935 51.416 43.1541 51.416 42.9045V38.6692C51.416 38.4196 51.5151 38.1802 51.6916 38.0037C51.8681 37.8272 52.1075 37.728 52.3571 37.728H56.8936C57.1432 37.728 57.3826 37.8272 57.5591 38.0037C57.7356 38.1802 57.8348 38.4196 57.8348 38.6692V42.9045C57.8348 43.1541 57.7356 43.3935 57.5591 43.57C57.3826 43.7465 57.1432 43.8456 56.8936 43.8456ZM53.2983 41.9633H55.9524V39.6104H53.2983V41.9633ZM48.087 43.8456H43.5506C43.3009 43.8456 43.0615 43.7465 42.885 43.57C42.7085 43.3935 42.6094 43.1541 42.6094 42.9045V38.6692C42.6094 38.4196 42.7085 38.1802 42.885 38.0037C43.0615 37.8272 43.3009 37.728 43.5506 37.728H48.087C48.3366 37.728 48.576 37.8272 48.7525 38.0037C48.929 38.1802 49.0282 38.4196 49.0282 38.6692V42.9045C49.0282 43.1541 48.929 43.3935 48.7525 43.57C48.576 43.7465 48.3366 43.8456 48.087 43.8456ZM44.4917 41.9633H47.1458V39.6104H44.4917V41.9633ZM50.2254 25.4052C49.9758 25.4052 49.7364 25.306 49.5599 25.1295C49.3834 24.953 49.2842 24.7136 49.2842 24.464V20.8649C49.2842 20.6153 49.3834 20.3759 49.5599 20.1994C49.7364 20.0229 49.9758 19.9238 50.2254 19.9238C50.475 19.9238 50.7144 20.0229 50.8909 20.1994C51.0674 20.3759 51.1666 20.6153 51.1666 20.8649V24.464C51.1666 24.7136 51.0674 24.953 50.8909 25.1295C50.7144 25.306 50.475 25.4052 50.2254 25.4052Z" fill="url(#paint4_linear_987_7073)"/>
</g>
<defs>
<linearGradient id="paint0_linear_987_7073" x1="28.3033" y1="23.8287" x2="56.4331" y2="47.6548" gradientUnits="userSpaceOnUse">
<stop stop-color="#DCBC55"/>
<stop offset="0.33" stop-color="#C59F36"/>
<stop offset="0.705" stop-color="#BF9A32"/>
<stop offset="1" stop-color="#B9922D"/>
</linearGradient>
<linearGradient id="paint1_linear_987_7073" x1="13.7461" y1="5.87153" x2="30.7207" y2="30.7904" gradientUnits="userSpaceOnUse">
<stop stop-color="#DCBC55"/>
<stop offset="0.33" stop-color="#C59F36"/>
<stop offset="0.705" stop-color="#BF9A32"/>
<stop offset="1" stop-color="#B9922D"/>
</linearGradient>
<linearGradient id="paint2_linear_987_7073" x1="11.676" y1="27.3212" x2="14.13" y2="35.8754" gradientUnits="userSpaceOnUse">
<stop stop-color="#DCBC55"/>
<stop offset="0.33" stop-color="#C59F36"/>
<stop offset="0.705" stop-color="#BF9A32"/>
<stop offset="1" stop-color="#B9922D"/>
</linearGradient>
<linearGradient id="paint3_linear_987_7073" x1="9.32751" y1="19.157" x2="45.0452" y2="61.6968" gradientUnits="userSpaceOnUse">
<stop stop-color="#DCBC55"/>
<stop offset="0.33" stop-color="#C59F36"/>
<stop offset="0.705" stop-color="#BF9A32"/>
<stop offset="1" stop-color="#B9922D"/>
</linearGradient>
<linearGradient id="paint4_linear_987_7073" x1="44.6648" y1="24.2895" x2="59.4764" y2="33.9959" gradientUnits="userSpaceOnUse">
<stop stop-color="#DCBC55"/>
<stop offset="0.33" stop-color="#C59F36"/>
<stop offset="0.705" stop-color="#BF9A32"/>
<stop offset="1" stop-color="#B9922D"/>
</linearGradient>
<clipPath id="clip0_987_7073">
<rect width="64" height="64" fill="white"/>
</clipPath>
</defs>
</svg>
