<svg width="43" height="43" viewBox="0 0 43 43" fill="none" xmlns="http://www.w3.org/2000/svg">
<g clip-path="url(#clip0_913_7700)">
<path d="M36.0867 13.0091H29.7925C32.984 11.4778 35.2156 8.90647 35.2156 5.16968C35.2156 4.68887 34.8254 4.29864 34.3446 4.29864C33.8638 4.29864 33.4735 4.68887 33.4735 5.16968C33.4735 10.5057 27.7751 12.4673 23.3015 12.9081C24.6585 11.2304 26.5052 8.49708 26.5052 6.04073C26.5052 3.15931 24.1603 0.814453 21.2789 0.814453C18.3975 0.814453 16.0526 3.15931 16.0526 6.04073C16.0526 8.49708 17.8975 11.2287 19.2563 12.9081C14.7826 12.4691 9.08424 10.5057 9.08424 5.16968C9.08424 4.68887 8.69401 4.29864 8.21319 4.29864C7.73238 4.29864 7.34215 4.68887 7.34215 5.16968C7.34215 8.90647 9.57377 11.4778 12.7653 13.0091H6.4711C3.10886 13.0091 0.373779 15.7442 0.373779 19.1064V20.8485C0.373779 22.2892 1.54621 23.4617 2.98692 23.4617H3.85796V34.7853C3.85796 39.1074 7.37525 42.6247 11.6974 42.6247H30.8604C35.1825 42.6247 38.6998 39.1074 38.6998 34.7853V23.4617H39.5709C41.0116 23.4617 42.184 22.2892 42.184 20.8485V19.1064C42.184 15.7442 39.4489 13.0091 36.0867 13.0091ZM21.2789 2.55655C23.2004 2.55655 24.7631 4.1192 24.7631 6.04073C24.7631 8.21486 22.6203 11.0911 21.2789 12.6049C19.9375 11.0911 17.7947 8.21486 17.7947 6.04073C17.7947 4.1192 19.3574 2.55655 21.2789 2.55655ZM2.11587 20.8485V19.1064C2.11587 16.7058 4.0705 14.7512 6.4711 14.7512H20.4078V21.7196H2.98692C2.5061 21.7196 2.11587 21.3293 2.11587 20.8485ZM5.60006 34.7853V23.4617H20.4078V40.8826H11.6974C8.33514 40.8826 5.60006 38.1475 5.60006 34.7853ZM36.9577 34.7853C36.9577 38.1475 34.2226 40.8826 30.8604 40.8826H22.1499V23.4617H36.9577V34.7853ZM40.4419 20.8485C40.4419 21.3293 40.0517 21.7196 39.5709 21.7196H22.1499V14.7512H36.0867C38.4873 14.7512 40.4419 16.7058 40.4419 19.1064V20.8485Z" fill="url(#paint0_linear_913_7700)"/>
</g>
<defs>
<linearGradient id="paint0_linear_913_7700" x1="6.01816" y1="8.44482" x2="34.2401" y2="37.5029" gradientUnits="userSpaceOnUse">
<stop stop-color="#DCBC55"/>
<stop offset="0.33" stop-color="#C59F36"/>
<stop offset="0.705" stop-color="#BF9A32"/>
<stop offset="1" stop-color="#B9922D"/>
</linearGradient>
<clipPath id="clip0_913_7700">
<rect width="41.8102" height="41.8102" fill="white" transform="translate(0.373779 0.814453)"/>
</clipPath>
</defs>
</svg>
