<svg width="267" height="78" viewBox="0 0 267 78" fill="none" xmlns="http://www.w3.org/2000/svg">
<path d="M256.314 77.1504H9.85823C4.43867 77.1504 0 72.8167 0 67.5254V9.7754C0 4.48406 4.43867 0.150397 9.85823 0.150397H256.314C261.733 0.150397 266.172 4.48406 266.172 9.7754V67.5254C266.172 72.8167 261.733 77.1504 256.314 77.1504Z" fill="#04312B"/>
<path d="M256.314 1.6928C260.878 1.6928 264.592 5.31902 264.592 9.7754V67.5254C264.592 71.9818 260.878 75.608 256.314 75.608H9.85823C5.29387 75.608 1.57978 71.9818 1.57978 67.5254V9.7754C1.57978 5.31902 5.29387 1.6928 9.85823 1.6928H256.314ZM256.314 0.150397H9.85823C4.43867 0.150397 0 4.48406 0 9.7754V67.5254C0 72.8167 4.43867 77.1504 9.85823 77.1504H256.314C261.733 77.1504 266.172 72.8167 266.172 67.5254V9.7754C266.172 4.48406 261.733 0.150397 256.314 0.150397Z" fill="#A6A6A6"/>
<path d="M93.4932 19.8693C93.4932 21.4767 93.0003 22.764 92.0292 23.7241C90.9128 24.8623 89.4587 25.435 87.6768 25.435C85.9738 25.435 84.5197 24.8527 83.3269 23.7049C82.1316 22.5403 81.5352 21.111 81.5352 19.4001C81.5352 17.6893 82.1316 16.26 83.3269 15.105C84.5197 13.9475 85.9738 13.3652 87.6768 13.3652C88.5246 13.3652 89.333 13.5361 90.1044 13.8537C90.8734 14.1737 91.4994 14.6069 91.9528 15.141L90.9226 16.1565C90.1315 15.2445 89.0545 14.7945 87.6768 14.7945C86.4347 14.7945 85.3577 15.218 84.4433 16.0723C83.5388 16.9289 83.0854 18.0382 83.0854 19.4001C83.0854 20.762 83.5388 21.8809 84.4433 22.7376C85.3577 23.5822 86.4347 24.0153 87.6768 24.0153C88.9954 24.0153 90.1044 23.5822 90.9793 22.7279C91.556 22.1625 91.8838 21.3829 91.9701 20.3867H87.6768V18.9959H93.4045C93.4735 19.2966 93.4932 19.5878 93.4932 19.8693Z" fill="white" stroke="white" stroke-width="0.208814" stroke-miterlimit="10"/>
<path d="M102.579 15.0477H97.1989V18.7052H102.049V20.096H97.1989V23.7535H102.579V25.1707H95.6758V13.6304H102.579V15.0477Z" fill="white" stroke="white" stroke-width="0.208814" stroke-miterlimit="10"/>
<path d="M108.987 25.1707H107.464V15.0477H104.164V13.6304H112.29V15.0477H108.987V25.1707Z" fill="white" stroke="white" stroke-width="0.208814" stroke-miterlimit="10"/>
<path d="M118.168 25.1707V13.6304H119.689V25.1707H118.168Z" fill="white" stroke="white" stroke-width="0.208814" stroke-miterlimit="10"/>
<path d="M126.432 25.1703H124.922V15.0472H121.609V13.6299H129.745V15.0472H126.432V25.1703Z" fill="white" stroke="white" stroke-width="0.208814" stroke-miterlimit="10"/>
<path d="M145.133 23.6861C143.967 24.8532 142.523 25.4355 140.8 25.4355C139.067 25.4355 137.623 24.8532 136.457 23.6861C135.294 22.5215 134.715 21.0922 134.715 19.4006C134.715 17.709 135.294 16.2797 136.457 15.1151C137.623 13.948 139.067 13.3657 140.8 13.3657C142.513 13.3657 143.957 13.948 145.123 15.1247C146.296 16.2989 146.875 17.7186 146.875 19.4006C146.875 21.0922 146.296 22.5215 145.133 23.6861ZM137.584 22.7188C138.461 23.5827 139.528 24.0158 140.8 24.0158C142.062 24.0158 143.139 23.5827 144.006 22.7188C144.881 21.855 145.325 20.7457 145.325 19.4006C145.325 18.0555 144.881 16.9462 144.006 16.0824C143.139 15.2185 142.062 14.7854 140.8 14.7854C139.528 14.7854 138.461 15.2185 137.584 16.0824C136.709 16.9462 136.265 18.0555 136.265 19.4006C136.265 20.7457 136.709 21.855 137.584 22.7188Z" fill="white" stroke="white" stroke-width="0.208814" stroke-miterlimit="10"/>
<path d="M149.008 25.1707V13.6304H150.856L156.604 22.6057H156.67L156.604 20.3871V13.6304H158.124V25.1707H156.537L150.519 15.7527H150.452L150.519 17.9809V25.1707H149.008Z" fill="white" stroke="white" stroke-width="0.208814" stroke-miterlimit="10"/>
<path d="M134.336 42.0239C129.705 42.0239 125.922 45.4648 125.922 50.2124C125.922 54.9214 129.705 58.3984 134.336 58.3984C138.977 58.3984 142.76 54.9214 142.76 50.2124C142.76 45.4648 138.977 42.0239 134.336 42.0239ZM134.336 55.174C131.795 55.174 129.609 53.1263 129.609 50.2124C129.609 47.2599 131.795 45.2483 134.336 45.2483C136.877 45.2483 139.073 47.2599 139.073 50.2124C139.073 53.1263 136.877 55.174 134.336 55.174ZM115.977 42.0239C111.337 42.0239 107.563 45.4648 107.563 50.2124C107.563 54.9214 111.337 58.3984 115.977 58.3984C120.616 58.3984 124.391 54.9214 124.391 50.2124C124.391 45.4648 120.616 42.0239 115.977 42.0239ZM115.977 55.174C113.434 55.174 111.24 53.1263 111.24 50.2124C111.24 47.2599 113.434 45.2483 115.977 45.2483C118.518 45.2483 120.704 47.2599 120.704 50.2124C120.704 53.1263 118.518 55.174 115.977 55.174ZM94.1315 44.5336V48.0131H102.642C102.393 49.9573 101.727 51.3866 100.707 52.3828C99.4648 53.5859 97.5301 54.9214 94.1315 54.9214C88.8943 54.9214 84.7933 50.7947 84.7933 45.6814C84.7933 40.5681 88.8943 36.4414 94.1315 36.4414C96.9632 36.4414 99.0236 37.5218 100.544 38.9222L103.056 36.4703C100.929 34.4875 98.0994 32.9644 94.1315 32.9644C86.9498 32.9644 80.9141 38.6696 80.9141 45.6814C80.9141 52.6932 86.9498 58.3984 94.1315 58.3984C98.0131 58.3984 100.929 57.1568 103.221 54.8275C105.569 52.5344 106.301 49.31 106.301 46.7065C106.301 45.898 106.232 45.1544 106.109 44.5336H94.1315ZM183.462 47.231C182.769 45.3999 180.632 42.0239 176.28 42.0239C171.967 42.0239 168.376 45.3421 168.376 50.2124C168.376 54.7987 171.93 58.3984 176.694 58.3984C180.546 58.3984 182.769 56.1053 183.684 54.7698L180.825 52.9098C179.871 54.2717 178.572 55.174 176.694 55.174C174.828 55.174 173.49 54.3391 172.632 52.6932L183.849 48.1622L183.462 47.231ZM172.026 49.9573C171.93 46.8003 174.538 45.1833 176.406 45.1833C177.87 45.1833 179.112 45.898 179.526 46.9206L172.026 49.9573ZM162.91 57.9003H166.597V33.8378H162.91V57.9003ZM156.872 43.8478H156.748C155.92 42.8901 154.341 42.0239 152.339 42.0239C148.14 42.0239 144.3 45.6236 144.3 50.2388C144.3 54.8275 148.14 58.3984 152.339 58.3984C154.341 58.3984 155.92 57.525 156.748 56.5384H156.872V57.7126C156.872 60.8432 155.159 62.5251 152.396 62.5251C150.143 62.5251 148.746 60.937 148.169 59.6015L144.963 60.9081C145.887 63.0786 148.334 65.7495 152.396 65.7495C156.719 65.7495 160.366 63.2663 160.366 57.2242V42.522H156.872V43.8478ZM152.655 55.174C150.114 55.174 147.987 53.0975 147.987 50.2388C147.987 47.3537 150.114 45.2483 152.655 45.2483C155.159 45.2483 157.133 47.3537 157.133 50.2388C157.133 53.0975 155.159 55.174 152.655 55.174ZM200.724 33.8378H191.905V57.9003H195.582V48.783H200.724C204.807 48.783 208.812 45.898 208.812 41.3092C208.812 36.7229 204.797 33.8378 200.724 33.8378ZM200.82 45.436H195.582V37.1849H200.82C203.565 37.1849 205.133 39.4107 205.133 41.3092C205.133 43.1717 203.565 45.436 200.82 45.436ZM223.55 41.9782C220.893 41.9782 218.131 43.1235 216.995 45.6621L220.258 46.9976C220.96 45.6621 222.251 45.229 223.617 45.229C225.524 45.229 227.459 46.3479 227.489 48.3235V48.5761C226.823 48.2007 225.399 47.6449 223.646 47.6449C220.132 47.6449 216.551 49.5338 216.551 53.059C216.551 56.2833 219.429 58.3599 222.665 58.3599C225.14 58.3599 226.505 57.2699 227.363 56.0018H227.489V57.8618H231.04V48.6315C231.04 44.3652 227.777 41.9782 223.55 41.9782ZM223.107 55.1644C221.904 55.1644 220.228 54.5821 220.228 53.1263C220.228 51.2639 222.318 50.5492 224.127 50.5492C225.746 50.5492 226.505 50.8981 227.489 51.3577C227.2 53.5859 225.236 55.1644 223.107 55.1644ZM243.979 42.5051L239.752 52.9362H239.627L235.257 42.5051H231.291L237.857 57.0822L234.111 65.1937H237.953L248.07 42.5051H243.979ZM210.833 57.9003H214.52V33.8378H210.833V57.9003Z" fill="white"/>
<path d="M20.5706 14.6629C19.9914 15.2549 19.6562 16.1765 19.6562 17.37V59.9413C19.6562 61.1348 19.9914 62.0564 20.5706 62.6484L20.7135 62.7783L45.1471 38.9324V38.3693L20.7135 14.5234L20.5706 14.6629Z" fill="url(#paint0_linear_1023_4504)"/>
<path d="M53.2878 46.8843L45.1523 38.9316V38.3686L53.2977 30.4159L53.4801 30.5194L63.1264 35.8781C65.8793 37.3988 65.8793 39.9013 63.1264 41.4317L53.4801 46.7808L53.2878 46.8843Z" fill="url(#paint1_linear_1023_4504)"/>
<path d="M53.4785 46.7809L45.1508 38.6502L20.5742 62.6477C21.4886 63.5862 22.9796 63.6993 24.6752 62.7608L53.4785 46.7809Z" fill="url(#paint2_linear_1023_4504)"/>
<path d="M53.4785 30.5197L24.6752 14.5398C22.9796 13.611 21.4886 13.724 20.5742 14.6625L45.1508 38.6504L53.4785 30.5197Z" fill="url(#paint3_linear_1023_4504)"/>
<defs>
<linearGradient id="paint0_linear_1023_4504" x1="42.9777" y1="60.3847" x2="10.6809" y2="27.3052" gradientUnits="userSpaceOnUse">
<stop stop-color="#00A0FF"/>
<stop offset="0.0066" stop-color="#00A1FF"/>
<stop offset="0.2601" stop-color="#00BEFF"/>
<stop offset="0.5122" stop-color="#00D2FF"/>
<stop offset="0.7604" stop-color="#00DFFF"/>
<stop offset="1" stop-color="#00E3FF"/>
</linearGradient>
<linearGradient id="paint1_linear_1023_4504" x1="66.7111" y1="38.6474" x2="19.0034" y2="38.6474" gradientUnits="userSpaceOnUse">
<stop stop-color="#FFE000"/>
<stop offset="0.4087" stop-color="#FFBD00"/>
<stop offset="0.7754" stop-color="#FFA500"/>
<stop offset="1" stop-color="#FF9C00"/>
</linearGradient>
<linearGradient id="paint2_linear_1023_4504" x1="48.9501" y1="34.2302" x2="5.15296" y2="-10.6282" gradientUnits="userSpaceOnUse">
<stop stop-color="#FF3A44"/>
<stop offset="1" stop-color="#C31162"/>
</linearGradient>
<linearGradient id="paint3_linear_1023_4504" x1="14.3878" y1="76.8112" x2="33.9452" y2="56.7801" gradientUnits="userSpaceOnUse">
<stop stop-color="#32A071"/>
<stop offset="0.0685" stop-color="#2DA771"/>
<stop offset="0.4762" stop-color="#15CF74"/>
<stop offset="0.8009" stop-color="#06E775"/>
<stop offset="1" stop-color="#00F076"/>
</linearGradient>
</defs>
</svg>
