<svg width="54" height="55" viewBox="0 0 54 55" fill="none" xmlns="http://www.w3.org/2000/svg">
<rect y="0.0625" width="54" height="54" rx="27" fill="#C131A1"/>
<path fill-rule="evenodd" clip-rule="evenodd" d="M17.1016 21.268C17.1016 18.7248 19.1632 16.6631 21.7065 16.6631H32.2969C34.8401 16.6631 36.9018 18.7248 36.9018 21.268V32.8585C36.9018 35.4017 34.8401 37.4634 32.2969 37.4634H21.7065C19.1633 37.4634 17.1016 35.4017 17.1016 32.8585V21.268ZM22.2417 27.0627C22.2417 24.4117 24.3908 22.2627 27.0418 22.2627C29.6928 22.2627 31.8419 24.4117 31.8419 27.0627V27.3459C31.8419 29.9969 29.6928 32.1459 27.0418 32.1459C24.3908 32.1459 22.2417 29.9969 22.2417 27.3459V27.0627ZM32.6209 19.6633C31.9029 19.6633 31.3209 20.2453 31.3209 20.9633C31.3209 21.6813 31.9029 22.2633 32.6209 22.2633C33.3389 22.2633 33.9209 21.6813 33.9209 20.9633C33.9209 20.2453 33.3389 19.6633 32.6209 19.6633Z" fill="white"/>
<path d="M24.0656 27.0632C24.0656 25.4417 25.3801 24.1272 27.0016 24.1272C28.6231 24.1272 29.9376 25.4417 29.9376 27.0632C29.9376 28.6847 28.6231 29.9992 27.0016 29.9992C25.3801 29.9992 24.0656 28.6847 24.0656 27.0632Z" fill="white"/>
</svg>
