<svg width="42" height="42" viewBox="0 0 42 42" fill="none" xmlns="http://www.w3.org/2000/svg">
<path d="M40.5145 1.02192C39.8331 0.404505 38.9337 0.115683 38.0413 0.219451C26.5974 1.59784 22.3845 10.7052 20.8435 16.6287C20.84 16.6287 20.8366 16.6269 20.8331 16.6269C20.8297 16.6269 20.8262 16.6287 20.8227 16.6287C19.2852 10.7035 15.0723 1.59784 3.62837 0.219451C2.74115 0.120872 1.83837 0.404505 1.15523 1.02192C0.449604 1.66356 0.0570146 2.57672 0.0812271 3.52965C0.23515 9.54994 2.14794 14.2835 5.76945 17.5954C10.7884 22.1854 17.5368 22.6662 19.9701 22.6801V40.8378C19.9701 41.3151 20.3575 41.7025 20.8348 41.7025C21.3122 41.7025 21.6996 41.3151 21.6996 40.8378V22.6801C24.1329 22.6662 30.8831 22.1854 35.9002 17.5954C39.5218 14.2818 41.4345 9.54994 41.5885 3.52965C41.6127 2.57672 41.2201 1.66356 40.5145 1.02192ZM6.92646 16.3087C3.6716 13.3271 1.95078 9.01207 1.8107 3.48642C1.79859 3.03676 1.98537 2.60439 2.31916 2.30173C2.63046 2.01637 3.01441 1.88493 3.42256 1.93681C17.2064 3.5971 19.5274 17.2599 19.9009 20.9471C17.625 20.9091 11.3989 20.4093 6.92646 16.3104V16.3087ZM34.7432 16.3087C30.2691 20.4075 24.0447 20.9074 21.7688 20.9454C22.1441 17.2599 24.465 3.5971 38.2471 1.93508C38.3025 1.92817 38.3561 1.92471 38.4114 1.92471C38.7521 1.92471 39.0825 2.05442 39.3505 2.3C39.6843 2.60439 39.8711 3.03503 39.859 3.48642C39.7189 9.01207 37.9981 13.3254 34.7432 16.3087Z" fill="url(#paint0_linear_913_7667)"/>
<defs>
<linearGradient id="paint0_linear_913_7667" x1="5.68393" y1="7.77317" x2="33.6989" y2="36.6221" gradientUnits="userSpaceOnUse">
<stop stop-color="#DCBC55"/>
<stop offset="0.33" stop-color="#C59F36"/>
<stop offset="0.705" stop-color="#BF9A32"/>
<stop offset="1" stop-color="#B9922D"/>
</linearGradient>
</defs>
</svg>
