<svg width="41" height="42" viewBox="0 0 41 42" fill="none" xmlns="http://www.w3.org/2000/svg">
<path d="M8.20244 30.8471C8.51721 31.1619 8.93228 31.3262 9.35773 31.3262C9.56872 31.3262 9.78318 31.2864 9.98725 31.2017C10.6012 30.9474 10.9973 30.3525 10.9973 29.6884V22.5803C12.0643 21.489 12.7267 19.9999 12.7267 18.3569C12.7267 15.019 10.0115 12.3038 6.67359 12.3038C3.33572 12.3038 0.620453 15.019 0.620453 18.3569C0.620453 19.9999 1.28284 21.4872 2.34992 22.5803V29.6884C2.34992 30.3525 2.74597 30.9474 3.35993 31.2017C3.97562 31.4542 4.67606 31.3175 5.17587 30.8143L6.67186 29.1592L8.19898 30.8471H8.20244ZM2.35165 18.3569C2.35165 15.972 4.29211 14.0332 6.67532 14.0332C9.05853 14.0332 10.999 15.972 10.999 18.3569C10.999 20.7418 9.05853 22.6806 6.67532 22.6806C4.29211 22.6806 2.35165 20.7418 2.35165 18.3569ZM4.08112 29.4497V23.803C4.86976 24.1818 5.74314 24.4101 6.67532 24.4101C7.60751 24.4101 8.48089 24.18 9.26952 23.803V29.4497L7.31695 27.2896C6.99008 26.9247 6.36056 26.9247 6.03369 27.2896L4.08112 29.4497ZM14.4579 33.9221C14.4579 33.4448 14.8453 33.0574 15.3227 33.0574H30.8879C31.3652 33.0574 31.7526 33.4448 31.7526 33.9221C31.7526 34.3995 31.3652 34.7869 30.8879 34.7869H15.3227C14.8453 34.7869 14.4579 34.3995 14.4579 33.9221ZM17.0521 20.9511C16.5748 20.9511 16.1874 20.5637 16.1874 20.0864C16.1874 19.609 16.5748 19.2216 17.0521 19.2216H30.8879C31.3652 19.2216 31.7526 19.609 31.7526 20.0864C31.7526 20.5637 31.3652 20.9511 30.8879 20.9511H17.0521ZM15.3227 26.1395H30.8879C31.3652 26.1395 31.7526 26.5269 31.7526 27.0043C31.7526 27.4816 31.3652 27.869 30.8879 27.869H15.3227C14.8453 27.869 14.4579 27.4816 14.4579 27.0043C14.4579 26.5269 14.8453 26.1395 15.3227 26.1395ZM37.107 9.5176L31.0799 3.49213C28.9578 1.36834 26.1353 0.199219 23.1312 0.199219H13.5932C9.30238 0.199219 5.81059 3.69102 5.81059 7.98183C5.81059 8.45916 6.19799 8.84656 6.67532 8.84656C7.15266 8.84656 7.54006 8.45916 7.54006 7.98183C7.54006 4.64395 10.2553 1.92869 13.5932 1.92869H23.1312C23.7106 1.92869 24.2779 1.99441 24.8347 2.09472V11.4408C24.8347 13.8257 26.7752 15.7644 29.1584 15.7644H38.5045C38.6048 16.3231 38.6705 16.8903 38.6705 17.468V33.9239C38.6705 37.2617 35.9552 39.977 32.6173 39.977H13.5932C10.8295 39.977 8.41863 38.1109 7.7303 35.4371C7.61269 34.9736 7.13709 34.7021 6.67705 34.8163C6.21355 34.9356 5.93511 35.4077 6.05444 35.8695C6.93993 39.306 10.0391 41.7065 13.5915 41.7065H32.6156C36.9064 41.7065 40.3982 38.2147 40.3982 33.9239V17.468C40.3982 14.4673 39.2291 11.6431 37.1053 9.5176H37.107ZM29.1584 14.0332C27.7281 14.0332 26.5642 12.8693 26.5642 11.439V2.58243C27.7818 3.05457 28.9059 3.76192 29.8571 4.71313L35.8843 10.7386C36.8355 11.6915 37.5429 12.814 38.0133 14.0315L29.1584 14.0332Z" fill="url(#paint0_linear_913_7681)"/>
<defs>
<linearGradient id="paint0_linear_913_7681" x1="5.99045" y1="7.77429" x2="34.0173" y2="35.4292" gradientUnits="userSpaceOnUse">
<stop stop-color="#DCBC55"/>
<stop offset="0.33" stop-color="#C59F36"/>
<stop offset="0.705" stop-color="#BF9A32"/>
<stop offset="1" stop-color="#B9922D"/>
</linearGradient>
</defs>
</svg>
