<svg width="72" height="72" viewBox="0 0 72 72" fill="none" xmlns="http://www.w3.org/2000/svg">
<path d="M61.5 18.9201C61.4981 18.3409 61.18 17.7806 60.6825 17.4803L50.299 11.382C49.3704 10.8366 48.2266 10.8439 47.2575 11.3135C40.2078 14.7298 31.8016 14.7266 24.7545 11.3039C23.7963 10.8385 22.6665 10.8252 21.7422 11.3545L11.3178 17.3238C10.8203 17.6241 10.5022 18.1844 10.5003 18.7636C10.4397 36.1407 19.9731 52.5812 35.0254 61.24C35.6181 61.5807 36.3822 61.5807 36.9749 61.24C51.9795 52.6085 61.5047 36.2422 61.5 18.9201Z" stroke="white" stroke-width="3" stroke-miterlimit="10"/>
<path opacity="0.5" d="M32.2623 24.1205C32.0625 24.6029 32.0625 25.2144 32.0625 26.4375V28.9365C32.0625 28.9959 32.0625 29.0256 32.044 29.044C32.0256 29.0625 31.9959 29.0625 31.9365 29.0625H29.4375C28.2144 29.0625 27.6029 29.0625 27.1205 29.2623C26.4773 29.5287 25.9662 30.0398 25.6998 30.683C25.5 31.1654 25.5 31.7769 25.5 33C25.5 34.2231 25.5 34.8346 25.6998 35.317C25.9662 35.9602 26.4773 36.4713 27.1205 36.7377C27.6029 36.9375 28.2144 36.9375 29.4375 36.9375H31.9365C31.9959 36.9375 32.0256 36.9375 32.044 36.956C32.0625 36.9744 32.0625 37.0041 32.0625 37.0635V39.5625C32.0625 40.7856 32.0625 41.3971 32.2623 41.8795C32.5287 42.5227 33.0398 43.0338 33.683 43.3002C34.1654 43.5 34.7769 43.5 36 43.5C37.2231 43.5 37.8346 43.5 38.317 43.3002C38.9602 43.0338 39.4713 42.5227 39.7377 41.8795C39.9375 41.3971 39.9375 40.7856 39.9375 39.5625V37.0635C39.9375 37.0041 39.9375 36.9744 39.956 36.956C39.9744 36.9375 40.0041 36.9375 40.0635 36.9375H42.5625C43.7856 36.9375 44.3971 36.9375 44.8795 36.7377C45.5227 36.4713 46.0338 35.9602 46.3002 35.317C46.5 34.8346 46.5 34.2231 46.5 33C46.5 31.7769 46.5 31.1654 46.3002 30.683C46.0338 30.0398 45.5227 29.5287 44.8795 29.2623C44.3971 29.0625 43.7856 29.0625 42.5625 29.0625H40.0635C40.0041 29.0625 39.9744 29.0625 39.956 29.044C39.9375 29.0256 39.9375 28.9959 39.9375 28.9365V26.4375C39.9375 25.2144 39.9375 24.6029 39.7377 24.1205C39.4713 23.4773 38.9602 22.9662 38.317 22.6998C37.8346 22.5 37.2231 22.5 36 22.5C34.7769 22.5 34.1654 22.5 33.683 22.6998C33.0398 22.9662 32.5287 23.4773 32.2623 24.1205Z" stroke="white" stroke-width="3"/>
</svg>
