<svg width="72" height="72" viewBox="0 0 72 72" fill="none" xmlns="http://www.w3.org/2000/svg">
<path opacity="0.5" d="M30 51C30 66 55.5 67.5 55.5 51V39" stroke="white" stroke-width="3"/>
<path opacity="0.5" d="M55.5 34.47H55.53V34.5H55.5V34.47Z" stroke="white" stroke-width="3" stroke-linejoin="round"/>
<path d="M60 34.5C60 36.9853 57.9853 39 55.5 39C53.0147 39 51 36.9853 51 34.5C51 32.0147 53.0147 30 55.5 30C57.9853 30 60 32.0147 60 34.5Z" stroke="white" stroke-width="3"/>
<path d="M22.5 15V15C18.3579 15 15 18.3579 15 22.5V36C15 44.2843 21.7157 51 30 51V51C38.2843 51 45 44.2843 45 36V21C45 17.6863 42.3137 15 39 15V15M22.5 15C22.5 16.6569 23.8431 18 25.5 18C27.1569 18 28.5 16.6569 28.5 15C28.5 13.3431 27.1569 12 25.5 12C23.8431 12 22.5 13.3431 22.5 15ZM39 15C39 16.6569 37.6569 18 36 18C34.3431 18 33 16.6569 33 15C33 13.3431 34.3431 12 36 12C37.6569 12 39 13.3431 39 15Z" stroke="white" stroke-width="3"/>
</svg>
