<svg width="54" height="55" viewBox="0 0 54 55" fill="none" xmlns="http://www.w3.org/2000/svg">
<rect y="0.0625" width="54" height="54" rx="27" fill="#B50508"/>
<path d="M36.3669 27.4569C36.2535 26.9414 36.0021 26.5091 35.6135 26.1598C35.2247 25.8106 34.7771 25.6052 34.2703 25.5441C32.6631 25.3694 30.2392 25.2821 26.9983 25.2821C23.7575 25.2821 21.3379 25.3694 19.7393 25.5441C19.2241 25.6052 18.7743 25.8106 18.3898 26.1598C18.0054 26.5093 17.7521 26.9416 17.6297 27.4569C17.4026 28.4704 17.2891 29.999 17.2891 32.043C17.2891 34.1219 17.4026 35.6506 17.6297 36.629C17.7434 37.1442 17.9946 37.5768 18.3833 37.926C18.772 38.2754 19.2197 38.4763 19.7263 38.5287C21.3337 38.7122 23.7578 38.8039 26.9984 38.8039C30.2388 38.8039 32.6634 38.7122 34.2702 38.5287C34.777 38.4763 35.2224 38.2754 35.6068 37.926C35.9913 37.5769 36.2446 37.1442 36.3668 36.629C36.5939 35.6156 36.7076 34.087 36.7076 32.043C36.7076 29.9641 36.5939 28.4353 36.3669 27.4569ZM22.8319 28.7806H21.43V36.2358H20.1198V28.7806H18.7439V27.549H22.832L22.8319 28.7806ZM26.3695 36.2358H25.2034V35.5281C24.7317 36.0611 24.2861 36.3275 23.8668 36.3275C23.4651 36.3275 23.2117 36.1657 23.107 35.8427C23.0372 35.633 23.0021 35.314 23.0021 34.8861V29.7631H24.1682V34.5324C24.1682 34.8118 24.1726 34.9647 24.1814 34.991C24.2077 35.1744 24.2993 35.2661 24.4566 35.2661C24.6924 35.2661 24.9415 35.0827 25.2035 34.7158V29.7631H26.3696L26.3695 36.2358ZM30.8245 34.2965C30.8245 34.9341 30.7852 35.3712 30.707 35.6071C30.5581 36.0872 30.2482 36.3275 29.7766 36.3275C29.3573 36.3275 28.9512 36.0872 28.5579 35.6071V36.2359H27.3919V27.549H28.5579V30.3922C28.9337 29.9208 29.3397 29.6849 29.7766 29.6849C30.2482 29.6849 30.5581 29.9295 30.707 30.4186C30.7852 30.6457 30.8245 31.078 30.8245 31.7157V34.2965ZM35.2532 33.2223H32.9079V34.3622C32.9079 34.9649 33.1086 35.2661 33.5105 35.2661C33.7986 35.2661 33.9735 35.1091 34.0346 34.7943C34.0518 34.7071 34.0608 34.4407 34.0608 33.9953H35.2531V34.1655C35.2531 34.5937 35.2442 34.8468 35.2269 34.9256C35.2008 35.1612 35.1094 35.3971 34.9517 35.633C34.6373 36.096 34.1652 36.3275 33.5364 36.3275C32.9339 36.3275 32.4622 36.1047 32.1214 35.6594C31.8682 35.3361 31.7416 34.8295 31.7416 34.1394V31.8725C31.7416 31.1825 31.8638 30.6758 32.1082 30.3526C32.449 29.9072 32.9163 29.6845 33.5105 29.6845C34.0958 29.6845 34.5591 29.9072 34.8993 30.3526C35.1355 30.6758 35.2532 31.1825 35.2532 31.8725V33.2223Z" fill="white"/>
<path d="M29.1471 30.7455C28.946 30.7455 28.7497 30.8419 28.5575 31.0338V34.9775C28.7497 35.1696 28.946 35.2657 29.1471 35.2657C29.4875 35.2657 29.6583 34.9733 29.6583 34.3878V31.6234C29.6582 31.038 29.4879 30.7455 29.1471 30.7455Z" fill="white"/>
<path d="M33.497 30.7455C33.104 30.7455 32.9075 31.0426 32.9075 31.6362V32.239H34.0866V31.6362C34.0866 31.0423 33.89 30.7455 33.497 30.7455Z" fill="white"/>
<path d="M22.0728 20.5521V24.1031H23.383V20.5521L24.9681 15.3242H23.6317L22.7409 18.7702L21.8105 15.3242H20.4218C20.6664 16.058 20.9502 16.8747 21.2735 17.7745C21.6841 18.9798 21.9503 19.9059 22.0728 20.5521Z" fill="white"/>
<path d="M26.7231 24.1945C27.3259 24.1945 27.7887 23.9717 28.1119 23.5263C28.3566 23.2031 28.4788 22.6876 28.4788 21.9802V19.6872C28.4788 18.9884 28.3563 18.4773 28.1119 18.1541C27.7887 17.7086 27.3259 17.4858 26.7231 17.4858C26.1377 17.4858 25.6791 17.7086 25.3473 18.1541C25.1028 18.4773 24.9805 18.9884 24.9805 19.6872V21.9802C24.9805 22.6789 25.1027 23.1943 25.3473 23.5262C25.6792 23.9718 26.1377 24.1945 26.7231 24.1945ZM26.1596 19.4513C26.1596 18.8485 26.3475 18.5471 26.7231 18.5471C27.0988 18.5471 27.2865 18.8485 27.2865 19.4513V22.2027C27.2865 22.8144 27.0988 23.1199 26.7231 23.1199C26.3475 23.1199 26.1596 22.8142 26.1596 22.2027V19.4513Z" fill="white"/>
<path d="M30.3262 24.1944C30.7632 24.1944 31.2132 23.9235 31.676 23.3818V24.1025H32.8683V17.5643H31.676V22.5564C31.4139 22.932 31.1651 23.1197 30.9289 23.1197C30.7716 23.1197 30.6798 23.0236 30.6538 22.8315C30.645 22.814 30.6406 22.661 30.6406 22.3728V17.5643H29.4483V22.7269C29.4483 23.1722 29.4835 23.4997 29.5532 23.7095C29.6668 24.0327 29.9244 24.1944 30.3262 24.1944Z" fill="white"/>
</svg>
